STARTFONT 2.1
COMMENT
COMMENT Converted from OpenType font "ipam.ttf" by "..\otf2bdf.exe 3.0".
COMMENT
FONT -FreeType-IPAMincho-Medium-R-Normal--24-240-72-72-P-213-ISO10646-1
SIZE 24 72 72
FONTBOUNDINGBOX 24 24 0 -3
STARTPROPERTIES 19
FOUNDRY "FreeType"
FAMILY_NAME "IPAMincho"
WEIGHT_NAME "Medium"
SLANT "R"
SETWIDTH_NAME "Normal"
ADD_STYLE_NAME ""
PIXEL_SIZE 24
POINT_SIZE 240
RESOLUTION_X 72
RESOLUTION_Y 72
SPACING "P"
AVERAGE_WIDTH 213
CHARSET_REGISTRY "ISO10646"
CHARSET_ENCODING "1"
FONT_ASCENT 21
FONT_DESCENT 2
COPYRIGHT "Copyright(c) Information-technology Promotion Agency, Japan (IPA), 2003-2011. You must accept "http://ipafont.ipa.go.jp/ipa_font_license_v1.html" to use this product."
_OTF_FONTFILE "ipam.ttf"
_OTF_PSNAME "IPAMincho"
ENDPROPERTIES
CHARS 11158
STARTCHAR 0020
ENCODING 32
SWIDTH 500 0
DWIDTH 12 0
BBX 0 0 0 0
BITMAP
ENDCHAR
STARTCHAR 0021
ENCODING 33
SWIDTH 500 0
DWIDTH 12 0
BBX 3 20 5 -1
BITMAP
C0
C0
C0
C0
C0
C0
C0
C0
C0
C0
C0
40
80
80
00
00
00
E0
E0
E0
ENDCHAR
STARTCHAR 0022
ENCODING 34
SWIDTH 500 0
DWIDTH 12 0
BBX 8 7 2 13
BITMAP
C6
E7
E7
23
42
44
88
ENDCHAR
STARTCHAR 0023
ENCODING 35
SWIDTH 500 0
DWIDTH 12 0
BBX 10 20 1 -1
BITMAP
0900
1100
1100
1100
1100
7FC0
1200
1200
1200
1200
1200
1200
2200
2200
FF80
2200
2400
2400
2400
2400
ENDCHAR
STARTCHAR 0024
ENCODING 36
SWIDTH 500 0
DWIDTH 12 0
BBX 10 21 1 -1
BITMAP
0400
0400
1F00
3480
64C0
65C0
65C0
7400
3C00
1C00
0700
0580
04C0
E4C0
E4C0
C4C0
44C0
3580
0E00
0400
0400
ENDCHAR
STARTCHAR 0025
ENCODING 37
SWIDTH 500 0
DWIDTH 12 0
BBX 10 22 1 -2
BITMAP
0040
7040
D880
D880
D900
D900
DA00
DA00
7200
0400
0400
0800
0B80
1280
16C0
16C0
26C0
26C0
46C0
4680
8380
8000
ENDCHAR
STARTCHAR 0026
ENCODING 38
SWIDTH 500 0
DWIDTH 12 0
BBX 10 18 1 0
BITMAP
1C00
2600
2600
2600
2400
2C00
3000
31C0
7080
5880
C880
CC80
C500
C700
C340
6340
6540
3880
ENDCHAR
STARTCHAR 0027
ENCODING 39
SWIDTH 500 0
DWIDTH 12 0
BBX 3 7 2 13
BITMAP
C0
E0
E0
20
40
40
80
ENDCHAR
STARTCHAR 0028
ENCODING 40
SWIDTH 500 0
DWIDTH 12 0
BBX 6 22 4 -2
BITMAP
0C
18
30
20
60
60
40
C0
C0
C0
C0
C0
C0
C0
C0
40
60
60
20
30
18
08
ENDCHAR
STARTCHAR 0029
ENCODING 41
SWIDTH 500 0
DWIDTH 12 0
BBX 6 22 2 -2
BITMAP
C0
60
20
30
18
18
18
0C
0C
0C
0C
0C
0C
0C
0C
18
18
18
30
30
60
40
ENDCHAR
STARTCHAR 002A
ENCODING 42
SWIDTH 500 0
DWIDTH 12 0
BBX 10 11 1 4
BITMAP
0C00
0C00
CCC0
EDC0
3B00
0C00
3B00
EDC0
CCC0
0C00
0C00
ENDCHAR
STARTCHAR 002B
ENCODING 43
SWIDTH 500 0
DWIDTH 12 0
BBX 10 13 1 3
BITMAP
0800
0800
0800
0800
0800
0800
FFC0
0800
0800
0800
0800
0800
0800
ENDCHAR
STARTCHAR 002C
ENCODING 44
SWIDTH 500 0
DWIDTH 12 0
BBX 4 7 2 -3
BITMAP
60
F0
F0
30
60
40
80
ENDCHAR
STARTCHAR 002D
ENCODING 45
SWIDTH 500 0
DWIDTH 12 0
BBX 10 1 1 9
BITMAP
FFC0
ENDCHAR
STARTCHAR 002E
ENCODING 46
SWIDTH 500 0
DWIDTH 12 0
BBX 3 3 2 0
BITMAP
E0
E0
E0
ENDCHAR
STARTCHAR 002F
ENCODING 47
SWIDTH 500 0
DWIDTH 12 0
BBX 10 22 1 -2
BITMAP
0040
0080
0080
0180
0100
0100
0200
0200
0600
0400
0400
0800
0800
1000
1000
1000
2000
2000
4000
4000
4000
8000
ENDCHAR
STARTCHAR 0030
ENCODING 48
SWIDTH 500 0
DWIDTH 12 0
BBX 10 18 1 0
BITMAP
1E00
3300
6180
6180
4080
C0C0
C0C0
C0C0
C0C0
C0C0
C0C0
C0C0
C0C0
C080
6180
6180
3300
1E00
ENDCHAR
STARTCHAR 0031
ENCODING 49
SWIDTH 500 0
DWIDTH 12 0
BBX 5 17 3 2
BITMAP
60
E0
20
20
20
20
20
20
20
20
20
20
20
20
20
20
F8
ENDCHAR
STARTCHAR 0032
ENCODING 50
SWIDTH 500 0
DWIDTH 12 0
BBX 10 17 1 1
BITMAP
3F00
6180
C0C0
E0C0
E0C0
01C0
0180
0300
0200
0400
0800
1800
1000
2040
4040
C0C0
FFC0
ENDCHAR
STARTCHAR 0033
ENCODING 51
SWIDTH 500 0
DWIDTH 12 0
BBX 9 18 1 0
BITMAP
1E00
6300
6180
6180
0180
0180
0300
1C00
0200
0300
0180
0180
C180
E180
C180
C300
6300
3C00
ENDCHAR
STARTCHAR 0034
ENCODING 52
SWIDTH 500 0
DWIDTH 12 0
BBX 10 17 1 1
BITMAP
0100
0300
0300
0500
0900
0900
1100
3100
2100
4100
C100
FFC0
0100
0100
0100
0100
07C0
ENDCHAR
STARTCHAR 0035
ENCODING 53
SWIDTH 500 0
DWIDTH 12 0
BBX 9 18 1 0
BITMAP
7F80
4000
4000
4000
4000
4000
5E00
6300
4300
0180
0180
0180
E180
E180
E180
C300
6600
3C00
ENDCHAR
STARTCHAR 0036
ENCODING 54
SWIDTH 500 0
DWIDTH 12 0
BBX 9 18 2 0
BITMAP
1E00
3300
6300
4000
4000
8000
8000
9E00
E300
C300
C180
C180
C180
C180
4180
6300
3300
1E00
ENDCHAR
STARTCHAR 0037
ENCODING 55
SWIDTH 500 0
DWIDTH 12 0
BBX 9 18 2 0
BITMAP
FF80
8180
8100
8100
8200
0200
0600
0400
0400
0C00
0C00
0800
0800
1800
1800
1800
1800
1800
ENDCHAR
STARTCHAR 0038
ENCODING 56
SWIDTH 500 0
DWIDTH 12 0
BBX 10 18 1 0
BITMAP
1E00
3300
6180
6180
6180
6180
3300
1C00
1E00
2300
6180
C0C0
C0C0
C0C0
C0C0
6180
7180
1E00
ENDCHAR
STARTCHAR 0039
ENCODING 57
SWIDTH 500 0
DWIDTH 12 0
BBX 9 18 1 0
BITMAP
3C00
6200
6300
C100
C180
C180
C180
C180
6380
3E80
0080
0080
0180
6100
6100
4300
2600
1C00
ENDCHAR
STARTCHAR 003A
ENCODING 58
SWIDTH 500 0
DWIDTH 12 0
BBX 3 12 4 1
BITMAP
E0
E0
E0
00
00
00
00
00
00
E0
E0
E0
ENDCHAR
STARTCHAR 003B
ENCODING 59
SWIDTH 500 0
DWIDTH 12 0
BBX 4 15 4 -2
BITMAP
E0
E0
E0
00
00
00
00
00
60
F0
F0
30
20
40
80
ENDCHAR
STARTCHAR 003C
ENCODING 60
SWIDTH 500 0
DWIDTH 12 0
BBX 8 15 2 1
BITMAP
01
01
02
04
08
30
60
C0
40
20
10
08
06
03
01
ENDCHAR
STARTCHAR 003D
ENCODING 61
SWIDTH 500 0
DWIDTH 12 0
BBX 10 5 1 7
BITMAP
FFC0
0000
0000
0000
FFC0
ENDCHAR
STARTCHAR 003E
ENCODING 62
SWIDTH 500 0
DWIDTH 12 0
BBX 8 14 2 2
BITMAP
80
40
20
10
0C
06
03
02
04
08
10
60
C0
80
ENDCHAR
STARTCHAR 003F
ENCODING 63
SWIDTH 500 0
DWIDTH 12 0
BBX 9 21 2 -1
BITMAP
3E00
4300
8180
8180
C180
C180
C180
0300
0200
0600
0400
0800
0800
0800
0800
0800
0000
0000
1C00
1C00
1C00
ENDCHAR
STARTCHAR 0040
ENCODING 64
SWIDTH 500 0
DWIDTH 12 0
BBX 10 19 1 0
BITMAP
1E00
3100
3080
6080
6C40
DB40
D940
F140
F240
F240
F240
F240
F240
F680
7D80
6040
3040
3880
0F00
ENDCHAR
STARTCHAR 0041
ENCODING 65
SWIDTH 500 0
DWIDTH 12 0
BBX 12 17 0 2
BITMAP
0400
0600
0600
0600
0A00
0B00
0900
0900
1100
1180
1F80
1080
2080
20C0
2040
2040
F1F0
ENDCHAR
STARTCHAR 0042
ENCODING 66
SWIDTH 500 0
DWIDTH 12 0
BBX 10 17 0 1
BITMAP
FE00
2300
2180
2180
2180
2180
2180
2300
3E00
2180
2080
20C0
20C0
20C0
20C0
2180
FF00
ENDCHAR
STARTCHAR 0043
ENCODING 67
SWIDTH 500 0
DWIDTH 12 0
BBX 9 18 1 0
BITMAP
1E80
3180
6080
6080
4080
C000
C000
C000
C000
C000
C000
C080
C080
4080
6080
6100
3300
1E00
ENDCHAR
STARTCHAR 0044
ENCODING 68
SWIDTH 500 0
DWIDTH 12 0
BBX 10 17 0 1
BITMAP
FC00
2300
2180
2180
20C0
20C0
20C0
20C0
20C0
20C0
20C0
20C0
20C0
2180
2180
2300
FC00
ENDCHAR
STARTCHAR 0045
ENCODING 69
SWIDTH 500 0
DWIDTH 12 0
BBX 11 17 0 1
BITMAP
FFC0
2040
2040
2040
2040
2000
2080
2080
3F80
2080
2080
2000
2000
2020
2020
2060
FFE0
ENDCHAR
STARTCHAR 0046
ENCODING 70
SWIDTH 500 0
DWIDTH 12 0
BBX 10 17 1 1
BITMAP
FFC0
20C0
2040
2040
2040
2000
2100
2100
3F00
2100
2100
2000
2000
2000
2000
2000
F800
ENDCHAR
STARTCHAR 0047
ENCODING 71
SWIDTH 500 0
DWIDTH 12 0
BBX 9 18 2 0
BITMAP
1D00
7300
6100
6100
C100
C000
C000
C000
C000
C780
C100
C100
C100
C100
6100
6100
3300
1C00
ENDCHAR
STARTCHAR 0048
ENCODING 72
SWIDTH 500 0
DWIDTH 12 0
BBX 10 17 1 1
BITMAP
F3C0
4080
4080
4080
4080
4080
4080
4080
7F80
4080
4080
4080
4080
4080
4080
4080
F3C0
ENDCHAR
STARTCHAR 0049
ENCODING 73
SWIDTH 500 0
DWIDTH 12 0
BBX 5 17 3 1
BITMAP
F8
20
20
20
20
20
20
20
20
20
20
20
20
20
20
20
F8
ENDCHAR
STARTCHAR 004A
ENCODING 74
SWIDTH 500 0
DWIDTH 12 0
BBX 9 18 2 0
BITMAP
0F80
0200
0200
0200
0200
0200
0200
0200
0200
0200
0200
0200
0200
C200
C200
C400
4400
3800
ENDCHAR
STARTCHAR 004B
ENCODING 75
SWIDTH 500 0
DWIDTH 12 0
BBX 10 17 1 1
BITMAP
E780
4200
4200
4400
4400
4800
4800
5800
5C00
6400
6400
4600
4200
4300
4100
4180
E3C0
ENDCHAR
STARTCHAR 004C
ENCODING 76
SWIDTH 500 0
DWIDTH 12 0
BBX 10 17 1 1
BITMAP
F800
2000
2000
2000
2000
2000
2000
2000
2000
2000
2000
2000
2040
2040
2040
20C0
FFC0
ENDCHAR
STARTCHAR 004D
ENCODING 77
SWIDTH 500 0
DWIDTH 12 0
BBX 10 17 1 1
BITMAP
E1C0
6180
6180
7180
5280
5280
5280
5280
5280
5A80
4C80
4C80
4C80
4C80
4C80
4880
E1C0
ENDCHAR
STARTCHAR 004E
ENCODING 78
SWIDTH 500 0
DWIDTH 12 0
BBX 10 17 1 0
BITMAP
E1C0
6080
7080
5080
5080
5880
4880
4C80
4480
4680
4680
4280
4380
4180
4180
4080
E080
ENDCHAR
STARTCHAR 004F
ENCODING 79
SWIDTH 500 0
DWIDTH 12 0
BBX 10 18 1 0
BITMAP
1E00
3100
6180
6080
4080
C0C0
C0C0
C0C0
C0C0
C0C0
C0C0
C0C0
C0C0
C080
6180
6180
3300
1E00
ENDCHAR
STARTCHAR 0050
ENCODING 80
SWIDTH 500 0
DWIDTH 12 0
BBX 10 17 0 1
BITMAP
FF00
2180
20C0
20C0
20C0
20C0
20C0
2180
3F00
2000
2000
2000
2000
2000
2000
2000
F800
ENDCHAR
STARTCHAR 0051
ENCODING 81
SWIDTH 500 0
DWIDTH 12 0
BBX 11 19 1 -1
BITMAP
1E00
3300
6180
6180
C0C0
C0C0
C0C0
C0C0
C0C0
C0C0
C0C0
CCC0
D4C0
5280
7380
7300
3A40
1F60
0180
ENDCHAR
STARTCHAR 0052
ENCODING 82
SWIDTH 500 0
DWIDTH 12 0
BBX 11 17 0 1
BITMAP
FE00
2180
20C0
20C0
20C0
20C0
21C0
2380
3E00
2400
2600
2200
2300
2100
2180
2180
F8E0
ENDCHAR
STARTCHAR 0053
ENCODING 83
SWIDTH 500 0
DWIDTH 12 0
BBX 9 18 2 0
BITMAP
3D00
4300
C100
C100
C000
E000
7000
3800
1C00
0600
0300
8180
8180
8180
8180
C180
A300
1E00
ENDCHAR
STARTCHAR 0054
ENCODING 84
SWIDTH 500 0
DWIDTH 12 0
BBX 10 17 1 1
BITMAP
FFC0
C8C0
8840
8840
0800
0800
0800
0800
0800
0800
0800
0800
0800
0800
0800
0800
3E00
ENDCHAR
STARTCHAR 0055
ENCODING 85
SWIDTH 500 0
DWIDTH 12 0
BBX 10 18 1 0
BITMAP
E1C0
4080
4080
4080
4080
4080
4080
4080
4080
4080
4080
4080
4080
4080
4080
4100
2300
1E00
ENDCHAR
STARTCHAR 0056
ENCODING 86
SWIDTH 500 0
DWIDTH 12 0
BBX 12 17 0 0
BITMAP
F8F0
2040
2040
2040
10C0
1080
1080
1880
0880
0900
0900
0D00
0600
0600
0600
0600
0400
ENDCHAR
STARTCHAR 0057
ENCODING 87
SWIDTH 500 0
DWIDTH 12 0
BBX 12 17 0 1
BITMAP
E770
6220
6220
6620
2640
2740
2740
2940
3940
3940
3940
1980
1980
1980
1080
1080
1080
ENDCHAR
STARTCHAR 0058
ENCODING 88
SWIDTH 500 0
DWIDTH 12 0
BBX 12 17 0 1
BITMAP
79E0
30C0
1080
1980
0900
0D00
0600
0600
0600
0600
0900
0900
1080
1080
2040
2040
F9F0
ENDCHAR
STARTCHAR 0059
ENCODING 89
SWIDTH 500 0
DWIDTH 12 0
BBX 11 17 0 1
BITMAP
F1E0
60C0
2080
3080
1100
1100
1A00
0A00
0A00
0400
0400
0400
0400
0400
0400
0400
1F00
ENDCHAR
STARTCHAR 005A
ENCODING 90
SWIDTH 500 0
DWIDTH 12 0
BBX 9 17 1 1
BITMAP
7F80
6180
4100
4300
0200
0600
0400
0C00
0C00
1800
1800
3000
3080
6080
6080
C180
FF80
ENDCHAR
STARTCHAR 005B
ENCODING 91
SWIDTH 500 0
DWIDTH 12 0
BBX 6 22 4 -2
BITMAP
FC
80
80
80
80
80
80
80
80
80
80
80
80
80
80
80
80
80
80
80
80
FC
ENDCHAR
STARTCHAR 005C
ENCODING 92
SWIDTH 500 0
DWIDTH 12 0
BBX 12 17 0 1
BITMAP
F1F0
6040
2040
3080
1080
1900
7FE0
0A00
0A00
0600
0400
7FE0
0400
0400
0400
0400
1F00
ENDCHAR
STARTCHAR 005D
ENCODING 93
SWIDTH 500 0
DWIDTH 12 0
BBX 6 22 2 -2
BITMAP
FC
04
04
04
04
04
04
04
04
04
04
04
04
04
04
04
04
04
04
04
04
FC
ENDCHAR
STARTCHAR 005E
ENCODING 94
SWIDTH 500 0
DWIDTH 12 0
BBX 8 3 2 15
BITMAP
3C
66
C3
ENDCHAR
STARTCHAR 005F
ENCODING 95
SWIDTH 500 0
DWIDTH 12 0
BBX 12 1 0 -3
BITMAP
FFF0
ENDCHAR
STARTCHAR 0060
ENCODING 96
SWIDTH 500 0
DWIDTH 12 0
BBX 7 3 2 15
BITMAP
F0
18
06
ENDCHAR
STARTCHAR 0061
ENCODING 97
SWIDTH 500 0
DWIDTH 12 0
BBX 9 13 2 0
BITMAP
7800
C400
C200
C200
0200
3E00
6200
C200
C200
C200
C280
C680
7900
ENDCHAR
STARTCHAR 0062
ENCODING 98
SWIDTH 500 0
DWIDTH 12 0
BBX 10 19 1 0
BITMAP
2000
E000
2000
2000
2000
2000
2E00
3380
2180
20C0
20C0
20C0
20C0
20C0
20C0
20C0
2180
3380
0E00
ENDCHAR
STARTCHAR 0063
ENCODING 99
SWIDTH 500 0
DWIDTH 12 0
BBX 8 13 2 0
BITMAP
3C
73
63
C3
C0
C0
C0
C0
C0
C1
61
32
1C
ENDCHAR
STARTCHAR 0064
ENCODING 100
SWIDTH 500 0
DWIDTH 12 0
BBX 9 19 2 0
BITMAP
0100
0700
0100
0100
0100
0100
1F00
7100
6100
C100
C100
C100
C100
C100
C100
C100
6100
6380
3C00
ENDCHAR
STARTCHAR 0065
ENCODING 101
SWIDTH 500 0
DWIDTH 12 0
BBX 8 13 2 0
BITMAP
3C
62
43
C3
81
FF
80
80
80
C1
41
62
1C
ENDCHAR
STARTCHAR 0066
ENCODING 102
SWIDTH 500 0
DWIDTH 12 0
BBX 9 17 2 1
BITMAP
0F00
1180
2180
2000
2000
FE00
2000
2000
2000
2000
2000
2000
2000
2000
2000
2000
7800
ENDCHAR
STARTCHAR 0067
ENCODING 103
SWIDTH 500 0
DWIDTH 12 0
BBX 11 16 1 -3
BITMAP
1FE0
3360
6180
6180
6180
7300
3E00
4000
4000
3E00
6380
C0C0
C0C0
C0C0
6180
3F00
ENDCHAR
STARTCHAR 0068
ENCODING 104
SWIDTH 500 0
DWIDTH 12 0
BBX 10 18 1 1
BITMAP
4000
C000
4000
4000
4000
4000
5E00
7100
4080
4080
4080
4080
4080
4080
4080
4080
4080
F3C0
ENDCHAR
STARTCHAR 0069
ENCODING 105
SWIDTH 500 0
DWIDTH 12 0
BBX 5 17 3 1
BITMAP
60
60
00
00
00
60
A0
20
20
20
20
20
20
20
20
20
F8
ENDCHAR
STARTCHAR 006A
ENCODING 106
SWIDTH 500 0
DWIDTH 12 0
BBX 6 21 2 -3
BITMAP
0C
0C
00
00
00
0C
14
04
04
04
04
04
04
04
04
04
04
C4
C4
C8
78
ENDCHAR
STARTCHAR 006B
ENCODING 107
SWIDTH 500 0
DWIDTH 12 0
BBX 10 18 1 1
BITMAP
4000
C000
4000
4000
4000
4000
4F80
4200
4400
4800
5800
6800
4C00
4400
4200
4300
4100
E7C0
ENDCHAR
STARTCHAR 006C
ENCODING 108
SWIDTH 500 0
DWIDTH 12 0
BBX 5 17 3 2
BITMAP
E0
20
20
20
20
20
20
20
20
20
20
20
20
20
20
20
F8
ENDCHAR
STARTCHAR 006D
ENCODING 109
SWIDTH 500 0
DWIDTH 12 0
BBX 12 13 0 1
BITMAP
2000
E9C0
7620
4420
4420
4420
4420
4420
4420
4420
4420
4420
EE70
ENDCHAR
STARTCHAR 006E
ENCODING 110
SWIDTH 500 0
DWIDTH 12 0
BBX 10 13 1 1
BITMAP
2000
EF00
7180
4080
4080
4080
4080
4080
4080
4080
4080
4080
F3C0
ENDCHAR
STARTCHAR 006F
ENCODING 111
SWIDTH 500 0
DWIDTH 12 0
BBX 8 13 2 0
BITMAP
38
66
E6
C3
C3
C3
C3
C3
C3
C3
66
66
3C
ENDCHAR
STARTCHAR 0070
ENCODING 112
SWIDTH 500 0
DWIDTH 12 0
BBX 9 16 2 -2
BITMAP
4000
DE00
6300
4300
4180
4180
4180
4180
4180
4300
6300
5E00
4000
4000
4000
F000
ENDCHAR
STARTCHAR 0071
ENCODING 113
SWIDTH 500 0
DWIDTH 12 0
BBX 9 15 2 -1
BITMAP
1F00
7100
6100
C100
C100
C100
C100
C100
6100
6300
3D00
0100
0100
0100
0780
ENDCHAR
STARTCHAR 0072
ENCODING 114
SWIDTH 500 0
DWIDTH 12 0
BBX 8 13 2 1
BITMAP
20
E7
2B
30
20
20
20
20
20
20
20
20
F8
ENDCHAR
STARTCHAR 0073
ENCODING 115
SWIDTH 500 0
DWIDTH 12 0
BBX 8 13 2 0
BITMAP
7E
E6
C2
C2
60
30
1C
06
83
83
C3
C6
3C
ENDCHAR
STARTCHAR 0074
ENCODING 116
SWIDTH 500 0
DWIDTH 12 0
BBX 8 17 2 0
BITMAP
10
10
10
70
FE
10
10
10
10
10
10
10
10
12
11
12
0C
ENDCHAR
STARTCHAR 0075
ENCODING 117
SWIDTH 500 0
DWIDTH 12 0
BBX 10 14 1 0
BITMAP
4080
C380
4080
4080
4080
4080
4080
4080
4080
4080
4080
4180
22C0
1C00
ENDCHAR
STARTCHAR 0076
ENCODING 118
SWIDTH 500 0
DWIDTH 12 0
BBX 10 12 1 0
BITMAP
F3C0
6080
6080
3100
3100
3100
1200
1A00
1A00
0C00
0C00
0800
ENDCHAR
STARTCHAR 0077
ENCODING 119
SWIDTH 500 0
DWIDTH 12 0
BBX 12 12 0 0
BITMAP
F770
6220
6220
2640
2740
3540
3940
1980
1980
1980
1880
1080
ENDCHAR
STARTCHAR 0078
ENCODING 120
SWIDTH 500 0
DWIDTH 12 0
BBX 10 12 1 1
BITMAP
F3C0
2100
3200
1200
0C00
0C00
0C00
1600
2300
2100
4180
F3C0
ENDCHAR
STARTCHAR 0079
ENCODING 121
SWIDTH 500 0
DWIDTH 12 0
BBX 11 16 1 -3
BITMAP
F1E0
6080
2080
2100
3100
1100
1A00
0A00
0A00
0C00
0400
0400
0800
C800
D000
6000
ENDCHAR
STARTCHAR 007A
ENCODING 122
SWIDTH 500 0
DWIDTH 12 0
BBX 8 12 2 1
BITMAP
FF
82
86
84
08
18
10
20
21
41
83
FF
ENDCHAR
STARTCHAR 007B
ENCODING 123
SWIDTH 500 0
DWIDTH 12 0
BBX 6 22 4 -1
BITMAP
0C
10
20
20
20
20
20
20
20
20
C0
40
20
20
20
20
20
20
20
30
10
0C
ENDCHAR
STARTCHAR 007C
ENCODING 124
SWIDTH 500 0
DWIDTH 12 0
BBX 1 24 5 -3
BITMAP
80
80
80
80
80
80
80
80
80
80
80
80
80
80
80
80
80
80
80
80
80
80
80
80
ENDCHAR
STARTCHAR 007D
ENCODING 125
SWIDTH 500 0
DWIDTH 12 0
BBX 6 22 2 -1
BITMAP
C0
20
10
10
10
10
10
10
10
10
0C
08
10
10
10
10
10
10
10
30
20
C0
ENDCHAR
STARTCHAR 007E
ENCODING 126
SWIDTH 500 0
DWIDTH 12 0
BBX 8 3 2 15
BITMAP
71
99
0E
ENDCHAR
STARTCHAR 00A0
ENCODING 160
SWIDTH 500 0
DWIDTH 12 0
BBX 0 0 0 0
BITMAP
ENDCHAR
STARTCHAR 00A1
ENCODING 161
SWIDTH 500 0
DWIDTH 12 0
BBX 3 20 5 -1
BITMAP
E0
E0
E0
00
00
80
80
80
80
C0
C0
C0
C0
C0
C0
C0
C0
C0
C0
C0
ENDCHAR
STARTCHAR 00A2
ENCODING 162
SWIDTH 1000 0
DWIDTH 24 0
BBX 11 17 7 1
BITMAP
0100
0100
1E00
3380
62C0
C4C0
C400
C400
C800
C800
C840
7060
7080
3F00
2000
2000
2000
ENDCHAR
STARTCHAR 00A3
ENCODING 163
SWIDTH 1000 0
DWIDTH 24 0
BBX 15 18 5 0
BITMAP
03E0
0630
0C18
1838
1838
1800
1800
0C00
7FE0
0400
0600
0600
0200
7E00
8706
87C4
84FC
7838
ENDCHAR
STARTCHAR 00A4
ENCODING 164
SWIDTH 500 0
DWIDTH 12 0
BBX 8 9 2 5
BITMAP
81
FF
66
42
42
42
66
FF
81
ENDCHAR
STARTCHAR 00A5
ENCODING 165
SWIDTH 1000 0
DWIDTH 24 0
BBX 16 17 4 1
BITMAP
FC3F
3004
1808
1808
0C10
0420
7FFE
0240
03C0
0180
7FFE
0180
0180
0180
0180
0180
07E0
ENDCHAR
STARTCHAR 00A6
ENCODING 166
SWIDTH 500 0
DWIDTH 12 0
BBX 1 22 5 -2
BITMAP
80
80
80
80
80
80
80
80
80
80
00
00
80
80
80
80
80
80
80
80
80
80
ENDCHAR
STARTCHAR 00A7
ENCODING 167
SWIDTH 1000 0
DWIDTH 24 0
BBX 10 22 7 -2
BITMAP
3E00
6180
81C0
81C0
81C0
C000
7000
3C00
4700
8180
80C0
C040
6040
3C80
0F00
0380
00C0
E040
E040
C040
6180
1F00
ENDCHAR
STARTCHAR 00A8
ENCODING 168
SWIDTH 1000 0
DWIDTH 24 0
BBX 10 3 7 15
BITMAP
E1C0
E1C0
E1C0
ENDCHAR
STARTCHAR 00A9
ENCODING 169
SWIDTH 500 0
DWIDTH 12 0
BBX 11 11 1 4
BITMAP
1F00
3080
5F40
A120
A020
A020
A120
9120
5E40
2180
1F00
ENDCHAR
STARTCHAR 00AA
ENCODING 170
SWIDTH 500 0
DWIDTH 12 0
BBX 8 10 1 8
BITMAP
F8
C4
0C
74
C4
C7
FE
00
00
FE
ENDCHAR
STARTCHAR 00AB
ENCODING 171
SWIDTH 500 0
DWIDTH 12 0
BBX 8 10 3 2
BITMAP
0B
12
24
68
50
D0
48
24
12
0A
ENDCHAR
STARTCHAR 00AC
ENCODING 172
SWIDTH 1000 0
DWIDTH 24 0
BBX 20 10 2 4
BITMAP
FFFFF0
000010
000010
000010
000010
000010
000010
000010
000010
000010
ENDCHAR
STARTCHAR 00AD
ENCODING 173
SWIDTH 500 0
DWIDTH 12 0
BBX 10 1 1 9
BITMAP
FFC0
ENDCHAR
STARTCHAR 00AE
ENCODING 174
SWIDTH 500 0
DWIDTH 12 0
BBX 11 10 1 4
BITMAP
1F00
2080
5F40
9120
9120
9E20
9320
79C0
2080
1F00
ENDCHAR
STARTCHAR 00AF
ENCODING 175
SWIDTH 500 0
DWIDTH 12 0
BBX 8 1 2 16
BITMAP
FF
ENDCHAR
STARTCHAR 00B0
ENCODING 176
SWIDTH 1000 0
DWIDTH 24 0
BBX 5 5 1 15
BITMAP
70
88
88
88
70
ENDCHAR
STARTCHAR 00B1
ENCODING 177
SWIDTH 1000 0
DWIDTH 24 0
BBX 16 17 4 1
BITMAP
0100
0100
0100
0100
0100
0100
FFFF
0100
0100
0100
0100
0100
0100
0000
0000
0000
FFFF
ENDCHAR
STARTCHAR 00B2
ENCODING 178
SWIDTH 500 0
DWIDTH 12 0
BBX 5 9 2 12
BITMAP
70
98
98
18
30
20
48
88
F8
ENDCHAR
STARTCHAR 00B3
ENCODING 179
SWIDTH 500 0
DWIDTH 12 0
BBX 5 8 2 12
BITMAP
F0
88
08
10
70
08
88
90
ENDCHAR
STARTCHAR 00B4
ENCODING 180
SWIDTH 1000 0
DWIDTH 24 0
BBX 6 3 10 15
BITMAP
3C
60
80
ENDCHAR
STARTCHAR 00B6
ENCODING 182
SWIDTH 1000 0
DWIDTH 24 0
BBX 10 22 6 -2
BITMAP
3FC0
7840
F840
F840
F840
F840
7840
7840
0840
0840
0840
0840
0840
0840
0840
0840
0840
0840
0840
0840
0840
0840
ENDCHAR
STARTCHAR 00B7
ENCODING 183
SWIDTH 500 0
DWIDTH 12 0
BBX 3 3 4 7
BITMAP
E0
E0
60
ENDCHAR
STARTCHAR 00B8
ENCODING 184
SWIDTH 500 0
DWIDTH 12 0
BBX 6 5 3 -1
BITMAP
20
40
78
0C
F8
ENDCHAR
STARTCHAR 00B9
ENCODING 185
SWIDTH 500 0
DWIDTH 12 0
BBX 3 9 3 12
BITMAP
40
C0
40
40
40
40
40
40
E0
ENDCHAR
STARTCHAR 00BA
ENCODING 186
SWIDTH 500 0
DWIDTH 12 0
BBX 7 10 1 8
BITMAP
78
44
C6
C6
C6
C6
6C
38
00
FE
ENDCHAR
STARTCHAR 00BB
ENCODING 187
SWIDTH 500 0
DWIDTH 12 0
BBX 8 10 1 2
BITMAP
D0
48
24
14
0A
0B
16
24
48
50
ENDCHAR
STARTCHAR 00BC
ENCODING 188
SWIDTH 500 0
DWIDTH 12 0
BBX 10 22 1 -3
BITMAP
4040
C080
4080
4100
4100
4100
4200
4200
4400
4400
F800
0880
0980
1280
1280
2480
2480
4880
4FC0
4080
8080
81C0
ENDCHAR
STARTCHAR 00BD
ENCODING 189
SWIDTH 500 0
DWIDTH 12 0
BBX 10 22 1 -3
BITMAP
4040
C080
4080
4080
4100
4100
4200
4200
4400
4400
E400
0B80
0C40
1640
1040
2040
2080
2100
4100
4240
8440
87C0
ENDCHAR
STARTCHAR 00BE
ENCODING 190
SWIDTH 500 0
DWIDTH 12 0
BBX 11 22 0 -3
BITMAP
3820
4440
4440
0440
0880
3080
0D00
C500
C600
CE00
7A00
0440
04C0
0940
0940
1240
1240
1440
27E0
2040
4040
40E0
ENDCHAR
STARTCHAR 00BF
ENCODING 191
SWIDTH 500 0
DWIDTH 12 0
BBX 9 20 2 -1
BITMAP
1C00
1C00
1C00
0000
0000
0800
0800
0800
0800
1800
1000
3000
6000
6000
C180
C180
C080
C080
6100
3E00
ENDCHAR
STARTCHAR 00C0
ENCODING 192
SWIDTH 500 0
DWIDTH 12 0
BBX 12 20 0 1
BITMAP
3C00
0200
0500
0600
0600
0600
0A00
0B00
0B00
0900
1100
1180
1180
1F80
1080
20C0
20C0
2040
2040
F1F0
ENDCHAR
STARTCHAR 00C1
ENCODING 193
SWIDTH 500 0
DWIDTH 12 0
BBX 12 20 0 1
BITMAP
0380
0400
0C00
0600
0600
0600
0A00
0B00
0B00
0900
1100
1180
1180
1F80
1080
20C0
20C0
2040
2040
F1F0
ENDCHAR
STARTCHAR 00C2
ENCODING 194
SWIDTH 500 0
DWIDTH 12 0
BBX 12 20 0 1
BITMAP
0600
0900
1480
0600
0600
0600
0A00
0B00
0B00
0900
1100
1180
1180
1F80
1080
20C0
20C0
2040
2040
F1F0
ENDCHAR
STARTCHAR 00C3
ENCODING 195
SWIDTH 500 0
DWIDTH 12 0
BBX 12 19 0 2
BITMAP
1F80
0000
0400
0600
0600
0600
0A00
0B00
0900
0900
1100
1180
1F80
1080
2080
20C0
2040
2040
F1F0
ENDCHAR
STARTCHAR 00C4
ENCODING 196
SWIDTH 500 0
DWIDTH 12 0
BBX 12 19 0 1
BITMAP
1980
1980
0400
0600
0600
0600
0A00
0B00
0900
0900
1100
1180
1F80
1080
2080
20C0
2040
2040
F1F0
ENDCHAR
STARTCHAR 00C5
ENCODING 197
SWIDTH 500 0
DWIDTH 12 0
BBX 12 20 0 1
BITMAP
0600
0900
0900
0600
0600
0600
0A00
0B00
0B00
0900
1100
1180
1180
1F80
1080
20C0
20C0
2040
2040
F1F0
ENDCHAR
STARTCHAR 00C6
ENCODING 198
SWIDTH 500 0
DWIDTH 12 0
BBX 11 17 0 1
BITMAP
07E0
0660
0620
0620
0A00
0A00
0A40
1240
13C0
1240
1E40
2200
2200
2220
4220
4220
F7E0
ENDCHAR
STARTCHAR 00C7
ENCODING 199
SWIDTH 500 0
DWIDTH 12 0
BBX 9 21 1 -3
BITMAP
1E80
3180
6080
6080
4080
C000
C000
C000
C000
C000
C000
C080
C080
4080
6080
2100
1300
0E00
0E00
1600
1E00
ENDCHAR
STARTCHAR 00C8
ENCODING 200
SWIDTH 500 0
DWIDTH 12 0
BBX 11 20 0 1
BITMAP
3800
0600
0100
FFC0
2040
2040
2040
2040
2000
2080
2080
3F80
2080
2080
2000
2000
2020
2020
2060
FFE0
ENDCHAR
STARTCHAR 00C9
ENCODING 201
SWIDTH 500 0
DWIDTH 12 0
BBX 11 20 0 1
BITMAP
0380
0C00
1000
FFC0
2040
2040
2040
2040
2000
2080
2080
3F80
2080
2080
2000
2000
2020
2020
2060
FFE0
ENDCHAR
STARTCHAR 00CA
ENCODING 202
SWIDTH 500 0
DWIDTH 12 0
BBX 11 20 0 1
BITMAP
0E00
1180
0000
FFC0
2040
2040
2040
2040
2000
2080
2080
3F80
2080
2080
2000
2000
2020
2020
2060
FFE0
ENDCHAR
STARTCHAR 00CB
ENCODING 203
SWIDTH 500 0
DWIDTH 12 0
BBX 11 20 0 1
BITMAP
3180
3180
0000
FFC0
2040
2040
2040
2040
2000
2080
2080
3F80
2080
2080
2000
2000
2020
2020
2060
FFE0
ENDCHAR
STARTCHAR 00CC
ENCODING 204
SWIDTH 500 0
DWIDTH 12 0
BBX 6 20 2 1
BITMAP
E0
10
08
7C
10
10
10
10
10
10
10
10
10
10
10
10
10
10
10
7C
ENDCHAR
STARTCHAR 00CD
ENCODING 205
SWIDTH 500 0
DWIDTH 12 0
BBX 6 20 3 1
BITMAP
3C
60
00
F8
20
20
20
20
20
20
20
20
20
20
20
20
20
20
20
F8
ENDCHAR
STARTCHAR 00CE
ENCODING 206
SWIDTH 500 0
DWIDTH 12 0
BBX 5 20 3 1
BITMAP
70
88
00
F8
20
20
20
20
20
20
20
20
20
20
20
20
20
20
20
F8
ENDCHAR
STARTCHAR 00CF
ENCODING 207
SWIDTH 500 0
DWIDTH 12 0
BBX 7 20 2 1
BITMAP
C6
C6
00
7C
10
10
10
10
10
10
10
10
10
10
10
10
10
10
10
7C
ENDCHAR
STARTCHAR 00D0
ENCODING 208
SWIDTH 500 0
DWIDTH 12 0
BBX 10 17 1 1
BITMAP
FC00
4700
4180
4180
4080
40C0
40C0
40C0
F8C0
40C0
40C0
40C0
4080
4180
4100
4700
FC00
ENDCHAR
STARTCHAR 00D1
ENCODING 209
SWIDTH 500 0
DWIDTH 12 0
BBX 10 20 1 0
BITMAP
1900
2600
0000
E1C0
6080
7080
5080
5080
5880
4880
4C80
4480
4480
4680
4280
4380
4180
4180
4080
E080
ENDCHAR
STARTCHAR 00D2
ENCODING 210
SWIDTH 500 0
DWIDTH 12 0
BBX 10 21 1 0
BITMAP
7800
0400
0200
1E00
3100
6180
6080
4080
C0C0
C0C0
C0C0
C0C0
C0C0
C0C0
C0C0
C0C0
C080
6180
6180
3300
1E00
ENDCHAR
STARTCHAR 00D3
ENCODING 211
SWIDTH 500 0
DWIDTH 12 0
BBX 10 21 1 0
BITMAP
0700
0800
1000
1E00
3100
6180
6080
4080
C0C0
C0C0
C0C0
C0C0
C0C0
C0C0
C0C0
C0C0
C080
6180
6180
3300
1E00
ENDCHAR
STARTCHAR 00D4
ENCODING 212
SWIDTH 500 0
DWIDTH 12 0
BBX 10 21 1 0
BITMAP
0C00
1200
2100
1E00
3100
6180
6080
4080
C0C0
C0C0
C0C0
C0C0
C0C0
C0C0
C0C0
C0C0
C080
6180
6180
3300
1E00
ENDCHAR
STARTCHAR 00D5
ENCODING 213
SWIDTH 500 0
DWIDTH 12 0
BBX 10 21 1 0
BITMAP
1900
2600
0000
1E00
3100
6180
6080
4080
C0C0
C0C0
C0C0
C0C0
C0C0
C0C0
C0C0
C0C0
C080
6180
6180
3300
1E00
ENDCHAR
STARTCHAR 00D6
ENCODING 214
SWIDTH 500 0
DWIDTH 12 0
BBX 10 21 1 0
BITMAP
3300
3300
0000
1E00
3100
6180
6080
4080
C0C0
C0C0
C0C0
C0C0
C0C0
C0C0
C0C0
C0C0
C080
6180
6180
3300
1E00
ENDCHAR
STARTCHAR 00D7
ENCODING 215
SWIDTH 1000 0
DWIDTH 24 0
BBX 14 14 5 2
BITMAP
8004
4008
2010
1020
0840
0480
0300
0300
0480
0840
1020
2010
4008
8004
ENDCHAR
STARTCHAR 00D8
ENCODING 216
SWIDTH 500 0
DWIDTH 12 0
BBX 10 19 1 1
BITMAP
0040
1E80
3380
6180
6180
C280
C2C0
C4C0
C4C0
C8C0
C8C0
D0C0
D0C0
E0C0
6080
6180
6180
7300
8E00
ENDCHAR
STARTCHAR 00D9
ENCODING 217
SWIDTH 500 0
DWIDTH 12 0
BBX 10 21 1 0
BITMAP
7000
0C00
0000
E1C0
4080
4080
4080
4080
4080
4080
4080
4080
4080
4080
4080
4080
4080
4080
4100
2300
1E00
ENDCHAR
STARTCHAR 00DA
ENCODING 218
SWIDTH 500 0
DWIDTH 12 0
BBX 10 21 1 0
BITMAP
0700
1800
0000
E1C0
4080
4080
4080
4080
4080
4080
4080
4080
4080
4080
4080
4080
4080
4080
4100
2300
1E00
ENDCHAR
STARTCHAR 00DB
ENCODING 219
SWIDTH 500 0
DWIDTH 12 0
BBX 10 21 1 0
BITMAP
1C00
2200
0000
E1C0
4080
4080
4080
4080
4080
4080
4080
4080
4080
4080
4080
4080
4080
4080
4100
2300
1E00
ENDCHAR
STARTCHAR 00DC
ENCODING 220
SWIDTH 500 0
DWIDTH 12 0
BBX 10 21 1 0
BITMAP
3300
3300
0000
E1C0
4080
4080
4080
4080
4080
4080
4080
4080
4080
4080
4080
4080
4080
4080
4100
2300
1E00
ENDCHAR
STARTCHAR 00DD
ENCODING 221
SWIDTH 500 0
DWIDTH 12 0
BBX 11 20 0 1
BITMAP
0780
0C00
0000
F1E0
60C0
2080
3080
1100
1100
1A00
0A00
0A00
0400
0400
0400
0400
0400
0400
0400
1F00
ENDCHAR
STARTCHAR 00DE
ENCODING 222
SWIDTH 500 0
DWIDTH 12 0
BBX 10 17 0 1
BITMAP
F800
2000
2000
2000
3E00
2180
20C0
20C0
20C0
20C0
20C0
2180
3F00
2000
2000
2000
F800
ENDCHAR
STARTCHAR 00DF
ENCODING 223
SWIDTH 500 0
DWIDTH 12 0
BBX 11 18 0 0
BITMAP
0F00
1180
20C0
20C0
20C0
20C0
2180
2600
2180
20C0
2060
2060
2060
2060
2060
2E40
ECC0
0780
ENDCHAR
STARTCHAR 00E0
ENCODING 224
SWIDTH 500 0
DWIDTH 12 0
BBX 9 16 2 0
BITMAP
7000
0800
0400
7800
C400
C200
C200
0200
3E00
6200
C200
C200
C200
C280
C680
7900
ENDCHAR
STARTCHAR 00E1
ENCODING 225
SWIDTH 500 0
DWIDTH 12 0
BBX 9 16 2 0
BITMAP
0E00
1000
2000
7800
C400
C200
C200
0200
3E00
6200
C200
C200
C200
C280
C680
7900
ENDCHAR
STARTCHAR 00E2
ENCODING 226
SWIDTH 500 0
DWIDTH 12 0
BBX 9 16 2 0
BITMAP
1800
2400
4200
7800
C400
C200
C200
0200
3E00
6200
C200
C200
C200
C280
C680
7900
ENDCHAR
STARTCHAR 00E3
ENCODING 227
SWIDTH 500 0
DWIDTH 12 0
BBX 9 17 2 0
BITMAP
3200
4C00
0000
0000
7800
C400
C200
C200
0200
3E00
6200
C200
C200
C200
C280
C680
7900
ENDCHAR
STARTCHAR 00E4
ENCODING 228
SWIDTH 500 0
DWIDTH 12 0
BBX 9 17 2 0
BITMAP
6600
6600
0000
0000
7800
C400
C200
C200
0200
3E00
6200
C200
C200
C200
C280
C680
7900
ENDCHAR
STARTCHAR 00E5
ENCODING 229
SWIDTH 500 0
DWIDTH 12 0
BBX 9 18 2 0
BITMAP
1800
2400
2400
1800
0000
7800
C400
C200
C200
0200
3E00
6200
C200
C200
C200
C280
C680
7900
ENDCHAR
STARTCHAR 00E6
ENCODING 230
SWIDTH 500 0
DWIDTH 12 0
BBX 9 13 1 0
BITMAP
7700
CD00
CC80
C880
0880
1F80
6800
4800
C880
C880
CC80
D500
6700
ENDCHAR
STARTCHAR 00E7
ENCODING 231
SWIDTH 500 0
DWIDTH 12 0
BBX 8 16 2 -3
BITMAP
3C
73
63
C3
C0
C0
C0
C0
C0
41
61
32
1C
1E
06
3C
ENDCHAR
STARTCHAR 00E8
ENCODING 232
SWIDTH 500 0
DWIDTH 12 0
BBX 8 16 2 0
BITMAP
70
08
04
3C
62
43
C3
81
FF
80
80
80
C1
41
62
1C
ENDCHAR
STARTCHAR 00E9
ENCODING 233
SWIDTH 500 0
DWIDTH 12 0
BBX 8 16 2 0
BITMAP
0E
10
20
3C
62
43
C3
81
FF
80
80
80
C1
41
62
1C
ENDCHAR
STARTCHAR 00EA
ENCODING 234
SWIDTH 500 0
DWIDTH 12 0
BBX 8 16 2 0
BITMAP
18
24
42
3C
62
43
C3
81
FF
80
80
80
C1
41
62
1C
ENDCHAR
STARTCHAR 00EB
ENCODING 235
SWIDTH 500 0
DWIDTH 12 0
BBX 8 17 2 0
BITMAP
66
66
00
00
3C
62
43
C3
81
FF
80
80
80
C1
41
62
1C
ENDCHAR
STARTCHAR 00EC
ENCODING 236
SWIDTH 500 0
DWIDTH 12 0
BBX 6 15 2 1
BITMAP
E0
10
08
10
70
10
10
10
10
10
10
10
10
10
7C
ENDCHAR
STARTCHAR 00ED
ENCODING 237
SWIDTH 500 0
DWIDTH 12 0
BBX 5 15 3 1
BITMAP
38
40
00
20
E0
20
20
20
20
20
20
20
20
20
F8
ENDCHAR
STARTCHAR 00EE
ENCODING 238
SWIDTH 500 0
DWIDTH 12 0
BBX 5 15 3 1
BITMAP
60
90
08
20
E0
20
20
20
20
20
20
20
20
20
F8
ENDCHAR
STARTCHAR 00EF
ENCODING 239
SWIDTH 500 0
DWIDTH 12 0
BBX 6 15 2 1
BITMAP
CC
CC
00
10
70
10
10
10
10
10
10
10
10
10
7C
ENDCHAR
STARTCHAR 00F0
ENCODING 240
SWIDTH 500 0
DWIDTH 12 0
BBX 9 19 1 1
BITMAP
2200
1400
1C00
2400
0200
0100
1F00
2300
6380
C180
C180
C180
C180
C180
C180
C100
6300
6200
1C00
ENDCHAR
STARTCHAR 00F1
ENCODING 241
SWIDTH 500 0
DWIDTH 12 0
BBX 10 16 1 1
BITMAP
1900
2F00
0000
2000
EF00
7180
4080
4080
4080
4080
4080
4080
4080
4080
4080
F3C0
ENDCHAR
STARTCHAR 00F2
ENCODING 242
SWIDTH 500 0
DWIDTH 12 0
BBX 8 16 2 0
BITMAP
70
08
04
38
66
E6
C3
C3
C3
C3
C3
C3
C3
66
66
3C
ENDCHAR
STARTCHAR 00F3
ENCODING 243
SWIDTH 500 0
DWIDTH 12 0
BBX 8 16 2 0
BITMAP
0E
10
20
38
66
E6
C3
C3
C3
C3
C3
C3
C3
66
66
3C
ENDCHAR
STARTCHAR 00F4
ENCODING 244
SWIDTH 500 0
DWIDTH 12 0
BBX 8 16 2 0
BITMAP
18
24
42
38
66
E6
C3
C3
C3
C3
C3
C3
C3
66
66
3C
ENDCHAR
STARTCHAR 00F5
ENCODING 245
SWIDTH 500 0
DWIDTH 12 0
BBX 8 17 2 0
BITMAP
32
4C
00
00
38
66
E6
C3
C3
C3
C3
C3
C3
C3
66
66
3C
ENDCHAR
STARTCHAR 00F6
ENCODING 246
SWIDTH 500 0
DWIDTH 12 0
BBX 8 17 2 0
BITMAP
66
66
00
00
38
66
E6
C3
C3
C3
C3
C3
C3
C3
66
66
3C
ENDCHAR
STARTCHAR 00F7
ENCODING 247
SWIDTH 1000 0
DWIDTH 24 0
BBX 16 13 4 3
BITMAP
01C0
01C0
01C0
0000
0000
0000
FFFF
0000
0000
0000
01C0
01C0
01C0
ENDCHAR
STARTCHAR 00F8
ENCODING 248
SWIDTH 500 0
DWIDTH 12 0
BBX 8 14 2 1
BITMAP
01
3E
62
E7
C7
CB
CB
D3
D3
E3
E3
46
A6
BC
ENDCHAR
STARTCHAR 00F9
ENCODING 249
SWIDTH 500 0
DWIDTH 12 0
BBX 10 16 1 0
BITMAP
7800
0400
0200
4180
C280
4080
4080
4080
4080
4080
4080
4080
4080
4180
22C0
1D00
ENDCHAR
STARTCHAR 00FA
ENCODING 250
SWIDTH 500 0
DWIDTH 12 0
BBX 10 16 1 0
BITMAP
0780
0800
1000
4180
C280
4080
4080
4080
4080
4080
4080
4080
4080
4180
22C0
1D00
ENDCHAR
STARTCHAR 00FB
ENCODING 251
SWIDTH 500 0
DWIDTH 12 0
BBX 10 16 1 0
BITMAP
1C00
2300
0000
4180
C280
4080
4080
4080
4080
4080
4080
4080
4080
4180
22C0
1D00
ENDCHAR
STARTCHAR 00FC
ENCODING 252
SWIDTH 500 0
DWIDTH 12 0
BBX 10 16 1 0
BITMAP
6180
6180
0000
4080
C380
4080
4080
4080
4080
4080
4080
4080
4080
4180
22C0
1D00
ENDCHAR
STARTCHAR 00FD
ENCODING 253
SWIDTH 500 0
DWIDTH 12 0
BBX 11 19 1 -3
BITMAP
0700
0800
1000
F1E0
6080
2080
2100
3100
1100
1A00
0A00
0A00
0C00
0400
0400
0800
C800
D000
6000
ENDCHAR
STARTCHAR 00FE
ENCODING 254
SWIDTH 500 0
DWIDTH 12 0
BBX 9 21 2 -2
BITMAP
4000
C000
4000
4000
4000
4000
5C00
6300
4300
4180
4180
4180
4180
4180
4180
4180
4300
6700
5C00
4000
E000
ENDCHAR
STARTCHAR 00FF
ENCODING 255
SWIDTH 500 0
DWIDTH 12 0
BBX 11 20 1 -3
BITMAP
3180
3180
0000
0000
F1E0
6080
2080
2100
3100
1100
1A00
0A00
0A00
0C00
0400
0400
0800
C800
D000
7000
ENDCHAR
STARTCHAR 0100
ENCODING 256
SWIDTH 500 0
DWIDTH 12 0
BBX 12 19 0 1
BITMAP
1F80
0000
0400
0600
0600
0600
0A00
0B00
0900
0900
1100
1180
1F80
1080
2080
20C0
2040
2040
F1F0
ENDCHAR
STARTCHAR 0101
ENCODING 257
SWIDTH 500 0
DWIDTH 12 0
BBX 9 16 2 0
BITMAP
7E00
0000
0000
7800
C400
C200
C200
0200
3E00
6200
C200
C200
C200
C280
C680
7900
ENDCHAR
STARTCHAR 0102
ENCODING 258
SWIDTH 500 0
DWIDTH 12 0
BBX 12 20 0 1
BITMAP
1080
0F00
0000
0400
0600
0600
0600
0A00
0B00
0900
0900
1100
1180
1F80
1080
2080
20C0
2040
2040
F1F0
ENDCHAR
STARTCHAR 0103
ENCODING 259
SWIDTH 500 0
DWIDTH 12 0
BBX 9 17 2 0
BITMAP
4600
3C00
0000
0000
7800
C400
C200
C200
0200
3E00
6200
C200
C200
C200
C280
C680
7900
ENDCHAR
STARTCHAR 0104
ENCODING 260
SWIDTH 500 0
DWIDTH 12 0
BBX 12 21 0 -2
BITMAP
0400
0600
0600
0600
0A00
0B00
0900
0900
1100
1180
1F80
1080
2080
20C0
2040
2040
F1F0
0080
0100
0120
01E0
ENDCHAR
STARTCHAR 0105
ENCODING 261
SWIDTH 500 0
DWIDTH 12 0
BBX 9 16 2 -3
BITMAP
7800
C400
C200
C200
0200
3E00
6200
C200
C200
C200
C280
C680
7B00
0400
0480
0700
ENDCHAR
STARTCHAR 0106
ENCODING 262
SWIDTH 500 0
DWIDTH 12 0
BBX 9 21 1 0
BITMAP
0700
0800
1000
1E80
3180
6080
6080
4080
C000
C000
C000
C000
C000
C000
C080
C080
4080
6080
6100
3300
1E00
ENDCHAR
STARTCHAR 0107
ENCODING 263
SWIDTH 500 0
DWIDTH 12 0
BBX 8 16 2 0
BITMAP
0E
10
20
3C
73
63
C3
C0
C0
C0
C0
C0
C1
61
32
1C
ENDCHAR
STARTCHAR 0108
ENCODING 264
SWIDTH 500 0
DWIDTH 12 0
BBX 9 21 1 0
BITMAP
0C00
1200
2100
1E80
3180
6080
6080
4080
C000
C000
C000
C000
C000
C000
C080
C080
4080
6080
6100
3300
1E00
ENDCHAR
STARTCHAR 0109
ENCODING 265
SWIDTH 500 0
DWIDTH 12 0
BBX 8 16 2 0
BITMAP
1C
22
00
3C
73
63
C3
C0
C0
C0
C0
C0
C1
61
32
1C
ENDCHAR
STARTCHAR 010C
ENCODING 268
SWIDTH 500 0
DWIDTH 12 0
BBX 9 21 1 0
BITMAP
3300
0C00
0000
1E80
3180
2180
6080
4080
C000
C000
C000
C000
C000
C000
C080
C080
4080
6080
6100
3300
1E00
ENDCHAR
STARTCHAR 010D
ENCODING 269
SWIDTH 500 0
DWIDTH 12 0
BBX 8 16 2 0
BITMAP
22
1C
00
3C
73
63
C3
C0
C0
C0
C0
C0
C1
61
32
1C
ENDCHAR
STARTCHAR 010E
ENCODING 270
SWIDTH 500 0
DWIDTH 12 0
BBX 10 20 0 1
BITMAP
2200
1C00
0000
FC00
2300
2180
2180
20C0
20C0
20C0
20C0
20C0
20C0
20C0
20C0
2080
2180
2180
2300
FC00
ENDCHAR
STARTCHAR 010F
ENCODING 271
SWIDTH 500 0
DWIDTH 12 0
BBX 10 20 1 0
BITMAP
00C0
02C0
0640
0280
0300
0200
0200
3E00
6200
6200
C200
C200
C200
C200
C200
C200
C200
6200
6700
3800
ENDCHAR
STARTCHAR 0111
ENCODING 273
SWIDTH 500 0
DWIDTH 12 0
BBX 9 18 2 1
BITMAP
0700
0100
0100
0F80
0100
3F00
7100
E100
C100
C100
C100
C100
C100
C100
C100
6100
6380
3C00
ENDCHAR
STARTCHAR 0112
ENCODING 274
SWIDTH 500 0
DWIDTH 12 0
BBX 11 19 0 1
BITMAP
1F80
0000
FFC0
2040
2040
2040
2040
2000
2080
2080
3F80
2080
2080
2000
2000
2020
2020
2060
FFE0
ENDCHAR
STARTCHAR 0113
ENCODING 275
SWIDTH 500 0
DWIDTH 12 0
BBX 8 16 2 0
BITMAP
7E
00
00
3C
62
43
C3
81
FF
80
80
80
C1
41
62
1C
ENDCHAR
STARTCHAR 0118
ENCODING 280
SWIDTH 500 0
DWIDTH 12 0
BBX 11 21 0 -3
BITMAP
FFC0
2040
2040
2040
2040
2000
2080
2080
3F80
2080
2080
2000
2000
2020
2020
2060
FFE0
0400
1800
1080
1F00
ENDCHAR
STARTCHAR 0119
ENCODING 281
SWIDTH 500 0
DWIDTH 12 0
BBX 8 16 2 -3
BITMAP
3C
62
43
C3
81
FF
80
80
C0
41
62
3E
10
20
24
3E
ENDCHAR
STARTCHAR 011A
ENCODING 282
SWIDTH 500 0
DWIDTH 12 0
BBX 11 20 0 1
BITMAP
1180
0E00
0000
FFC0
2040
2040
2040
2040
2000
2080
2080
3F80
2080
2080
2000
2000
2020
2020
2060
FFE0
ENDCHAR
STARTCHAR 011B
ENCODING 283
SWIDTH 500 0
DWIDTH 12 0
BBX 8 16 2 0
BITMAP
66
18
00
3C
62
43
C3
81
FF
80
80
80
C1
41
62
1C
ENDCHAR
STARTCHAR 011C
ENCODING 284
SWIDTH 500 0
DWIDTH 12 0
BBX 9 21 2 0
BITMAP
1C00
2200
0000
1D00
7300
6100
6100
C100
C000
C000
C000
C000
C780
C100
C100
C100
C100
6100
6100
3300
1C00
ENDCHAR
STARTCHAR 011D
ENCODING 285
SWIDTH 500 0
DWIDTH 12 0
BBX 11 19 1 -3
BITMAP
0C00
3200
0100
1FE0
3360
6180
6180
6180
7300
3E00
4000
4000
3E00
6380
C0C0
C0C0
C0C0
6180
3F00
ENDCHAR
STARTCHAR 0124
ENCODING 292
SWIDTH 500 0
DWIDTH 12 0
BBX 10 20 1 1
BITMAP
0C00
3300
0000
F3C0
4080
4080
4080
4080
4080
4080
4080
7F80
4080
4080
4080
4080
4080
4080
4080
F3C0
ENDCHAR
STARTCHAR 0125
ENCODING 293
SWIDTH 500 0
DWIDTH 12 0
BBX 10 20 1 1
BITMAP
0E00
3100
4000
C000
4000
4000
4000
4000
5E00
7100
4080
4080
4080
4080
4080
4080
4080
4080
4080
F3C0
ENDCHAR
STARTCHAR 0127
ENCODING 295
SWIDTH 500 0
DWIDTH 12 0
BBX 10 17 1 2
BITMAP
C000
4000
4000
F800
4000
5E00
7100
4080
4080
4080
4080
4080
4080
4080
4080
4080
F3C0
ENDCHAR
STARTCHAR 012A
ENCODING 298
SWIDTH 500 0
DWIDTH 12 0
BBX 6 19 3 1
BITMAP
FC
00
F8
20
20
20
20
20
20
20
20
20
20
20
20
20
20
20
F8
ENDCHAR
STARTCHAR 012B
ENCODING 299
SWIDTH 500 0
DWIDTH 12 0
BBX 6 15 3 1
BITMAP
FC
00
00
20
60
20
20
20
20
20
20
20
20
20
78
ENDCHAR
STARTCHAR 0134
ENCODING 308
SWIDTH 500 0
DWIDTH 12 0
BBX 9 21 2 0
BITMAP
0600
0980
0000
0F80
0200
0200
0200
0200
0200
0200
0200
0200
0200
0200
0200
0200
C200
C200
C400
4400
3800
ENDCHAR
STARTCHAR 0135
ENCODING 309
SWIDTH 500 0
DWIDTH 12 0
BBX 8 19 2 -3
BITMAP
0C
12
01
04
1C
04
04
04
04
04
04
04
04
04
04
C4
C4
C8
78
ENDCHAR
STARTCHAR 0139
ENCODING 313
SWIDTH 500 0
DWIDTH 12 0
BBX 10 20 1 1
BITMAP
0700
1800
0000
F800
2000
2000
2000
2000
2000
2000
2000
2000
2000
2000
2000
2040
2040
2040
20C0
FFC0
ENDCHAR
STARTCHAR 013A
ENCODING 314
SWIDTH 500 0
DWIDTH 12 0
BBX 5 20 3 1
BITMAP
38
40
A0
E0
20
20
20
20
20
20
20
20
20
20
20
20
20
20
20
F8
ENDCHAR
STARTCHAR 013D
ENCODING 317
SWIDTH 500 0
DWIDTH 12 0
BBX 10 19 1 1
BITMAP
0180
0180
F980
2080
2100
2000
2000
2000
2000
2000
2000
2000
2000
2000
2040
2040
2040
20C0
FFC0
ENDCHAR
STARTCHAR 013E
ENCODING 318
SWIDTH 500 0
DWIDTH 12 0
BBX 7 19 3 1
BITMAP
06
06
E6
22
24
28
20
20
20
20
20
20
20
20
20
20
20
20
F8
ENDCHAR
STARTCHAR 0141
ENCODING 321
SWIDTH 500 0
DWIDTH 12 0
BBX 10 17 1 1
BITMAP
F800
2000
2000
2000
2000
2C00
3000
2000
2000
6000
A000
2000
2040
2040
2040
20C0
FFC0
ENDCHAR
STARTCHAR 0142
ENCODING 322
SWIDTH 500 0
DWIDTH 12 0
BBX 7 17 2 2
BITMAP
70
10
10
10
10
16
18
10
10
30
D0
10
10
10
10
10
7C
ENDCHAR
STARTCHAR 0143
ENCODING 323
SWIDTH 500 0
DWIDTH 12 0
BBX 10 20 1 0
BITMAP
0700
0800
1000
E1C0
6080
7080
5080
5080
5880
4880
4C80
4480
4480
4680
4280
4380
4180
4180
4080
E080
ENDCHAR
STARTCHAR 0144
ENCODING 324
SWIDTH 500 0
DWIDTH 12 0
BBX 10 15 1 1
BITMAP
0780
1800
0000
EF00
7180
4080
4080
4080
4080
4080
4080
4080
4080
4080
F3C0
ENDCHAR
STARTCHAR 0147
ENCODING 327
SWIDTH 500 0
DWIDTH 12 0
BBX 10 20 1 0
BITMAP
3300
0C00
0000
E1C0
6080
7080
5080
5080
5880
4880
4C80
4480
4480
4680
4280
4380
4180
4180
4080
E080
ENDCHAR
STARTCHAR 0148
ENCODING 328
SWIDTH 500 0
DWIDTH 12 0
BBX 10 15 1 1
BITMAP
2300
1C00
0000
EF00
7180
4080
4080
4080
4080
4080
4080
4080
4080
4080
F3C0
ENDCHAR
STARTCHAR 014B
ENCODING 331
SWIDTH 500 0
DWIDTH 12 0
BBX 9 17 1 -3
BITMAP
2000
EF00
7180
4080
4080
4080
4080
4080
4080
4080
4080
4080
F080
0080
1C80
1900
0F00
ENDCHAR
STARTCHAR 014C
ENCODING 332
SWIDTH 500 0
DWIDTH 12 0
BBX 10 20 1 0
BITMAP
3F00
0000
1E00
3100
6180
6080
4080
C0C0
C0C0
C0C0
C0C0
C0C0
C0C0
C0C0
C0C0
C080
6180
6180
3300
1E00
ENDCHAR
STARTCHAR 014D
ENCODING 333
SWIDTH 500 0
DWIDTH 12 0
BBX 8 16 2 0
BITMAP
7E
00
00
38
66
E6
C3
C3
C3
C3
C3
C3
C3
66
66
3C
ENDCHAR
STARTCHAR 0150
ENCODING 336
SWIDTH 500 0
DWIDTH 12 0
BBX 10 21 1 0
BITMAP
0FC0
3200
0400
1E00
3300
6180
6180
4080
C0C0
C0C0
C0C0
C0C0
C0C0
C0C0
C0C0
C0C0
C080
6180
6180
3300
1E00
ENDCHAR
STARTCHAR 0151
ENCODING 337
SWIDTH 500 0
DWIDTH 12 0
BBX 9 17 2 0
BITMAP
1F80
3200
4400
0800
3800
6600
E600
C300
C300
C300
C300
C300
C300
C300
6600
6600
3C00
ENDCHAR
STARTCHAR 0152
ENCODING 338
SWIDTH 500 0
DWIDTH 12 0
BBX 10 18 1 0
BITMAP
1FC0
2440
6440
6440
C400
C400
C480
C480
C780
C480
C480
C400
C400
C440
6440
6440
27C0
3800
ENDCHAR
STARTCHAR 0153
ENCODING 339
SWIDTH 500 0
DWIDTH 12 0
BBX 10 13 1 0
BITMAP
3300
6E80
C480
C4C0
C4C0
C7C0
C400
C400
C480
C4C0
C480
6E80
7300
ENDCHAR
STARTCHAR 0154
ENCODING 340
SWIDTH 500 0
DWIDTH 12 0
BBX 11 20 0 1
BITMAP
0700
0800
1000
FE00
2180
20C0
20C0
20C0
20C0
21C0
2380
3E00
2400
2600
2200
2300
2100
2180
2180
F8E0
ENDCHAR
STARTCHAR 0155
ENCODING 341
SWIDTH 500 0
DWIDTH 12 0
BBX 8 15 2 1
BITMAP
0E
10
20
E7
2B
30
20
20
20
20
20
20
20
20
F8
ENDCHAR
STARTCHAR 0158
ENCODING 344
SWIDTH 500 0
DWIDTH 12 0
BBX 11 20 0 1
BITMAP
3300
0C00
0000
FE00
2180
20C0
20C0
20C0
20C0
21C0
2380
3E00
2400
2600
2200
2300
2100
2180
2180
F8E0
ENDCHAR
STARTCHAR 0159
ENCODING 345
SWIDTH 500 0
DWIDTH 12 0
BBX 8 15 2 1
BITMAP
66
18
00
E7
2B
30
20
20
20
20
20
20
20
20
F8
ENDCHAR
STARTCHAR 015A
ENCODING 346
SWIDTH 500 0
DWIDTH 12 0
BBX 9 21 2 0
BITMAP
0E00
1000
2000
3D00
4300
C100
C100
C000
E000
7000
3800
1C00
0600
0300
8180
8180
8180
8180
C180
A300
1E00
ENDCHAR
STARTCHAR 015B
ENCODING 347
SWIDTH 500 0
DWIDTH 12 0
BBX 8 16 2 0
BITMAP
0E
10
20
7E
E6
C2
C2
60
30
1C
06
83
83
C3
C6
3C
ENDCHAR
STARTCHAR 015C
ENCODING 348
SWIDTH 500 0
DWIDTH 12 0
BBX 9 21 2 0
BITMAP
1800
2600
4000
3D00
6300
C100
C100
C100
C000
6000
3000
1C00
0E00
0300
8380
8180
8180
8180
C180
A300
1E00
ENDCHAR
STARTCHAR 015D
ENCODING 349
SWIDTH 500 0
DWIDTH 12 0
BBX 8 16 2 0
BITMAP
38
64
00
7E
E6
C2
C2
60
30
1C
06
83
83
C3
C6
3C
ENDCHAR
STARTCHAR 015E
ENCODING 350
SWIDTH 500 0
DWIDTH 12 0
BBX 9 21 2 -2
BITMAP
3D00
6300
C100
C100
C000
6000
7000
1C00
0600
0300
8180
8180
8180
C180
E300
BE00
1C00
1C00
1C00
0800
1000
ENDCHAR
STARTCHAR 015F
ENCODING 351
SWIDTH 500 0
DWIDTH 12 0
BBX 8 16 2 -2
BITMAP
7E
C6
C2
C0
70
0C
06
83
83
C7
BC
18
18
18
10
10
ENDCHAR
STARTCHAR 0160
ENCODING 352
SWIDTH 500 0
DWIDTH 12 0
BBX 9 21 2 0
BITMAP
6600
1C00
0000
3D00
6300
C100
C100
C100
C000
6000
3000
1C00
0600
0300
8180
8180
8180
8180
C380
A300
1E00
ENDCHAR
STARTCHAR 0161
ENCODING 353
SWIDTH 500 0
DWIDTH 12 0
BBX 8 16 2 0
BITMAP
44
18
00
7E
E6
C2
C2
60
30
1C
06
83
83
C3
C6
3C
ENDCHAR
STARTCHAR 0162
ENCODING 354
SWIDTH 500 0
DWIDTH 12 0
BBX 10 21 1 -3
BITMAP
FFC0
C8C0
8840
8840
0800
0800
0800
0800
0800
0800
0800
0800
0800
0800
3E00
0000
1C00
1C00
1C00
0800
1000
ENDCHAR
STARTCHAR 0163
ENCODING 355
SWIDTH 500 0
DWIDTH 12 0
BBX 8 20 2 -3
BITMAP
10
10
10
70
FE
10
10
10
10
10
10
10
11
12
0C
18
18
18
08
10
ENDCHAR
STARTCHAR 0164
ENCODING 356
SWIDTH 500 0
DWIDTH 12 0
BBX 10 20 1 1
BITMAP
2300
1C00
0000
FFC0
C8C0
8840
8840
0800
0800
0800
0800
0800
0800
0800
0800
0800
0800
0800
0800
3E00
ENDCHAR
STARTCHAR 0165
ENCODING 357
SWIDTH 500 0
DWIDTH 12 0
BBX 8 20 2 0
BITMAP
07
07
01
12
14
10
70
FE
10
10
10
10
10
10
10
10
12
11
12
0C
ENDCHAR
STARTCHAR 016A
ENCODING 362
SWIDTH 500 0
DWIDTH 12 0
BBX 10 20 1 0
BITMAP
3F00
0000
F1C0
4080
4080
4080
4080
4080
4080
4080
4080
4080
4080
4080
4080
4080
4080
6100
2100
1E00
ENDCHAR
STARTCHAR 016B
ENCODING 363
SWIDTH 500 0
DWIDTH 12 0
BBX 10 16 1 0
BITMAP
3F00
0000
0000
C180
4280
4080
4080
4080
4080
4080
4080
4080
4080
4180
22C0
1D00
ENDCHAR
STARTCHAR 016C
ENCODING 364
SWIDTH 500 0
DWIDTH 12 0
BBX 10 21 1 0
BITMAP
2300
1C00
0000
E1C0
4080
4080
4080
4080
4080
4080
4080
4080
4080
4080
4080
4080
4080
4080
4100
2300
1E00
ENDCHAR
STARTCHAR 016D
ENCODING 365
SWIDTH 500 0
DWIDTH 12 0
BBX 10 17 1 0
BITMAP
2100
1E00
0000
0000
C380
4080
4080
4080
4080
4080
4080
4080
4080
4080
4180
22C0
1C00
ENDCHAR
STARTCHAR 016E
ENCODING 366
SWIDTH 500 0
DWIDTH 12 0
BBX 10 21 1 0
BITMAP
0C00
1200
1400
E9C0
4080
4080
4080
4080
4080
4080
4080
4080
4080
4080
4080
4080
4080
4080
4100
2300
1E00
ENDCHAR
STARTCHAR 016F
ENCODING 367
SWIDTH 500 0
DWIDTH 12 0
BBX 10 17 1 0
BITMAP
0C00
1200
1400
0800
4080
C380
4080
4080
4080
4080
4080
4080
4080
4080
4180
22C0
1D00
ENDCHAR
STARTCHAR 0170
ENCODING 368
SWIDTH 500 0
DWIDTH 12 0
BBX 10 21 1 0
BITMAP
1FC0
2200
0400
E1C0
4080
4080
4080
4080
4080
4080
4080
4080
4080
4080
4080
4080
4080
4080
4100
2300
1E00
ENDCHAR
STARTCHAR 0171
ENCODING 369
SWIDTH 500 0
DWIDTH 12 0
BBX 11 17 1 0
BITMAP
0EE0
1900
2200
4400
4080
C380
4080
4080
4080
4080
4080
4080
4080
4080
4180
22C0
1D00
ENDCHAR
STARTCHAR 0179
ENCODING 377
SWIDTH 500 0
DWIDTH 12 0
BBX 9 20 1 1
BITMAP
0700
0800
1000
7F80
6180
4100
4300
0200
0600
0400
0C00
0C00
1800
1800
3000
3080
6080
6080
C180
FF80
ENDCHAR
STARTCHAR 017A
ENCODING 378
SWIDTH 500 0
DWIDTH 12 0
BBX 8 15 2 1
BITMAP
0E
10
20
FF
82
86
84
08
18
10
20
21
41
83
FF
ENDCHAR
STARTCHAR 017B
ENCODING 379
SWIDTH 500 0
DWIDTH 12 0
BBX 9 20 1 1
BITMAP
0C00
0C00
0000
7F80
6180
4100
4300
0200
0600
0400
0C00
0C00
1800
1800
3000
3080
6080
6080
C180
FF80
ENDCHAR
STARTCHAR 017C
ENCODING 380
SWIDTH 500 0
DWIDTH 12 0
BBX 8 16 2 1
BITMAP
18
18
00
00
FF
82
86
84
08
18
10
20
21
41
83
FF
ENDCHAR
STARTCHAR 017D
ENCODING 381
SWIDTH 500 0
DWIDTH 12 0
BBX 9 20 1 1
BITMAP
3300
0C00
0000
7F80
6180
4100
4300
0200
0600
0400
0C00
0C00
1800
1800
3000
3080
6080
6080
C180
FF80
ENDCHAR
STARTCHAR 017E
ENCODING 382
SWIDTH 500 0
DWIDTH 12 0
BBX 8 15 2 1
BITMAP
66
18
00
FF
82
86
84
08
18
10
20
21
41
83
FF
ENDCHAR
STARTCHAR 0193
ENCODING 403
SWIDTH 500 0
DWIDTH 12 0
BBX 10 21 2 0
BITMAP
0180
0240
02C0
1EC0
2600
6200
4200
C200
C000
C000
C000
C000
C700
C200
C200
C200
C200
4200
6200
2600
3800
ENDCHAR
STARTCHAR 01C2
ENCODING 450
SWIDTH 500 0
DWIDTH 12 0
BBX 8 20 2 -2
BITMAP
10
10
10
10
10
FF
10
10
10
10
10
10
10
FF
10
10
10
10
10
10
ENDCHAR
STARTCHAR 01CD
ENCODING 461
SWIDTH 1000 0
DWIDTH 24 0
BBX 19 20 3 1
BITMAP
021000
01E000
00C000
008000
00C000
00C000
016000
012000
023000
023000
041800
041800
080800
0FFC00
080C00
100600
100600
200300
200300
F80FE0
ENDCHAR
STARTCHAR 01CE
ENCODING 462
SWIDTH 1000 0
DWIDTH 24 0
BBX 12 16 7 2
BITMAP
6300
1C00
0000
0000
7E00
C300
C180
C180
0780
3980
6180
C180
C180
C190
E3A0
7CC0
ENDCHAR
STARTCHAR 01D0
ENCODING 464
SWIDTH 1000 0
DWIDTH 24 0
BBX 8 15 8 2
BITMAP
E7
3C
00
08
78
18
18
18
18
18
18
18
18
18
7E
ENDCHAR
STARTCHAR 01D1
ENCODING 465
SWIDTH 1000 0
DWIDTH 24 0
BBX 16 20 4 1
BITMAP
0660
03C0
0000
07E0
1C38
300C
6006
6006
C003
C003
C003
C003
C003
C003
C003
6006
6006
300C
1C38
07E0
ENDCHAR
STARTCHAR 01D2
ENCODING 466
SWIDTH 1000 0
DWIDTH 24 0
BBX 12 16 6 2
BITMAP
1980
0F00
0000
0000
1F00
30C0
6060
C020
C030
C030
C030
C030
E070
6060
30C0
1F80
ENDCHAR
STARTCHAR 01D4
ENCODING 468
SWIDTH 1000 0
DWIDTH 24 0
BBX 14 16 5 0
BITMAP
0840
0780
0300
0000
F0F0
3030
3030
3030
3030
3030
3030
3030
3030
3070
18F0
0F3C
ENDCHAR
STARTCHAR 01D6
ENCODING 470
SWIDTH 1000 0
DWIDTH 24 0
BBX 14 17 5 0
BITMAP
0FC0
3060
3060
0000
0000
3030
F0F0
3030
3030
3030
3030
3030
3030
3030
3030
18F0
0F3C
ENDCHAR
STARTCHAR 01D8
ENCODING 472
SWIDTH 1000 0
DWIDTH 24 0
BBX 14 17 5 0
BITMAP
01E0
3260
3460
0000
0000
3030
F0F0
3030
3030
3030
3030
3030
3030
3030
3030
18F0
0F3C
ENDCHAR
STARTCHAR 01DA
ENCODING 474
SWIDTH 1000 0
DWIDTH 24 0
BBX 14 17 5 1
BITMAP
0CC0
3360
3060
0000
0000
3030
F0F0
3030
3030
3030
3030
3030
3030
3030
3030
18F0
0F3C
ENDCHAR
STARTCHAR 01DC
ENCODING 476
SWIDTH 1000 0
DWIDTH 24 0
BBX 14 17 5 0
BITMAP
1E00
3160
30E0
0000
0000
3030
F0F0
3030
3030
3030
3030
3030
3030
3030
3030
18F0
0F3C
ENDCHAR
STARTCHAR 01F8
ENCODING 504
SWIDTH 500 0
DWIDTH 12 0
BBX 10 20 1 0
BITMAP
7800
0400
0200
E1C0
6080
7080
5080
5080
5880
4880
4C80
4480
4480
4680
4280
4380
4180
4180
4080
E080
ENDCHAR
STARTCHAR 01F9
ENCODING 505
SWIDTH 500 0
DWIDTH 12 0
BBX 10 15 1 1
BITMAP
7000
0C00
0000
EF00
7180
4080
4080
4080
4080
4080
4080
4080
4080
4080
F3C0
ENDCHAR
STARTCHAR 01FD
ENCODING 509
SWIDTH 500 0
DWIDTH 12 0
BBX 9 16 1 0
BITMAP
0700
1800
0000
7700
CD00
CC80
C880
0880
1F80
6800
4800
C880
C880
CC80
D500
6700
ENDCHAR
STARTCHAR 0250
ENCODING 592
SWIDTH 500 0
DWIDTH 12 0
BBX 9 13 1 0
BITMAP
6F00
B180
2180
2180
2180
2300
2E00
3000
2180
2180
2180
1100
0E00
ENDCHAR
STARTCHAR 0251
ENCODING 593
SWIDTH 500 0
DWIDTH 12 0
BBX 9 13 2 1
BITMAP
3E00
6200
E200
C200
C200
C200
C200
C200
C200
C200
6280
6680
3900
ENDCHAR
STARTCHAR 0252
ENCODING 594
SWIDTH 500 0
DWIDTH 12 0
BBX 9 13 1 0
BITMAP
6E00
B300
2300
2180
2180
2180
2180
2180
2180
2180
2300
3300
0E00
ENDCHAR
STARTCHAR 0253
ENCODING 595
SWIDTH 500 0
DWIDTH 12 0
BBX 8 18 2 0
BITMAP
38
46
86
86
80
BC
C6
86
83
83
83
83
83
83
83
86
C6
3C
ENDCHAR
STARTCHAR 0254
ENCODING 596
SWIDTH 500 0
DWIDTH 12 0
BBX 8 13 2 0
BITMAP
78
8E
86
03
03
03
03
03
C3
C2
C6
4C
38
ENDCHAR
STARTCHAR 0255
ENCODING 597
SWIDTH 500 0
DWIDTH 12 0
BBX 9 13 2 0
BITMAP
3C00
7300
6300
C300
C000
C000
C000
C380
CC80
5080
6080
7300
9E00
ENDCHAR
STARTCHAR 0256
ENCODING 598
SWIDTH 500 0
DWIDTH 12 0
BBX 10 22 1 -3
BITMAP
0200
0600
0200
0200
0200
0200
3E00
6200
6200
C200
C200
C200
C200
C200
C200
C200
6200
6600
3AC0
02C0
0240
0180
ENDCHAR
STARTCHAR 0257
ENCODING 599
SWIDTH 500 0
DWIDTH 12 0
BBX 10 18 1 0
BITMAP
0180
02C0
02C0
0200
0200
3E00
6200
6200
C200
C200
C200
C200
C200
C200
C200
6200
6700
3800
ENDCHAR
STARTCHAR 0258
ENCODING 600
SWIDTH 500 0
DWIDTH 12 0
BBX 8 13 2 0
BITMAP
3C
66
C2
C3
81
FF
01
01
01
83
82
46
3C
ENDCHAR
STARTCHAR 0259
ENCODING 601
SWIDTH 500 0
DWIDTH 12 0
BBX 8 13 2 0
BITMAP
3C
46
83
03
01
01
FF
81
81
C3
42
66
3C
ENDCHAR
STARTCHAR 025A
ENCODING 602
SWIDTH 500 0
DWIDTH 12 0
BBX 11 13 1 0
BITMAP
3800
4C00
8400
8700
0720
0EA0
36C0
4600
C600
4600
4400
2C00
3800
ENDCHAR
STARTCHAR 025C
ENCODING 604
SWIDTH 500 0
DWIDTH 12 0
BBX 8 13 2 0
BITMAP
7C
C6
86
06
06
38
06
03
03
03
83
C6
3C
ENDCHAR
STARTCHAR 025E
ENCODING 606
SWIDTH 500 0
DWIDTH 12 0
BBX 9 13 1 0
BITMAP
1E00
2100
4080
C080
8080
8180
8F00
8180
8080
8080
4080
2100
1E00
ENDCHAR
STARTCHAR 025F
ENCODING 607
SWIDTH 500 0
DWIDTH 12 0
BBX 9 16 1 -3
BITMAP
1F00
0400
0400
0400
0400
0400
0400
0400
3F80
0400
0400
0400
0400
C400
C800
7000
ENDCHAR
STARTCHAR 0260
ENCODING 608
SWIDTH 500 0
DWIDTH 12 0
BBX 10 21 1 -3
BITMAP
0180
02C0
02C0
0200
0200
3E00
6200
C200
C200
C200
C200
C200
C200
6600
3A00
0200
E200
E200
C200
4400
3800
ENDCHAR
STARTCHAR 0261
ENCODING 609
SWIDTH 500 0
DWIDTH 12 0
BBX 8 16 2 -2
BITMAP
3F
63
61
C1
C1
C1
C1
C1
63
3D
01
61
61
41
22
1C
ENDCHAR
STARTCHAR 0264
ENCODING 612
SWIDTH 500 0
DWIDTH 12 0
BBX 11 13 0 0
BITMAP
2060
50A0
8920
0D00
0600
0600
0600
0600
0B00
0B00
0B00
0B00
0600
ENDCHAR
STARTCHAR 0265
ENCODING 613
SWIDTH 500 0
DWIDTH 12 0
BBX 10 15 1 -3
BITMAP
F3C0
4080
4080
4080
4080
4080
4080
4080
4080
4080
4180
2280
1C80
0080
00C0
ENDCHAR
STARTCHAR 0266
ENCODING 614
SWIDTH 500 0
DWIDTH 12 0
BBX 10 17 1 1
BITMAP
1F00
2180
4180
4000
4000
5E00
7100
4080
4080
4080
4080
4080
4080
4080
4080
4080
F3C0
ENDCHAR
STARTCHAR 0267
ENCODING 615
SWIDTH 500 0
DWIDTH 12 0
BBX 9 21 1 -3
BITMAP
1F00
2180
4180
4000
4000
5E00
7100
4080
4080
4080
4080
4080
4080
4080
4080
4080
F080
0080
1C80
1900
0F00
ENDCHAR
STARTCHAR 0268
ENCODING 616
SWIDTH 500 0
DWIDTH 12 0
BBX 6 17 3 1
BITMAP
60
60
00
00
00
60
20
20
20
20
FC
20
20
20
20
20
78
ENDCHAR
STARTCHAR 026C
ENCODING 620
SWIDTH 500 0
DWIDTH 12 0
BBX 7 18 2 1
BITMAP
10
70
10
10
10
10
F0
90
90
50
3E
10
10
10
10
10
10
7C
ENDCHAR
STARTCHAR 026D
ENCODING 621
SWIDTH 500 0
DWIDTH 12 0
BBX 7 21 3 -2
BITMAP
E0
20
20
20
20
20
20
20
20
20
20
20
20
20
20
20
20
26
26
32
1C
ENDCHAR
STARTCHAR 026E
ENCODING 622
SWIDTH 500 0
DWIDTH 12 0
BBX 10 22 0 -3
BITMAP
2000
E000
2000
2000
2000
2000
3FC0
3080
2100
2200
2400
2F00
3180
2180
20C0
20C0
20C0
F8C0
00C0
1180
1380
0F00
ENDCHAR
STARTCHAR 026F
ENCODING 623
SWIDTH 500 0
DWIDTH 12 0
BBX 12 13 0 0
BITMAP
EE70
4420
4420
4420
4420
4420
4420
4420
4420
4420
4460
4C70
3380
ENDCHAR
STARTCHAR 0270
ENCODING 624
SWIDTH 500 0
DWIDTH 12 0
BBX 12 15 0 -3
BITMAP
EE70
4420
4420
4420
4420
4420
4420
4420
4420
4420
4460
4C60
33A0
0020
0030
ENDCHAR
STARTCHAR 0271
ENCODING 625
SWIDTH 500 0
DWIDTH 12 0
BBX 11 17 0 -3
BITMAP
2000
E9C0
7620
4420
4420
4420
4420
4420
4420
4420
4420
4420
EE20
0020
0320
0260
01C0
ENDCHAR
STARTCHAR 0272
ENCODING 626
SWIDTH 500 0
DWIDTH 12 0
BBX 10 17 1 -3
BITMAP
1000
3700
1980
1080
1080
1080
1080
1080
1080
1080
1080
1080
11C0
D000
9000
B000
6000
ENDCHAR
STARTCHAR 0273
ENCODING 627
SWIDTH 500 0
DWIDTH 12 0
BBX 10 17 1 -3
BITMAP
4000
DC00
6600
4200
4200
4200
4200
4200
4200
4200
4200
4200
E200
02C0
02C0
0240
0180
ENDCHAR
STARTCHAR 0275
ENCODING 629
SWIDTH 500 0
DWIDTH 12 0
BBX 8 13 2 0
BITMAP
38
66
C2
81
81
81
FF
81
81
81
42
66
3C
ENDCHAR
STARTCHAR 0279
ENCODING 633
SWIDTH 500 0
DWIDTH 12 0
BBX 8 13 2 0
BITMAP
1F
04
04
04
04
04
04
04
04
0C
D4
D7
E0
ENDCHAR
STARTCHAR 027A
ENCODING 634
SWIDTH 500 0
DWIDTH 12 0
BBX 8 18 2 0
BITMAP
1F
04
04
04
04
04
04
04
04
04
04
04
04
04
0C
D4
D7
E0
ENDCHAR
STARTCHAR 027B
ENCODING 635
SWIDTH 500 0
DWIDTH 12 0
BBX 9 16 2 -3
BITMAP
1F00
0400
0400
0400
0400
0400
0400
0400
0400
0C00
CC00
D400
E580
0580
0480
0300
ENDCHAR
STARTCHAR 027D
ENCODING 637
SWIDTH 500 0
DWIDTH 12 0
BBX 8 17 2 -3
BITMAP
20
E7
2B
30
20
20
20
20
20
20
20
20
20
26
26
32
1C
ENDCHAR
STARTCHAR 027E
ENCODING 638
SWIDTH 500 0
DWIDTH 12 0
BBX 8 12 2 1
BITMAP
1E
33
23
20
20
20
20
20
20
20
20
F8
ENDCHAR
STARTCHAR 0281
ENCODING 641
SWIDTH 500 0
DWIDTH 12 0
BBX 10 12 2 1
BITMAP
E1C0
4300
4200
4600
4400
4C00
7C00
4700
4300
4300
4300
FE00
ENDCHAR
STARTCHAR 0282
ENCODING 642
SWIDTH 500 0
DWIDTH 12 0
BBX 8 16 2 -3
BITMAP
7E
E6
C2
C2
60
30
1C
06
83
83
C3
C6
BC
B0
90
60
ENDCHAR
STARTCHAR 0283
ENCODING 643
SWIDTH 500 0
DWIDTH 12 0
BBX 9 21 1 -3
BITMAP
0700
0D80
0980
0800
0800
0800
0800
0800
0800
0800
0800
0800
0800
0800
0800
0800
0800
0800
C800
9000
7000
ENDCHAR
STARTCHAR 0284
ENCODING 644
SWIDTH 500 0
DWIDTH 12 0
BBX 10 21 1 -3
BITMAP
0780
0CC0
08C0
0800
0800
0800
0800
0800
0800
0800
0800
0800
0800
3F00
0800
0800
0800
0800
C800
D000
7000
ENDCHAR
STARTCHAR 0288
ENCODING 648
SWIDTH 500 0
DWIDTH 12 0
BBX 8 20 2 -3
BITMAP
10
10
10
70
FE
10
10
10
10
10
10
10
10
10
10
10
13
13
1A
0E
ENDCHAR
STARTCHAR 0289
ENCODING 649
SWIDTH 500 0
DWIDTH 12 0
BBX 10 13 1 0
BITMAP
4180
C280
4080
4080
4080
FFC0
4080
4080
4080
4080
4180
22C0
1D00
ENDCHAR
STARTCHAR 028A
ENCODING 650
SWIDTH 500 0
DWIDTH 12 0
BBX 9 13 2 0
BITMAP
E700
4200
4200
C100
C180
C180
C180
C180
C180
C180
6300
6300
1C00
ENDCHAR
STARTCHAR 028B
ENCODING 651
SWIDTH 500 0
DWIDTH 12 0
BBX 8 14 1 0
BITMAP
40
C2
43
43
41
41
41
41
41
41
42
42
24
38
ENDCHAR
STARTCHAR 028C
ENCODING 652
SWIDTH 500 0
DWIDTH 12 0
BBX 10 12 1 1
BITMAP
0800
0C00
0C00
1400
1600
1200
2200
2300
2300
4180
4180
F3C0
ENDCHAR
STARTCHAR 028D
ENCODING 653
SWIDTH 500 0
DWIDTH 12 0
BBX 12 12 0 1
BITMAP
1080
1080
1980
1980
2980
2AC0
2AC0
2E40
4640
4460
4460
EEF0
ENDCHAR
STARTCHAR 028E
ENCODING 654
SWIDTH 500 0
DWIDTH 12 0
BBX 12 17 0 1
BITMAP
00E0
00B0
0130
0200
0200
0400
0400
0400
0600
0A00
0B00
1100
1180
1080
2080
20C0
F1E0
ENDCHAR
STARTCHAR 0290
ENCODING 656
SWIDTH 500 0
DWIDTH 12 0
BBX 11 16 1 -3
BITMAP
FF00
8200
8600
8C00
0800
1800
1000
2000
6100
4100
C300
FF00
0100
0160
0120
00C0
ENDCHAR
STARTCHAR 0291
ENCODING 657
SWIDTH 500 0
DWIDTH 12 0
BBX 9 13 2 -1
BITMAP
FF00
8200
8600
8400
0800
1800
1000
2000
2380
4480
8880
FF00
2000
ENDCHAR
STARTCHAR 0292
ENCODING 658
SWIDTH 500 0
DWIDTH 12 0
BBX 8 16 2 -3
BITMAP
FE
84
88
90
20
7C
86
06
03
03
03
C3
C3
86
4C
38
ENDCHAR
STARTCHAR 0294
ENCODING 660
SWIDTH 500 0
DWIDTH 12 0
BBX 7 17 3 1
BITMAP
78
CC
C6
C6
06
06
06
06
0C
18
20
20
20
20
20
20
F8
ENDCHAR
STARTCHAR 0295
ENCODING 661
SWIDTH 500 0
DWIDTH 12 0
BBX 7 17 2 1
BITMAP
3C
66
C6
C6
C0
C0
C0
C0
60
30
08
08
08
08
08
08
3E
ENDCHAR
STARTCHAR 0298
ENCODING 664
SWIDTH 500 0
DWIDTH 12 0
BBX 10 13 1 0
BITMAP
1E00
2100
4080
4080
8C40
8C40
8C40
8C40
8040
4080
4180
2300
1E00
ENDCHAR
STARTCHAR 029D
ENCODING 669
SWIDTH 500 0
DWIDTH 12 0
BBX 7 21 2 -3
BITMAP
18
18
00
00
00
18
28
08
08
08
08
08
08
08
08
08
08
78
8C
92
62
ENDCHAR
STARTCHAR 02A1
ENCODING 673
SWIDTH 500 0
DWIDTH 12 0
BBX 7 17 3 1
BITMAP
78
CC
C6
C6
06
06
06
06
0C
18
20
20
FC
20
20
20
78
ENDCHAR
STARTCHAR 02A2
ENCODING 674
SWIDTH 500 0
DWIDTH 12 0
BBX 7 17 2 1
BITMAP
3C
66
C6
C6
C0
C0
C0
40
60
30
08
08
7E
08
08
08
3C
ENDCHAR
STARTCHAR 02C7
ENCODING 711
SWIDTH 500 0
DWIDTH 12 0
BBX 8 3 2 15
BITMAP
C3
66
3C
ENDCHAR
STARTCHAR 02C8
ENCODING 712
SWIDTH 500 0
DWIDTH 12 0
BBX 1 3 6 18
BITMAP
80
80
80
ENDCHAR
STARTCHAR 02CC
ENCODING 716
SWIDTH 500 0
DWIDTH 12 0
BBX 1 4 6 -2
BITMAP
80
80
80
80
ENDCHAR
STARTCHAR 02D0
ENCODING 720
SWIDTH 500 0
DWIDTH 12 0
BBX 4 12 4 1
BITMAP
F0
60
20
40
00
00
00
00
40
40
60
60
ENDCHAR
STARTCHAR 02D1
ENCODING 721
SWIDTH 500 0
DWIDTH 12 0
BBX 4 3 4 9
BITMAP
F0
60
40
ENDCHAR
STARTCHAR 02D8
ENCODING 728
SWIDTH 500 0
DWIDTH 12 0
BBX 8 3 2 15
BITMAP
81
42
3C
ENDCHAR
STARTCHAR 02D9
ENCODING 729
SWIDTH 500 0
DWIDTH 12 0
BBX 3 3 5 15
BITMAP
E0
E0
E0
ENDCHAR
STARTCHAR 02DB
ENCODING 731
SWIDTH 500 0
DWIDTH 12 0
BBX 6 5 3 -1
BITMAP
30
60
C0
C8
FC
ENDCHAR
STARTCHAR 02DC
ENCODING 732
SWIDTH 500 0
DWIDTH 12 0
BBX 8 3 2 15
BITMAP
71
99
0E
ENDCHAR
STARTCHAR 02DD
ENCODING 733
SWIDTH 500 0
DWIDTH 12 0
BBX 10 3 1 15
BITMAP
3FC0
6600
8800
ENDCHAR
STARTCHAR 02DE
ENCODING 734
SWIDTH 500 0
DWIDTH 12 0
BBX 8 4 2 7
BITMAP
60
91
12
0E
ENDCHAR
STARTCHAR 02E5
ENCODING 741
SWIDTH 500 0
DWIDTH 12 0
BBX 7 24 2 -3
BITMAP
FE
02
02
02
02
02
02
02
02
02
02
02
02
02
02
02
02
02
02
02
02
02
02
02
ENDCHAR
STARTCHAR 02E6
ENCODING 742
SWIDTH 500 0
DWIDTH 12 0
BBX 7 24 2 -3
BITMAP
02
02
02
02
02
FE
02
02
02
02
02
02
02
02
02
02
02
02
02
02
02
02
02
02
ENDCHAR
STARTCHAR 02E7
ENCODING 743
SWIDTH 500 0
DWIDTH 12 0
BBX 7 24 2 -3
BITMAP
02
02
02
02
02
02
02
02
02
02
02
FE
02
02
02
02
02
02
02
02
02
02
02
02
ENDCHAR
STARTCHAR 02E8
ENCODING 744
SWIDTH 500 0
DWIDTH 12 0
BBX 7 24 2 -3
BITMAP
02
02
02
02
02
02
02
02
02
02
02
02
02
02
02
02
02
FE
02
02
02
02
02
02
ENDCHAR
STARTCHAR 02E9
ENCODING 745
SWIDTH 500 0
DWIDTH 12 0
BBX 7 24 2 -3
BITMAP
02
02
02
02
02
02
02
02
02
02
02
02
02
02
02
02
02
02
02
02
02
02
02
FE
ENDCHAR
STARTCHAR 0300
ENCODING 768
SWIDTH 500 0
DWIDTH 12 0
BBX 4 2 3 19
BITMAP
E0
10
ENDCHAR
STARTCHAR 0301
ENCODING 769
SWIDTH 500 0
DWIDTH 12 0
BBX 4 2 5 19
BITMAP
70
80
ENDCHAR
STARTCHAR 0302
ENCODING 770
SWIDTH 500 0
DWIDTH 12 0
BBX 4 2 4 19
BITMAP
60
90
ENDCHAR
STARTCHAR 0303
ENCODING 771
SWIDTH 500 0
DWIDTH 12 0
BBX 6 2 3 19
BITMAP
64
98
ENDCHAR
STARTCHAR 0304
ENCODING 772
SWIDTH 500 0
DWIDTH 12 0
BBX 6 1 3 19
BITMAP
FC
ENDCHAR
STARTCHAR 0306
ENCODING 774
SWIDTH 500 0
DWIDTH 12 0
BBX 6 2 3 19
BITMAP
84
78
ENDCHAR
STARTCHAR 0308
ENCODING 776
SWIDTH 500 0
DWIDTH 12 0
BBX 6 2 3 19
BITMAP
CC
CC
ENDCHAR
STARTCHAR 030B
ENCODING 779
SWIDTH 500 0
DWIDTH 12 0
BBX 8 2 3 19
BITMAP
3F
C8
ENDCHAR
STARTCHAR 030C
ENCODING 780
SWIDTH 500 0
DWIDTH 12 0
BBX 6 2 3 19
BITMAP
CC
30
ENDCHAR
STARTCHAR 030F
ENCODING 783
SWIDTH 500 0
DWIDTH 12 0
BBX 8 2 1 19
BITMAP
FC
13
ENDCHAR
STARTCHAR 0318
ENCODING 792
SWIDTH 500 0
DWIDTH 12 0
BBX 3 3 4 -3
BITMAP
20
E0
20
ENDCHAR
STARTCHAR 0319
ENCODING 793
SWIDTH 500 0
DWIDTH 12 0
BBX 3 3 5 -3
BITMAP
80
E0
80
ENDCHAR
STARTCHAR 031A
ENCODING 794
SWIDTH 500 0
DWIDTH 12 0
BBX 4 3 7 18
BITMAP
F0
10
10
ENDCHAR
STARTCHAR 031C
ENCODING 796
SWIDTH 500 0
DWIDTH 12 0
BBX 2 4 5 -3
BITMAP
40
80
80
40
ENDCHAR
STARTCHAR 031D
ENCODING 797
SWIDTH 500 0
DWIDTH 12 0
BBX 4 2 4 -2
BITMAP
20
F0
ENDCHAR
STARTCHAR 031E
ENCODING 798
SWIDTH 500 0
DWIDTH 12 0
BBX 4 2 4 -2
BITMAP
F0
20
ENDCHAR
STARTCHAR 031F
ENCODING 799
SWIDTH 500 0
DWIDTH 12 0
BBX 4 3 4 -3
BITMAP
F0
20
20
ENDCHAR
STARTCHAR 0320
ENCODING 800
SWIDTH 500 0
DWIDTH 12 0
BBX 4 1 4 -2
BITMAP
F0
ENDCHAR
STARTCHAR 0324
ENCODING 804
SWIDTH 500 0
DWIDTH 12 0
BBX 6 2 3 -2
BITMAP
CC
CC
ENDCHAR
STARTCHAR 0325
ENCODING 805
SWIDTH 500 0
DWIDTH 12 0
BBX 4 3 4 -3
BITMAP
E0
90
60
ENDCHAR
STARTCHAR 0329
ENCODING 809
SWIDTH 500 0
DWIDTH 12 0
BBX 1 3 6 -3
BITMAP
80
80
80
ENDCHAR
STARTCHAR 032A
ENCODING 810
SWIDTH 500 0
DWIDTH 12 0
BBX 6 2 3 -2
BITMAP
FC
84
ENDCHAR
STARTCHAR 032C
ENCODING 812
SWIDTH 500 0
DWIDTH 12 0
BBX 6 2 3 -2
BITMAP
CC
30
ENDCHAR
STARTCHAR 032F
ENCODING 815
SWIDTH 500 0
DWIDTH 12 0
BBX 6 2 3 -2
BITMAP
78
84
ENDCHAR
STARTCHAR 0330
ENCODING 816
SWIDTH 500 0
DWIDTH 12 0
BBX 6 2 3 -2
BITMAP
64
98
ENDCHAR
STARTCHAR 0334
ENCODING 820
SWIDTH 500 0
DWIDTH 12 0
BBX 6 1 3 9
BITMAP
FC
ENDCHAR
STARTCHAR 0339
ENCODING 825
SWIDTH 500 0
DWIDTH 12 0
BBX 2 4 5 -3
BITMAP
80
40
40
80
ENDCHAR
STARTCHAR 033A
ENCODING 826
SWIDTH 500 0
DWIDTH 12 0
BBX 6 2 3 -2
BITMAP
84
FC
ENDCHAR
STARTCHAR 033B
ENCODING 827
SWIDTH 500 0
DWIDTH 12 0
BBX 4 2 4 -2
BITMAP
F0
F0
ENDCHAR
STARTCHAR 033C
ENCODING 828
SWIDTH 500 0
DWIDTH 12 0
BBX 8 2 2 -2
BITMAP
7E
99
ENDCHAR
STARTCHAR 033D
ENCODING 829
SWIDTH 500 0
DWIDTH 12 0
BBX 6 2 3 19
BITMAP
FC
48
ENDCHAR
STARTCHAR 0361
ENCODING 865
SWIDTH 500 0
DWIDTH 12 0
BBX 10 3 1 17
BITMAP
3E00
6180
8040
ENDCHAR
STARTCHAR 0391
ENCODING 913
SWIDTH 1000 0
DWIDTH 24 0
BBX 19 17 3 2
BITMAP
00C000
00C000
014000
016000
012000
023000
023000
041800
041800
080800
0FFC00
080C00
100600
100600
200300
200300
F80FE0
ENDCHAR
STARTCHAR 0392
ENCODING 914
SWIDTH 1000 0
DWIDTH 24 0
BBX 15 17 5 1
BITMAP
FFE0
3038
301C
300C
300C
300C
3018
3030
3FC0
3038
300C
3006
3006
3006
300E
301C
FFF0
ENDCHAR
STARTCHAR 0393
ENCODING 915
SWIDTH 1000 0
DWIDTH 24 0
BBX 14 17 5 1
BITMAP
FFFC
301C
3004
3004
3004
3000
3000
3000
3000
3000
3000
3000
3000
3000
3000
3000
FC00
ENDCHAR
STARTCHAR 0394
ENCODING 916
SWIDTH 1000 0
DWIDTH 24 0
BBX 16 17 4 1
BITMAP
0100
0180
0180
02C0
02C0
0460
0460
0830
0830
1818
1018
300C
200C
200C
4006
4006
FFFF
ENDCHAR
STARTCHAR 0395
ENCODING 917
SWIDTH 1000 0
DWIDTH 24 0
BBX 14 17 5 1
BITMAP
FFF8
3018
3008
3008
3008
3040
3040
3040
3FC0
3040
3040
3000
3004
3004
300C
301C
FFFC
ENDCHAR
STARTCHAR 0396
ENCODING 918
SWIDTH 1000 0
DWIDTH 24 0
BBX 14 17 5 1
BITMAP
7FF8
6018
4030
4060
40E0
00C0
0180
0300
0700
0600
0C00
1804
3804
300C
600C
C01C
FFFC
ENDCHAR
STARTCHAR 0397
ENCODING 919
SWIDTH 1000 0
DWIDTH 24 0
BBX 16 17 4 1
BITMAP
FC3F
300C
300C
300C
300C
300C
300C
300C
3FFC
300C
300C
300C
300C
300C
300C
300C
FC3F
ENDCHAR
STARTCHAR 0398
ENCODING 920
SWIDTH 1000 0
DWIDTH 24 0
BBX 16 17 4 1
BITMAP
07E0
1C38
300C
6006
6006
C003
C813
C813
CFF3
C813
C813
C003
6006
6006
300C
1C38
07E0
ENDCHAR
STARTCHAR 0399
ENCODING 921
SWIDTH 1000 0
DWIDTH 24 0
BBX 8 17 8 1
BITMAP
FF
18
18
18
18
18
18
18
18
18
18
18
18
18
18
18
FF
ENDCHAR
STARTCHAR 039A
ENCODING 922
SWIDTH 1000 0
DWIDTH 24 0
BBX 17 17 4 1
BITMAP
FC3F00
300800
301000
302000
304000
308000
310000
338000
358000
38C000
306000
303000
301800
301800
300C00
300600
FC1F80
ENDCHAR
STARTCHAR 039B
ENCODING 923
SWIDTH 1000 0
DWIDTH 24 0
BBX 18 17 3 2
BITMAP
00C000
00C000
00C000
016000
016000
023000
023000
021000
041800
040800
0C0C00
080C00
180400
180600
100200
300300
FC1FC0
ENDCHAR
STARTCHAR 039C
ENCODING 924
SWIDTH 1000 0
DWIDTH 24 0
BBX 20 17 2 1
BITMAP
F000F0
3801C0
3801C0
2C02C0
2C02C0
2404C0
2604C0
2604C0
2308C0
2308C0
2110C0
2190C0
2190C0
20E0C0
20E0C0
2040C0
F843F0
ENDCHAR
STARTCHAR 039D
ENCODING 925
SWIDTH 1000 0
DWIDTH 24 0
BBX 18 17 3 0
BITMAP
F007C0
380100
2C0100
260100
260100
230100
218100
20C100
20E100
206100
203100
201900
200D00
200F00
200700
200300
F80100
ENDCHAR
STARTCHAR 039E
ENCODING 926
SWIDTH 1000 0
DWIDTH 24 0
BBX 14 17 5 1
BITMAP
7FF8
4008
4008
4008
0000
0000
1020
1020
1FE0
1020
1020
0000
0000
8004
8004
8004
FFFC
ENDCHAR
STARTCHAR 039F
ENCODING 927
SWIDTH 1000 0
DWIDTH 24 0
BBX 16 17 4 1
BITMAP
07E0
1C38
300C
6006
6006
C003
C003
C003
C003
C003
C003
C003
6006
6006
300C
1C18
07E0
ENDCHAR
STARTCHAR 03A0
ENCODING 928
SWIDTH 1000 0
DWIDTH 24 0
BBX 16 17 4 1
BITMAP
FFFF
300C
300C
300C
300C
300C
300C
300C
300C
300C
300C
300C
300C
300C
300C
300C
FC3F
ENDCHAR
STARTCHAR 03A1
ENCODING 929
SWIDTH 1000 0
DWIDTH 24 0
BBX 14 17 5 1
BITMAP
FFE0
3038
301C
300C
300C
300C
301C
3038
3FE0
3000
3000
3000
3000
3000
3000
3000
FC00
ENDCHAR
STARTCHAR 03A3
ENCODING 931
SWIDTH 1000 0
DWIDTH 24 0
BBX 15 17 4 1
BITMAP
FFFC
600C
3004
1804
0C00
0600
0300
0180
0180
0100
0200
0400
0802
1002
2002
4006
FFFE
ENDCHAR
STARTCHAR 03A4
ENCODING 932
SWIDTH 1000 0
DWIDTH 24 0
BBX 16 17 4 1
BITMAP
FFFF
C183
8181
8181
8181
0180
0180
0180
0180
0180
0180
0180
0180
0180
0180
0180
07E0
ENDCHAR
STARTCHAR 03A5
ENCODING 933
SWIDTH 1000 0
DWIDTH 24 0
BBX 16 17 4 1
BITMAP
3C3C
6246
43C2
8181
8181
0180
0180
0180
0180
0180
0180
0180
0180
0180
0180
0180
07E0
ENDCHAR
STARTCHAR 03A6
ENCODING 934
SWIDTH 1000 0
DWIDTH 24 0
BBX 16 17 4 1
BITMAP
07E0
0180
0180
1FF0
318C
6186
C183
C183
C183
C183
C183
6186
318C
1DB8
03C0
0180
07E0
ENDCHAR
STARTCHAR 03A7
ENCODING 935
SWIDTH 1000 0
DWIDTH 24 0
BBX 18 17 3 1
BITMAP
FE1F80
180600
0C0400
040800
061000
032000
01A000
00C000
00C000
016000
023000
021800
041800
080C00
100600
300700
FC1FC0
ENDCHAR
STARTCHAR 03A8
ENCODING 936
SWIDTH 1000 0
DWIDTH 24 0
BBX 18 17 3 1
BITMAP
71E380
98C640
98C640
18C600
18C600
18C600
18C600
18C600
18C600
08CC00
0CCC00
06D800
01E000
00C000
00C000
00C000
03F000
ENDCHAR
STARTCHAR 03A9
ENCODING 937
SWIDTH 1000 0
DWIDTH 24 0
BBX 16 17 4 1
BITMAP
07E0
1C38
300C
6006
6006
C003
C003
C003
C003
C003
4002
6006
2004
1008
8C31
8441
FC3F
ENDCHAR
STARTCHAR 03B1
ENCODING 945
SWIDTH 1000 0
DWIDTH 24 0
BBX 14 12 5 1
BITMAP
0788
0D90
10D0
30E0
60E0
60C0
C0C0
C0C0
C1C0
C2C4
E4C8
7870
ENDCHAR
STARTCHAR 03B2
ENCODING 946
SWIDTH 1000 0
DWIDTH 24 0
BBX 12 20 5 -2
BITMAP
03C0
0460
0830
0830
0830
1030
1060
1740
2780
2040
2060
2060
6060
6060
40C0
61C0
5F00
C000
C000
C000
ENDCHAR
STARTCHAR 03B3
ENCODING 947
SWIDTH 1000 0
DWIDTH 24 0
BBX 13 15 5 -2
BITMAP
7018
C830
8430
0460
0440
04C0
0280
0300
0300
0200
0200
0600
0600
0600
0400
ENDCHAR
STARTCHAR 03B4
ENCODING 948
SWIDTH 1000 0
DWIDTH 24 0
BBX 11 17 6 1
BITMAP
0F00
10C0
1060
1800
0C00
0600
0700
1980
20C0
60C0
C0C0
C0C0
C0C0
C180
C380
6300
3C00
ENDCHAR
STARTCHAR 03B5
ENCODING 949
SWIDTH 1000 0
DWIDTH 24 0
BBX 9 12 7 1
BITMAP
1F00
6080
4000
4000
7E00
7E00
C000
C000
C000
C080
6100
3E00
ENDCHAR
STARTCHAR 03B6
ENCODING 950
SWIDTH 1000 0
DWIDTH 24 0
BBX 11 21 6 -2
BITMAP
0400
0860
11C0
1380
0E00
0800
1800
3000
2000
6000
4000
C000
C000
C000
E000
7000
3E00
0380
0080
1880
0F00
ENDCHAR
STARTCHAR 03B7
ENCODING 951
SWIDTH 1000 0
DWIDTH 24 0
BBX 12 15 5 -2
BITMAP
71E0
8E30
0C10
0C10
0810
1830
1020
1020
3060
3040
2040
60C0
00C0
0080
0180
ENDCHAR
STARTCHAR 03B8
ENCODING 952
SWIDTH 1000 0
DWIDTH 24 0
BBX 11 17 6 1
BITMAP
0780
0CC0
1860
3060
3060
6060
6060
E060
FFE0
C060
C040
C0C0
C080
C180
4100
6200
3C00
ENDCHAR
STARTCHAR 03B9
ENCODING 953
SWIDTH 1000 0
DWIDTH 24 0
BBX 7 12 8 1
BITMAP
18
30
30
20
60
60
40
C0
C0
C2
C4
78
ENDCHAR
STARTCHAR 03BA
ENCODING 954
SWIDTH 1000 0
DWIDTH 24 0
BBX 13 12 6 1
BITMAP
0838
1870
1980
1200
3400
3E00
3300
2300
6300
4310
4310
C1E0
ENDCHAR
STARTCHAR 03BB
ENCODING 955
SWIDTH 1000 0
DWIDTH 24 0
BBX 13 17 5 1
BITMAP
0E00
1300
1100
0100
0100
0100
0100
0300
0700
0700
0D00
1900
1900
3100
6108
6190
C0E0
ENDCHAR
STARTCHAR 03BC
ENCODING 956
SWIDTH 1000 0
DWIDTH 24 0
BBX 14 15 5 -1
BITMAP
0810
1C30
1830
1020
3060
2060
2040
6040
60C4
60C8
7148
DE30
8000
8000
8000
ENDCHAR
STARTCHAR 03BD
ENCODING 957
SWIDTH 1000 0
DWIDTH 24 0
BBX 12 12 6 1
BITMAP
7060
9870
1810
1810
1830
1820
1860
10C0
1380
3E00
3800
2000
ENDCHAR
STARTCHAR 03BE
ENCODING 958
SWIDTH 1000 0
DWIDTH 24 0
BBX 10 21 7 -2
BITMAP
1000
21C0
3780
0800
1000
1000
2000
2000
2780
1F00
2000
4000
8000
8000
8000
C000
3C00
0300
0100
3100
1E00
ENDCHAR
STARTCHAR 03BF
ENCODING 959
SWIDTH 1000 0
DWIDTH 24 0
BBX 10 12 7 1
BITMAP
1F00
3180
6180
60C0
C0C0
C0C0
C0C0
C0C0
C180
6180
6300
3E00
ENDCHAR
STARTCHAR 03C0
ENCODING 960
SWIDTH 1000 0
DWIDTH 24 0
BBX 12 13 6 1
BITMAP
0010
7FF0
8900
0900
1100
1100
1200
3200
2200
2200
6230
4220
C1C0
ENDCHAR
STARTCHAR 03C1
ENCODING 961
SWIDTH 1000 0
DWIDTH 24 0
BBX 12 15 5 -2
BITMAP
03C0
0C60
1820
1030
3030
3030
3030
3030
7860
48C0
4780
4000
C000
C000
C000
ENDCHAR
STARTCHAR 03C2
ENCODING 962
SWIDTH 500 0
DWIDTH 12 0
BBX 10 16 1 -3
BITMAP
1F00
3080
70C0
61C0
61C0
6000
6000
3000
3800
1C00
0C00
0600
0600
C600
EE00
7800
ENDCHAR
STARTCHAR 03C3
ENCODING 963
SWIDTH 1000 0
DWIDTH 24 0
BBX 12 12 7 1
BITMAP
1FF0
2180
60C0
40C0
C0C0
C0C0
C0C0
C0C0
C180
6180
6300
3E00
ENDCHAR
STARTCHAR 03C4
ENCODING 964
SWIDTH 1000 0
DWIDTH 24 0
BBX 12 13 6 1
BITMAP
0010
7FF0
8200
0400
0400
0C00
0C00
0800
1800
1800
1880
1900
0E00
ENDCHAR
STARTCHAR 03C5
ENCODING 965
SWIDTH 1000 0
DWIDTH 24 0
BBX 12 12 5 1
BITMAP
7020
8830
0830
0810
1810
1810
1010
3020
3020
3040
18C0
0F00
ENDCHAR
STARTCHAR 03C6
ENCODING 966
SWIDTH 1000 0
DWIDTH 24 0
BBX 12 19 6 -2
BITMAP
0080
0180
0100
0100
0780
1940
2260
4230
C230
C430
C430
C430
C460
6860
69C0
1E00
0800
1000
1000
ENDCHAR
STARTCHAR 03C7
ENCODING 967
SWIDTH 1000 0
DWIDTH 24 0
BBX 12 15 6 -2
BITMAP
7030
8860
0CC0
0480
0580
0500
0600
0600
0C00
0A00
1A00
3200
6210
C120
C1C0
ENDCHAR
STARTCHAR 03C8
ENCODING 968
SWIDTH 1000 0
DWIDTH 24 0
BBX 13 19 6 -2
BITMAP
00C0
0080
0180
0180
1920
3110
6110
4218
C218
C218
C218
C438
C430
6460
38C0
0F00
0800
1800
1800
ENDCHAR
STARTCHAR 03C9
ENCODING 969
SWIDTH 1000 0
DWIDTH 24 0
BBX 16 12 4 2
BITMAP
0404
1806
3002
6003
60C3
C0C3
C1C3
C183
C106
C106
628C
3C78
ENDCHAR
STARTCHAR 0401
ENCODING 1025
SWIDTH 1000 0
DWIDTH 24 0
BBX 14 20 5 1
BITMAP
1860
1860
0000
FFF8
3018
3008
3008
3008
3040
3040
3040
3FC0
3040
3040
3000
3004
3004
300C
301C
FFFC
ENDCHAR
STARTCHAR 0410
ENCODING 1040
SWIDTH 1000 0
DWIDTH 24 0
BBX 19 17 3 2
BITMAP
00C000
00C000
014000
016000
012000
023000
023000
041800
041800
080800
0FFC00
080C00
100600
100600
200300
200300
F80FE0
ENDCHAR
STARTCHAR 0411
ENCODING 1041
SWIDTH 1000 0
DWIDTH 24 0
BBX 14 17 5 1
BITMAP
FFF8
3018
3008
3008
3008
3000
3000
3000
3FE0
3038
301C
300C
300C
300C
301C
3038
FFE0
ENDCHAR
STARTCHAR 0412
ENCODING 1042
SWIDTH 1000 0
DWIDTH 24 0
BBX 15 17 5 1
BITMAP
FFE0
3038
301C
300C
300C
300C
3018
3030
3FC0
3038
300C
3006
3006
3006
300E
301C
FFF0
ENDCHAR
STARTCHAR 0413
ENCODING 1043
SWIDTH 1000 0
DWIDTH 24 0
BBX 14 17 5 1
BITMAP
FFFC
301C
3004
3004
3004
3000
3000
3000
3000
3000
3000
3000
3000
3000
3000
3000
FC00
ENDCHAR
STARTCHAR 0414
ENCODING 1044
SWIDTH 1000 0
DWIDTH 24 0
BBX 16 20 4 -2
BITMAP
1FFF
040C
040C
040C
040C
080C
080C
080C
080C
080C
080C
100C
100C
200C
200C
400C
FFFF
C001
8001
8001
ENDCHAR
STARTCHAR 0415
ENCODING 1045
SWIDTH 1000 0
DWIDTH 24 0
BBX 14 17 5 1
BITMAP
FFF8
3018
3008
3008
3008
3040
3040
3040
3FC0
3040
3040
3000
3004
3004
300C
301C
FFFC
ENDCHAR
STARTCHAR 0416
ENCODING 1046
SWIDTH 1000 0
DWIDTH 24 0
BBX 22 17 1 1
BITMAP
30FC30
683058
683058
083080
043080
043080
023100
013200
01FE00
033300
063180
063180
0C30C0
183060
183060
303030
F8FC7C
ENDCHAR
STARTCHAR 0417
ENCODING 1047
SWIDTH 1000 0
DWIDTH 24 0
BBX 13 17 6 1
BITMAP
0F80
7060
6030
4030
0030
0030
00E0
0F00
00E0
0030
0018
0018
8018
C018
C030
7060
1F80
ENDCHAR
STARTCHAR 0418
ENCODING 1048
SWIDTH 1000 0
DWIDTH 24 0
BBX 16 17 4 1
BITMAP
FC3F
300C
300C
300C
301C
302C
304C
308C
310C
320C
340C
380C
300C
300C
300C
300C
FC3F
ENDCHAR
STARTCHAR 0419
ENCODING 1049
SWIDTH 1000 0
DWIDTH 24 0
BBX 16 20 4 1
BITMAP
0660
0660
03C0
FC3F
300C
300C
300C
301C
302C
304C
308C
310C
320C
340C
380C
300C
300C
300C
300C
FC3F
ENDCHAR
STARTCHAR 041A
ENCODING 1050
SWIDTH 1000 0
DWIDTH 24 0
BBX 17 17 4 2
BITMAP
FC0F00
301700
301700
302000
302000
304000
308000
378000
398000
30C000
306000
303000
301800
301800
300C00
300600
FC1F80
ENDCHAR
STARTCHAR 041B
ENCODING 1051
SWIDTH 1000 0
DWIDTH 24 0
BBX 18 17 2 1
BITMAP
07FFC0
018300
010300
010300
010300
010300
010300
010300
010300
010300
010300
030300
E30300
E20300
E20300
C40300
780FC0
ENDCHAR
STARTCHAR 041C
ENCODING 1052
SWIDTH 1000 0
DWIDTH 24 0
BBX 22 17 1 1
BITMAP
3C00F0
0E01C0
0E01C0
0B02C0
0B0240
090240
098440
098440
108460
10C860
104860
107060
107060
103060
102060
100060
FC01FC
ENDCHAR
STARTCHAR 041D
ENCODING 1053
SWIDTH 1000 0
DWIDTH 24 0
BBX 16 17 4 1
BITMAP
FC3F
300C
300C
300C
300C
300C
300C
300C
3FFC
300C
300C
300C
300C
300C
300C
300C
FC3F
ENDCHAR
STARTCHAR 041E
ENCODING 1054
SWIDTH 1000 0
DWIDTH 24 0
BBX 16 17 4 1
BITMAP
07E0
1C38
300C
6006
6006
C003
C003
C003
C003
C003
C003
C003
6006
6006
300C
1C18
07E0
ENDCHAR
STARTCHAR 041F
ENCODING 1055
SWIDTH 1000 0
DWIDTH 24 0
BBX 16 17 4 1
BITMAP
FFFF
300C
300C
300C
300C
300C
300C
300C
300C
300C
300C
300C
300C
300C
300C
300C
FC3F
ENDCHAR
STARTCHAR 0420
ENCODING 1056
SWIDTH 1000 0
DWIDTH 24 0
BBX 14 17 5 1
BITMAP
FFE0
3038
301C
300C
300C
300C
301C
3038
3FE0
3000
3000
3000
3000
3000
3000
3000
FC00
ENDCHAR
STARTCHAR 0421
ENCODING 1057
SWIDTH 1000 0
DWIDTH 24 0
BBX 16 17 4 1
BITMAP
03F0
0C0E
3006
2002
6002
4000
C000
C000
C000
C000
C000
C001
6001
7003
3807
1C0E
03F8
ENDCHAR
STARTCHAR 0422
ENCODING 1058
SWIDTH 1000 0
DWIDTH 24 0
BBX 16 17 4 1
BITMAP
FFFF
C183
8181
8181
8181
0180
0180
0180
0180
0180
0180
0180
0180
0180
0180
0180
07E0
ENDCHAR
STARTCHAR 0423
ENCODING 1059
SWIDTH 1000 0
DWIDTH 24 0
BBX 16 17 4 1
BITMAP
FE3F
3804
1808
0C08
0C10
0610
0610
0320
0320
01C0
00C0
0080
0080
6100
6300
4600
3C00
ENDCHAR
STARTCHAR 0424
ENCODING 1060
SWIDTH 1000 0
DWIDTH 24 0
BBX 16 17 4 1
BITMAP
07E0
0180
0180
1FF0
318C
6186
C183
C183
C183
C183
C183
6186
318C
1DB8
03C0
0180
07E0
ENDCHAR
STARTCHAR 0425
ENCODING 1061
SWIDTH 1000 0
DWIDTH 24 0
BBX 18 17 3 1
BITMAP
FE1F80
180600
0C0400
040800
061000
032000
01A000
00C000
00C000
016000
023000
021800
041800
080C00
100600
300700
FC1FC0
ENDCHAR
STARTCHAR 0426
ENCODING 1062
SWIDTH 1000 0
DWIDTH 24 0
BBX 17 20 3 -2
BITMAP
FC1F80
300600
300600
300600
300600
300600
300600
300600
300600
300600
300600
300600
300600
300600
300600
300600
FFFF80
000080
000080
000080
ENDCHAR
STARTCHAR 0427
ENCODING 1063
SWIDTH 1000 0
DWIDTH 24 0
BBX 16 17 4 1
BITMAP
FC3F
300C
300C
300C
300C
300C
300C
300C
300C
183C
0FCC
000C
000C
000C
000C
000C
003F
ENDCHAR
STARTCHAR 0428
ENCODING 1064
SWIDTH 1000 0
DWIDTH 24 0
BBX 20 17 2 1
BITMAP
FDFBF0
3060C0
3060C0
3060C0
3060C0
3060C0
3060C0
3060C0
3060C0
3060C0
3060C0
3060C0
3060C0
3060C0
3060C0
3060C0
FFFFF0
ENDCHAR
STARTCHAR 0429
ENCODING 1065
SWIDTH 1000 0
DWIDTH 24 0
BBX 20 20 2 -2
BITMAP
FDFBF0
3060C0
3060C0
3060C0
3060C0
3060C0
3060C0
3060C0
3060C0
3060C0
3060C0
3060C0
3060C0
3060C0
3060C0
3060C0
FFFFF0
000010
000010
000010
ENDCHAR
STARTCHAR 042A
ENCODING 1066
SWIDTH 1000 0
DWIDTH 24 0
BBX 19 17 3 1
BITMAP
FFC000
C30000
830000
830000
830000
030000
030000
030000
03FF00
0301C0
0300E0
030060
030060
030060
0300E0
0301C0
0FFF00
ENDCHAR
STARTCHAR 042B
ENCODING 1067
SWIDTH 1000 0
DWIDTH 24 0
BBX 20 17 2 1
BITMAP
FC03F0
3000C0
3000C0
3000C0
3000C0
3000C0
3000C0
3000C0
3FE0C0
3038C0
3018C0
300CC0
300CC0
300CC0
3018C0
3038C0
FFE3F0
ENDCHAR
STARTCHAR 042C
ENCODING 1068
SWIDTH 1000 0
DWIDTH 24 0
BBX 15 17 5 1
BITMAP
FC00
3000
3000
3000
3000
3000
3000
3000
3FF0
301C
300E
3006
3006
3006
300E
301C
FFF0
ENDCHAR
STARTCHAR 042D
ENCODING 1069
SWIDTH 1000 0
DWIDTH 24 0
BBX 16 17 4 1
BITMAP
0FC0
7038
600C
4006
4006
0003
0003
0F03
11C7
007B
0003
8003
8006
C006
E00C
7030
1FC0
ENDCHAR
STARTCHAR 042E
ENCODING 1070
SWIDTH 1000 0
DWIDTH 24 0
BBX 20 17 2 1
BITMAP
FC1F00
306180
3040C0
30C060
308060
318030
318030
318030
3F8030
318030
318030
318030
31C060
30C060
30E0C0
3071C0
FC1F00
ENDCHAR
STARTCHAR 042F
ENCODING 1071
SWIDTH 1000 0
DWIDTH 24 0
BBX 16 17 3 0
BITMAP
07FF
1C0C
380C
300C
300C
300C
380C
1C0C
07FC
030C
030C
060C
060C
0C0C
180C
300C
C03F
ENDCHAR
STARTCHAR 0430
ENCODING 1072
SWIDTH 1000 0
DWIDTH 24 0
BBX 12 12 7 1
BITMAP
7E00
C300
C180
C180
0780
3980
6180
C180
C180
C190
E3A0
7CC0
ENDCHAR
STARTCHAR 0431
ENCODING 1073
SWIDTH 1000 0
DWIDTH 24 0
BBX 12 17 6 2
BITMAP
0030
00E0
1F80
3000
6000
4F80
F0C0
E060
C020
C030
C030
C030
C030
6070
6060
30C0
1F80
ENDCHAR
STARTCHAR 0432
ENCODING 1074
SWIDTH 1000 0
DWIDTH 24 0
BBX 12 12 5 1
BITMAP
FFC0
30E0
3060
3060
30C0
3FC0
3060
3030
3030
3030
3060
FFC0
ENDCHAR
STARTCHAR 0433
ENCODING 1075
SWIDTH 1000 0
DWIDTH 24 0
BBX 12 12 6 1
BITMAP
FFF0
3030
3010
3010
3010
3000
3000
3000
3000
3000
3000
FC00
ENDCHAR
STARTCHAR 0434
ENCODING 1076
SWIDTH 1000 0
DWIDTH 24 0
BBX 14 15 5 -2
BITMAP
3FFC
0860
0860
0860
0860
1060
1060
1060
2060
2060
4060
FFFC
800C
8004
8004
ENDCHAR
STARTCHAR 0435
ENCODING 1077
SWIDTH 1000 0
DWIDTH 24 0
BBX 11 12 6 1
BITMAP
1F00
30C0
6040
C060
C060
FFE0
C000
C000
C000
6020
30C0
1F80
ENDCHAR
STARTCHAR 0436
ENCODING 1078
SWIDTH 1000 0
DWIDTH 24 0
BBX 20 12 2 1
BITMAP
71F8E0
686160
086200
046200
026400
07FE00
046200
0C6300
086100
186180
3060C0
FDFBF0
ENDCHAR
STARTCHAR 0437
ENCODING 1079
SWIDTH 1000 0
DWIDTH 24 0
BBX 10 12 7 1
BITMAP
3E00
6380
4180
0180
0300
1E00
0180
00C0
80C0
C0C0
E180
3F00
ENDCHAR
STARTCHAR 0438
ENCODING 1080
SWIDTH 1000 0
DWIDTH 24 0
BBX 14 12 5 1
BITMAP
FCFC
3030
3070
3070
30B0
3130
3230
3430
3830
3030
3030
FCFC
ENDCHAR
STARTCHAR 0439
ENCODING 1081
SWIDTH 1000 0
DWIDTH 24 0
BBX 14 16 5 1
BITMAP
0CC0
0CC0
0780
0000
FCFC
3030
3070
3070
30B0
3130
3230
3430
3830
3030
3030
FCFC
ENDCHAR
STARTCHAR 043A
ENCODING 1082
SWIDTH 1000 0
DWIDTH 24 0
BBX 14 12 6 1
BITMAP
FC38
3058
3040
3080
3100
3F80
3080
30C0
3060
3060
3030
FC7C
ENDCHAR
STARTCHAR 043B
ENCODING 1083
SWIDTH 1000 0
DWIDTH 24 0
BBX 15 12 3 1
BITMAP
0FFE
0218
0218
0218
0218
0418
0418
0418
0418
C418
C818
787E
ENDCHAR
STARTCHAR 043C
ENCODING 1084
SWIDTH 1000 0
DWIDTH 24 0
BBX 16 12 4 1
BITMAP
F01F
381C
282C
282C
2C2C
244C
264C
228C
228C
238C
210C
F93F
ENDCHAR
STARTCHAR 043D
ENCODING 1085
SWIDTH 1000 0
DWIDTH 24 0
BBX 14 12 5 1
BITMAP
FCFC
3030
3030
3030
3030
3FF0
3030
3030
3030
3030
3030
FCFC
ENDCHAR
STARTCHAR 043E
ENCODING 1086
SWIDTH 1000 0
DWIDTH 24 0
BBX 12 12 6 1
BITMAP
1F00
30C0
6060
C020
C030
C030
C030
C030
E070
6060
30C0
1F80
ENDCHAR
STARTCHAR 043F
ENCODING 1087
SWIDTH 1000 0
DWIDTH 24 0
BBX 14 12 5 1
BITMAP
FFFC
3030
3030
3030
3030
3030
3030
3030
3030
3030
3030
FCFC
ENDCHAR
STARTCHAR 0440
ENCODING 1088
SWIDTH 1000 0
DWIDTH 24 0
BBX 13 16 5 -2
BITMAP
1000
F7C0
3860
3030
3018
3018
3018
3018
3018
3030
3870
37C0
3000
3000
3000
FC00
ENDCHAR
STARTCHAR 0441
ENCODING 1089
SWIDTH 1000 0
DWIDTH 24 0
BBX 11 12 6 1
BITMAP
0F80
3040
60E0
60E0
C000
C000
C000
C000
E020
6040
38C0
1F00
ENDCHAR
STARTCHAR 0442
ENCODING 1090
SWIDTH 1000 0
DWIDTH 24 0
BBX 12 12 6 1
BITMAP
FFF0
C630
8610
8610
0600
0600
0600
0600
0600
0600
0600
1F80
ENDCHAR
STARTCHAR 0443
ENCODING 1091
SWIDTH 1000 0
DWIDTH 24 0
BBX 14 15 5 -2
BITMAP
FC7C
3010
1010
1820
0C20
0C40
0640
0680
0380
0100
0100
0200
3200
3600
1C00
ENDCHAR
STARTCHAR 0444
ENCODING 1092
SWIDTH 1000 0
DWIDTH 24 0
BBX 14 20 5 -1
BITMAP
0F00
0300
0300
0300
0300
3FF0
6318
4318
C30C
C30C
C30C
C30C
C30C
6318
6318
3FF0
0300
0300
0300
0FC0
ENDCHAR
STARTCHAR 0445
ENCODING 1093
SWIDTH 1000 0
DWIDTH 24 0
BBX 14 12 5 1
BITMAP
FCF8
1020
1840
0C80
0700
0300
0780
0480
08C0
1060
2030
F8FC
ENDCHAR
STARTCHAR 0446
ENCODING 1094
SWIDTH 1000 0
DWIDTH 24 0
BBX 14 15 5 -2
BITMAP
FDF8
3060
3060
3060
3060
3060
3060
3060
3060
3060
3060
FFFC
000C
0004
0004
ENDCHAR
STARTCHAR 0447
ENCODING 1095
SWIDTH 1000 0
DWIDTH 24 0
BBX 13 12 5 1
BITMAP
FDF8
3060
3060
3060
3060
3060
18E0
0F60
0060
0060
0060
01F8
ENDCHAR
STARTCHAR 0448
ENCODING 1096
SWIDTH 1000 0
DWIDTH 24 0
BBX 18 12 3 1
BITMAP
F9E7C0
30C300
30C300
30C300
30C300
30C300
30C300
30C300
30C300
30C300
30C300
FFFFC0
ENDCHAR
STARTCHAR 0449
ENCODING 1097
SWIDTH 1000 0
DWIDTH 24 0
BBX 18 15 3 -2
BITMAP
F9E7C0
30C300
30C300
30C300
30C300
30C300
30C300
30C300
30C300
30C300
30C300
FFFFC0
000040
000040
000040
ENDCHAR
STARTCHAR 044A
ENCODING 1098
SWIDTH 1000 0
DWIDTH 24 0
BBX 14 12 5 1
BITMAP
FF00
8C00
8C00
0C00
0C00
0FF0
0C18
0C0C
0C0C
0C0C
0C18
3FF0
ENDCHAR
STARTCHAR 044B
ENCODING 1099
SWIDTH 1000 0
DWIDTH 24 0
BBX 16 12 4 1
BITMAP
FC3F
300C
300C
300C
300C
3F8C
31CC
30CC
30CC
30CC
31CC
FFBF
ENDCHAR
STARTCHAR 044C
ENCODING 1100
SWIDTH 1000 0
DWIDTH 24 0
BBX 12 12 6 1
BITMAP
FC00
3000
3000
3000
3000
3FC0
3060
3030
3030
3030
3060
FFC0
ENDCHAR
STARTCHAR 044D
ENCODING 1101
SWIDTH 1000 0
DWIDTH 24 0
BBX 12 12 6 1
BITMAP
1F80
60C0
4060
0030
1C30
2670
41B0
0030
0020
C060
20C0
1F00
ENDCHAR
STARTCHAR 044E
ENCODING 1102
SWIDTH 1000 0
DWIDTH 24 0
BBX 18 12 3 1
BITMAP
FC3E00
30C300
318180
3100C0
3100C0
3F00C0
3100C0
3100C0
3181C0
308180
30C300
FC3E00
ENDCHAR
STARTCHAR 044F
ENCODING 1103
SWIDTH 1000 0
DWIDTH 24 0
BBX 13 12 5 0
BITMAP
1FF8
7060
6060
6060
7060
1FE0
0C60
0860
1860
3060
6060
C1F8
ENDCHAR
STARTCHAR 0451
ENCODING 1105
SWIDTH 1000 0
DWIDTH 24 0
BBX 11 16 6 1
BITMAP
30C0
30C0
0000
0000
1F00
30C0
6040
C060
C060
FFE0
C000
C000
C000
6020
30C0
1F80
ENDCHAR
STARTCHAR 1E3E
ENCODING 7742
SWIDTH 500 0
DWIDTH 12 0
BBX 10 20 1 1
BITMAP
0700
0800
0000
E1C0
6180
6180
7180
5280
5280
5280
5280
5280
5A80
4C80
4C80
4C80
4C80
4C80
4880
E1C0
ENDCHAR
STARTCHAR 1E3F
ENCODING 7743
SWIDTH 500 0
DWIDTH 12 0
BBX 12 15 0 1
BITMAP
07C0
0C00
0000
E9C0
7620
4420
4420
4420
4420
4420
4420
4420
4420
4420
EE70
ENDCHAR
STARTCHAR 1F70
ENCODING 8048
SWIDTH 500 0
DWIDTH 12 0
BBX 9 16 2 0
BITMAP
7000
0800
0400
3E00
6200
E200
C200
C200
C200
C200
C200
C200
C200
6280
6680
3900
ENDCHAR
STARTCHAR 1F71
ENCODING 8049
SWIDTH 500 0
DWIDTH 12 0
BBX 9 16 2 0
BITMAP
0E00
1000
2000
3E00
6200
E200
C200
C200
C200
C200
C200
C200
C200
6280
6680
3900
ENDCHAR
STARTCHAR 1F72
ENCODING 8050
SWIDTH 500 0
DWIDTH 12 0
BBX 8 16 2 0
BITMAP
70
08
04
3E
63
61
60
60
1C
60
C0
C1
C1
C1
63
3C
ENDCHAR
STARTCHAR 1F73
ENCODING 8051
SWIDTH 500 0
DWIDTH 12 0
BBX 8 16 2 0
BITMAP
0E
10
20
3E
63
61
60
60
1C
60
C0
C1
C1
C1
63
3C
ENDCHAR
STARTCHAR 2010
ENCODING 8208
SWIDTH 1000 0
DWIDTH 24 0
BBX 8 1 8 9
BITMAP
FF
ENDCHAR
STARTCHAR 2013
ENCODING 8211
SWIDTH 500 0
DWIDTH 12 0
BBX 4 1 4 9
BITMAP
F0
ENDCHAR
STARTCHAR 2014
ENCODING 8212
SWIDTH 1000 0
DWIDTH 24 0
BBX 22 1 1 9
BITMAP
FFFFFC
ENDCHAR
STARTCHAR 2015
ENCODING 8213
SWIDTH 1000 0
DWIDTH 24 0
BBX 22 1 1 9
BITMAP
FFFFFC
ENDCHAR
STARTCHAR 2016
ENCODING 8214
SWIDTH 1000 0
DWIDTH 24 0
BBX 4 24 10 -3
BITMAP
90
90
90
90
90
90
90
90
90
90
90
90
90
90
90
90
90
90
90
90
90
90
90
90
ENDCHAR
STARTCHAR 2018
ENCODING 8216
SWIDTH 1000 0
DWIDTH 24 0
BBX 3 6 19 15
BITMAP
20
40
C0
C0
E0
E0
ENDCHAR
STARTCHAR 2019
ENCODING 8217
SWIDTH 1000 0
DWIDTH 24 0
BBX 3 7 2 13
BITMAP
C0
E0
E0
20
40
40
80
ENDCHAR
STARTCHAR 201C
ENCODING 8220
SWIDTH 1000 0
DWIDTH 24 0
BBX 8 6 14 15
BITMAP
21
42
C6
C6
E7
E7
ENDCHAR
STARTCHAR 201D
ENCODING 8221
SWIDTH 1000 0
DWIDTH 24 0
BBX 8 7 2 13
BITMAP
C6
E7
E7
23
42
44
88
ENDCHAR
STARTCHAR 2020
ENCODING 8224
SWIDTH 1000 0
DWIDTH 24 0
BBX 9 21 8 -2
BITMAP
1C00
1C00
1C00
EB80
FF80
FF80
0800
1C00
1C00
0800
0800
0800
0800
0800
0800
0800
0800
0800
0800
0800
0800
ENDCHAR
STARTCHAR 2021
ENCODING 8225
SWIDTH 1000 0
DWIDTH 24 0
BBX 10 22 7 -2
BITMAP
0C00
0C00
0C00
E9C0
FFC0
EDC0
0C00
0C00
0800
0800
0800
0800
0800
0C00
0C00
0C00
EDC0
FFC0
EDC0
0C00
0C00
0C00
ENDCHAR
STARTCHAR 2022
ENCODING 8226
SWIDTH 500 0
DWIDTH 12 0
BBX 5 5 4 7
BITMAP
60
F0
F8
F8
70
ENDCHAR
STARTCHAR 2025
ENCODING 8229
SWIDTH 1000 0
DWIDTH 24 0
BBX 15 3 4 8
BITMAP
E00E
E00E
E00E
ENDCHAR
STARTCHAR 2026
ENCODING 8230
SWIDTH 1000 0
DWIDTH 24 0
BBX 19 3 3 8
BITMAP
E0E0E0
E0E0E0
E0E0E0
ENDCHAR
STARTCHAR 2030
ENCODING 8240
SWIDTH 1000 0
DWIDTH 24 0
BBX 22 22 1 -2
BITMAP
000800
381000
6C1000
C62000
C62000
C64000
C64000
C68000
6C8000
390000
010000
020000
027070
06D8D8
058D8C
0D8D8C
098D8C
098D8C
118D8C
10D8D8
207070
200000
ENDCHAR
STARTCHAR 2032
ENCODING 8242
SWIDTH 1000 0
DWIDTH 24 0
BBX 3 6 1 13
BITMAP
20
20
60
40
40
80
ENDCHAR
STARTCHAR 2033
ENCODING 8243
SWIDTH 1000 0
DWIDTH 24 0
BBX 7 6 1 13
BITMAP
26
26
64
44
48
88
ENDCHAR
STARTCHAR 203B
ENCODING 8251
SWIDTH 1000 0
DWIDTH 24 0
BBX 20 20 2 -1
BITMAP
800020
40E030
20E040
10E080
080100
040200
020400
010800
009000
E060E0
E060E0
7090E0
010800
020400
040200
080100
10E080
20E040
40E020
800010
ENDCHAR
STARTCHAR 203C
ENCODING 8252
SWIDTH 500 0
DWIDTH 12 0
BBX 8 20 2 -1
BITMAP
E7
E7
E7
E7
E7
E7
E7
E6
46
42
42
42
42
42
42
00
00
E7
E7
E7
ENDCHAR
STARTCHAR 203E
ENCODING 8254
SWIDTH 1000 0
DWIDTH 24 0
BBX 0 0 0 21
BITMAP
ENDCHAR
STARTCHAR 203F
ENCODING 8255
SWIDTH 500 0
DWIDTH 12 0
BBX 10 2 1 -1
BITMAP
C0C0
3F00
ENDCHAR
STARTCHAR 2042
ENCODING 8258
SWIDTH 500 0
DWIDTH 12 0
BBX 10 14 1 2
BITMAP
0C00
2D00
1E00
1E00
2D00
0C00
0000
0000
2100
AD40
7380
5380
AD40
2100
ENDCHAR
STARTCHAR 2047
ENCODING 8263
SWIDTH 500 0
DWIDTH 12 0
BBX 10 20 1 -1
BITMAP
7180
5AC0
9CC0
9CC0
DAC0
DAC0
18C0
1080
3180
3180
2100
2100
2100
2100
2100
0000
0000
7380
7380
7380
ENDCHAR
STARTCHAR 2048
ENCODING 8264
SWIDTH 500 0
DWIDTH 12 0
BBX 11 20 0 -1
BITMAP
38C0
4CC0
C6C0
C6C0
E6C0
E6C0
04C0
0CC0
08C0
1840
1040
1040
1040
1040
1040
0000
0000
38E0
38E0
38E0
ENDCHAR
STARTCHAR 2049
ENCODING 8265
SWIDTH 500 0
DWIDTH 12 0
BBX 10 20 1 -1
BITMAP
6700
6980
78C0
78C0
7CC0
7CC0
6080
6180
4100
4300
4200
4200
4200
4200
4200
0000
0000
E700
E700
E700
ENDCHAR
STARTCHAR 2051
ENCODING 8273
SWIDTH 1000 0
DWIDTH 24 0
BBX 6 18 9 0
BITMAP
30
B4
68
30
68
B4
30
00
00
00
00
30
B4
68
30
68
B4
30
ENDCHAR
STARTCHAR 20AC
ENCODING 8364
SWIDTH 500 0
DWIDTH 12 0
BBX 10 18 0 0
BITMAP
07C0
08C0
1840
1040
1040
3000
7F00
3000
3000
7F00
B000
3040
1040
1040
1840
1880
0C80
0700
ENDCHAR
STARTCHAR 2103
ENCODING 8451
SWIDTH 1000 0
DWIDTH 24 0
BBX 20 19 1 1
BITMAP
700000
880000
887F20
89C1E0
730060
070020
060020
0C0000
0C0000
0C0000
0C0000
0C0000
0C0000
0C0010
060020
070020
038040
01C180
007E00
ENDCHAR
STARTCHAR 210F
ENCODING 8463
SWIDTH 500 0
DWIDTH 12 0
BBX 10 19 1 0
BITMAP
0800
3800
0900
0E00
1800
7000
1700
3980
3180
2180
2100
2100
6100
4300
4300
4340
C340
C380
0380
ENDCHAR
STARTCHAR 2113
ENCODING 8467
SWIDTH 500 0
DWIDTH 12 0
BBX 10 18 1 0
BITMAP
0300
0680
0C80
0880
1880
1080
1100
3100
3200
2200
2400
2800
3040
2040
E080
3080
1100
0E00
ENDCHAR
STARTCHAR 2116
ENCODING 8470
SWIDTH 1000 0
DWIDTH 24 0
BBX 21 17 2 0
BITMAP
E1C000
608000
708000
508000
508000
588700
488880
4C9080
449040
469040
469040
429040
439040
419040
418880
408898
E08718
ENDCHAR
STARTCHAR 2121
ENCODING 8481
SWIDTH 1000 0
DWIDTH 24 0
BBX 22 17 1 1
BITMAP
FF8000
888000
888000
080000
08FDE0
084440
084440
084040
084840
084840
087840
084840
084840
084044
084444
084444
3EFDFC
ENDCHAR
STARTCHAR 2127
ENCODING 8487
SWIDTH 500 0
DWIDTH 12 0
BBX 10 18 1 0
BITMAP
F3C0
9440
9240
2100
2100
6180
4080
C0C0
C0C0
C0C0
C0C0
C0C0
C0C0
C0C0
6180
6180
3300
1E00
ENDCHAR
STARTCHAR 212B
ENCODING 8491
SWIDTH 1000 0
DWIDTH 24 0
BBX 18 19 3 1
BITMAP
01C000
012000
012000
00C000
00C000
00C000
016000
016000
022000
023000
063000
041800
041800
0FF800
080C00
180C00
100600
300600
FC1FC0
ENDCHAR
STARTCHAR 2135
ENCODING 8501
SWIDTH 500 0
DWIDTH 12 0
BBX 10 18 1 0
BITMAP
4000
4100
4100
4180
60C0
2140
3140
1A00
2A00
2C00
6600
6600
6300
6300
4380
C180
C180
C180
ENDCHAR
STARTCHAR 2153
ENCODING 8531
SWIDTH 500 0
DWIDTH 12 0
BBX 11 22 1 -2
BITMAP
4040
C040
4080
4080
4100
4100
4200
4200
4200
4400
F400
0980
0A40
1240
1040
2180
2040
2020
4020
4620
8660
83C0
ENDCHAR
STARTCHAR 2154
ENCODING 8532
SWIDTH 500 0
DWIDTH 12 0
BBX 11 22 1 -2
BITMAP
6040
9040
9080
9080
1080
2100
2100
4200
5200
9400
F400
0B80
0E40
0E40
1040
1180
2040
2020
4020
4620
8660
83C0
ENDCHAR
STARTCHAR 2155
ENCODING 8533
SWIDTH 500 0
DWIDTH 12 0
BBX 10 22 1 -2
BITMAP
4080
C0C0
4080
4100
4100
4200
4200
4200
4400
4400
E800
0F80
0C00
1400
1400
2780
24C0
40C0
40C0
44C0
85C0
8380
ENDCHAR
STARTCHAR 2160
ENCODING 8544
SWIDTH 1000 0
DWIDTH 24 0
BBX 8 17 8 1
BITMAP
FF
18
18
18
18
18
18
18
18
18
18
18
18
18
18
18
FF
ENDCHAR
STARTCHAR 2161
ENCODING 8545
SWIDTH 1000 0
DWIDTH 24 0
BBX 14 17 5 1
BITMAP
FFFC
3030
3030
3030
3030
3030
3030
3030
3030
3030
3030
3030
3030
3030
3030
3030
FFFC
ENDCHAR
STARTCHAR 2162
ENCODING 8546
SWIDTH 1000 0
DWIDTH 24 0
BBX 18 17 3 1
BITMAP
FFFFC0
30C300
30C300
30C300
30C300
30C300
30C300
30C300
30C300
30C300
30C300
30C300
30C300
30C300
30C300
30C300
FFFFC0
ENDCHAR
STARTCHAR 2163
ENCODING 8547
SWIDTH 1000 0
DWIDTH 24 0
BBX 21 17 3 0
BITMAP
FFF0F8
318020
318040
30C040
30C040
304080
306080
306080
302100
303100
303100
301200
301A00
301A00
300C00
300C00
FC0C00
ENDCHAR
STARTCHAR 2164
ENCODING 8548
SWIDTH 1000 0
DWIDTH 24 0
BBX 18 17 3 0
BITMAP
FE0FC0
300300
100200
180600
080400
0C0400
0C0C00
060800
060800
021000
031000
011000
01A000
01A000
00C000
00C000
004000
ENDCHAR
STARTCHAR 2165
ENCODING 8549
SWIDTH 1000 0
DWIDTH 24 0
BBX 21 17 0 0
BITMAP
FC1FF8
300460
300860
180860
180860
081060
0C1060
0C1060
042060
062060
062060
024060
034060
034060
018060
018060
0181F8
ENDCHAR
STARTCHAR 2166
ENCODING 8550
SWIDTH 1000 0
DWIDTH 24 0
BBX 22 17 1 0
BITMAP
F87FFC
601330
202330
302330
302330
102330
104330
184330
084330
088330
0C8330
048330
050330
070330
070330
020330
020FFC
ENDCHAR
STARTCHAR 2167
ENCODING 8551
SWIDTH 1000 0
DWIDTH 24 0
BBX 23 17 0 0
BITMAP
FCFFFE
2026CC
2026CC
3046CC
1046CC
1046CC
1046CC
1886CC
0886CC
0886CC
0C86CC
0506CC
0506CC
0706CC
0606CC
0206CC
020FFE
ENDCHAR
STARTCHAR 2168
ENCODING 8552
SWIDTH 1000 0
DWIDTH 24 0
BBX 20 17 2 1
BITMAP
FFF9F0
30E0C0
306080
303100
303100
301A00
301A00
300C00
300C00
300E00
301300
302300
302180
304180
3080C0
3080E0
FFF1F0
ENDCHAR
STARTCHAR 2169
ENCODING 8553
SWIDTH 1000 0
DWIDTH 24 0
BBX 18 17 3 1
BITMAP
FE1F80
180600
0C0400
040800
061000
032000
01A000
00C000
00C000
016000
023000
021800
041800
080C00
100600
300700
FC1FC0
ENDCHAR
STARTCHAR 216A
ENCODING 8554
SWIDTH 1000 0
DWIDTH 24 0
BBX 20 17 2 1
BITMAP
FCFFF0
3020C0
1020C0
1840C0
0C80C0
0C80C0
0700C0
0300C0
0300C0
0500C0
0580C0
08C0C0
08C0C0
1060C0
2020C0
2030C0
F8FFF0
ENDCHAR
STARTCHAR 216B
ENCODING 8555
SWIDTH 1000 0
DWIDTH 24 0
BBX 22 17 1 1
BITMAP
FCFFFC
302330
104330
184330
0C8330
0C8330
070330
020330
030330
050330
058330
08C330
08C330
106330
206330
203330
F8FFFC
ENDCHAR
STARTCHAR 2170
ENCODING 8560
SWIDTH 1000 0
DWIDTH 24 0
BBX 6 17 9 2
BITMAP
70
70
70
00
00
30
F0
30
30
30
30
30
30
30
30
30
FC
ENDCHAR
STARTCHAR 2171
ENCODING 8561
SWIDTH 1000 0
DWIDTH 24 0
BBX 13 17 6 2
BITMAP
7070
7070
7070
0000
0000
3060
F1E0
3060
3060
3060
3060
3060
3060
3060
3060
3060
FDF8
ENDCHAR
STARTCHAR 2172
ENCODING 8562
SWIDTH 1000 0
DWIDTH 24 0
BBX 18 17 3 2
BITMAP
71C700
71C700
71C700
000000
000000
71C700
B2CB00
30C300
30C300
30C300
30C300
30C300
30C300
30C300
30C300
30C300
FFFFC0
ENDCHAR
STARTCHAR 2173
ENCODING 8563
SWIDTH 1000 0
DWIDTH 24 0
BBX 18 17 4 1
BITMAP
700000
700000
700000
000000
100000
F3E3C0
318080
308100
30C100
304100
306200
306200
302400
303400
301400
301800
FC1800
ENDCHAR
STARTCHAR 2174
ENCODING 8564
SWIDTH 1000 0
DWIDTH 24 0
BBX 14 12 5 0
BITMAP
F87C
3010
1020
1820
1820
0C40
0C40
0480
0680
0300
0300
0300
ENDCHAR
STARTCHAR 2175
ENCODING 8565
SWIDTH 1000 0
DWIDTH 24 0
BBX 19 17 2 1
BITMAP
000380
000380
000380
000000
000080
F8FF80
302180
302180
184180
184180
188180
0C8180
0C8180
050180
070180
060180
0207E0
ENDCHAR
STARTCHAR 2176
ENCODING 8566
SWIDTH 1000 0
DWIDTH 24 0
BBX 23 17 0 1
BITMAP
000738
000738
000738
000000
000108
FCFF78
303318
102318
186318
084318
084318
0C8318
048318
068318
070318
030318
030FFE
ENDCHAR
STARTCHAR 2177
ENCODING 8567
SWIDTH 1000 0
DWIDTH 24 0
BBX 23 17 0 0
BITMAP
001998
001998
000000
000000
000448
F8FFF8
206CD8
204CD8
30CCD8
108CD8
108CD8
098CD8
090CD8
0D0CD8
060CD8
060CD8
063FFE
ENDCHAR
STARTCHAR 2178
ENCODING 8568
SWIDTH 1000 0
DWIDTH 24 0
BBX 19 17 4 2
BITMAP
700000
700000
700000
000000
100000
F1F7C0
304100
306200
302400
301400
301800
301C00
302400
306200
304300
308100
FFE7E0
ENDCHAR
STARTCHAR 2179
ENCODING 8569
SWIDTH 1000 0
DWIDTH 24 0
BBX 14 12 5 1
BITMAP
FCF8
1020
1840
0C80
0700
0300
0780
0480
08C0
1060
2030
F8FC
ENDCHAR
STARTCHAR 217A
ENCODING 8570
SWIDTH 1000 0
DWIDTH 24 0
BBX 19 17 2 2
BITMAP
000380
000380
000380
000000
000080
7DF780
184180
0C8180
0D0180
070180
020180
070180
098180
088180
10C180
206180
F9FFE0
ENDCHAR
STARTCHAR 217B
ENCODING 8571
SWIDTH 1000 0
DWIDTH 24 0
BBX 22 17 1 2
BITMAP
000E70
000E70
000E70
000000
000210
F9FEF0
30C630
108630
090630
0E0630
060630
060630
0B0630
118630
31C630
60E630
F1FFFC
ENDCHAR
STARTCHAR 2190
ENCODING 8592
SWIDTH 1000 0
DWIDTH 24 0
BBX 21 8 1 5
BITMAP
0E0000
180000
600000
FFFFF8
600000
300000
180000
0C0000
ENDCHAR
STARTCHAR 2191
ENCODING 8593
SWIDTH 1000 0
DWIDTH 24 0
BBX 8 21 8 0
BITMAP
10
38
3C
56
D3
91
11
10
10
10
10
10
10
10
10
10
10
10
10
10
10
ENDCHAR
STARTCHAR 2192
ENCODING 8594
SWIDTH 1000 0
DWIDTH 24 0
BBX 21 8 2 5
BITMAP
000380
0000C0
000030
FFFFF8
000030
000060
0000C0
000180
ENDCHAR
STARTCHAR 2193
ENCODING 8595
SWIDTH 1000 0
DWIDTH 24 0
BBX 8 21 8 -2
BITMAP
10
10
10
10
10
10
10
10
10
10
10
10
10
10
11
91
D3
56
3C
38
10
ENDCHAR
STARTCHAR 2194
ENCODING 8596
SWIDTH 500 0
DWIDTH 12 0
BBX 10 9 1 5
BITMAP
3300
6100
4080
C0C0
FFC0
C0C0
4080
2100
3300
ENDCHAR
STARTCHAR 2196
ENCODING 8598
SWIDTH 500 0
DWIDTH 12 0
BBX 10 18 1 1
BITMAP
3000
3C00
3600
7900
4880
4800
C400
8400
0400
0200
0200
0300
0100
0100
0180
0080
0080
00C0
ENDCHAR
STARTCHAR 2197
ENCODING 8599
SWIDTH 500 0
DWIDTH 12 0
BBX 10 18 1 1
BITMAP
0300
0F00
1B00
2780
4480
0480
0CC0
0880
0800
1000
1000
3000
2000
2000
6000
4000
4000
C000
ENDCHAR
STARTCHAR 2198
ENCODING 8600
SWIDTH 500 0
DWIDTH 12 0
BBX 10 18 1 0
BITMAP
C000
4000
4000
6000
2000
2000
1000
1000
1000
0800
0880
0C80
04C0
4480
3380
1B00
0700
0200
ENDCHAR
STARTCHAR 2199
ENCODING 8601
SWIDTH 500 0
DWIDTH 12 0
BBX 10 18 1 0
BITMAP
00C0
0080
0080
0180
0100
0100
0200
0200
0600
0400
8400
4C00
C800
4880
7B00
3600
3800
2000
ENDCHAR
STARTCHAR 21C4
ENCODING 8644
SWIDTH 500 0
DWIDTH 12 0
BBX 8 18 2 0
BITMAP
18
0C
06
02
FF
02
04
08
10
18
30
60
40
FF
40
60
30
10
ENDCHAR
STARTCHAR 21D2
ENCODING 8658
SWIDTH 1000 0
DWIDTH 24 0
BBX 21 13 2 3
BITMAP
000200
000300
000180
FFFFC0
000060
000030
000018
000030
000060
FFFFC0
000180
000300
000200
ENDCHAR
STARTCHAR 21D4
ENCODING 8660
SWIDTH 1000 0
DWIDTH 24 0
BBX 22 13 1 3
BITMAP
020100
070380
0C00C0
1FFFE0
300030
600018
C0000C
600018
300030
1FFFE0
0C00C0
060180
030300
ENDCHAR
STARTCHAR 21E6
ENCODING 8678
SWIDTH 500 0
DWIDTH 12 0
BBX 9 8 1 5
BITMAP
1000
3000
5000
8F80
4F80
3000
1000
1000
ENDCHAR
STARTCHAR 21E7
ENCODING 8679
SWIDTH 500 0
DWIDTH 12 0
BBX 8 19 2 1
BITMAP
10
18
28
44
42
82
E7
28
28
28
28
28
28
28
28
28
28
28
28
ENDCHAR
STARTCHAR 21E8
ENCODING 8680
SWIDTH 500 0
DWIDTH 12 0
BBX 9 8 2 5
BITMAP
0400
0600
0900
F080
F900
0A00
0400
0800
ENDCHAR
STARTCHAR 21E9
ENCODING 8681
SWIDTH 500 0
DWIDTH 12 0
BBX 8 19 2 -1
BITMAP
38
28
28
28
28
28
28
28
28
28
28
28
E7
82
42
24
28
18
10
ENDCHAR
STARTCHAR 2200
ENCODING 8704
SWIDTH 1000 0
DWIDTH 24 0
BBX 22 20 1 -1
BITMAP
C0000C
400008
200010
200010
100020
180060
080040
0FFFC0
040080
060180
020100
010200
010200
008400
008400
004800
004800
003000
003000
002000
ENDCHAR
STARTCHAR 2202
ENCODING 8706
SWIDTH 1000 0
DWIDTH 24 0
BBX 11 18 7 0
BITMAP
0F00
11C0
20C0
0060
0060
0060
0060
1E60
3160
60E0
C060
C040
C040
C0C0
C080
C180
6300
3C00
ENDCHAR
STARTCHAR 2203
ENCODING 8707
SWIDTH 1000 0
DWIDTH 24 0
BBX 17 18 3 0
BITMAP
FFFF80
000080
000080
000080
000080
000080
000080
000080
FFFF80
000080
000080
000080
000080
000080
000080
000080
000080
FFFF80
ENDCHAR
STARTCHAR 2205
ENCODING 8709
SWIDTH 500 0
DWIDTH 12 0
BBX 10 13 1 2
BITMAP
0100
0180
1F00
7300
4280
8440
8440
8840
9840
5080
3180
3E00
4000
ENDCHAR
STARTCHAR 2207
ENCODING 8711
SWIDTH 1000 0
DWIDTH 24 0
BBX 18 17 3 -1
BITMAP
FFFFC0
400080
600080
200100
300100
100200
180200
080400
0C0400
040800
060800
021000
031000
01A000
01A000
00C000
008000
ENDCHAR
STARTCHAR 2208
ENCODING 8712
SWIDTH 1000 0
DWIDTH 24 0
BBX 18 17 3 1
BITMAP
03FFC0
0C0000
300000
600000
400000
C00000
800000
800000
FFFFC0
800000
800000
800000
400000
600000
300000
0C0000
03FFC0
ENDCHAR
STARTCHAR 2209
ENCODING 8713
SWIDTH 500 0
DWIDTH 12 0
BBX 9 17 1 1
BITMAP
0200
0200
0F80
3200
4400
4400
8400
8400
FF80
8800
8800
8800
5800
7000
3000
1F80
1000
ENDCHAR
STARTCHAR 220B
ENCODING 8715
SWIDTH 1000 0
DWIDTH 24 0
BBX 18 17 3 1
BITMAP
FFF000
000C00
000300
000100
000080
000080
000040
000040
FFFFC0
000040
000040
0000C0
000080
000180
000300
000C00
FFF000
ENDCHAR
STARTCHAR 2212
ENCODING 8722
SWIDTH 500 0
DWIDTH 12 0
BBX 10 1 1 9
BITMAP
FFC0
ENDCHAR
STARTCHAR 2213
ENCODING 8723
SWIDTH 500 0
DWIDTH 12 0
BBX 10 16 1 1
BITMAP
FFC0
0000
0000
0000
0800
0800
0800
0800
0800
FFC0
0800
0800
0800
0800
0800
0800
ENDCHAR
STARTCHAR 221A
ENCODING 8730
SWIDTH 1000 0
DWIDTH 24 0
BBX 23 22 1 -1
BITMAP
001FFE
002000
002000
002000
004000
004000
004000
008000
008000
018000
010000
410000
420000
620000
620000
A40000
B40000
140000
180000
180000
080000
100000
ENDCHAR
STARTCHAR 221D
ENCODING 8733
SWIDTH 1000 0
DWIDTH 24 0
BBX 20 10 2 4
BITMAP
3C03C0
630C60
419830
80F000
806000
806000
80F000
419830
630C60
3C03C0
ENDCHAR
STARTCHAR 221E
ENCODING 8734
SWIDTH 1000 0
DWIDTH 24 0
BBX 20 10 2 4
BITMAP
3C07C0
630C60
419820
80F010
806010
806010
80F010
419020
630C60
3C03C0
ENDCHAR
STARTCHAR 221F
ENCODING 8735
SWIDTH 1000 0
DWIDTH 24 0
BBX 19 19 3 0
BITMAP
800000
800000
800000
800000
800000
800000
800000
800000
800000
800000
800000
800000
800000
800000
800000
800000
800000
800000
FFFFE0
ENDCHAR
STARTCHAR 2220
ENCODING 8736
SWIDTH 1000 0
DWIDTH 24 0
BBX 19 19 3 1
BITMAP
000020
000040
000080
000100
000200
000400
000800
001000
002000
004000
008000
010000
020000
040000
080000
100000
200000
400000
FFFFE0
ENDCHAR
STARTCHAR 2225
ENCODING 8741
SWIDTH 1000 0
DWIDTH 24 0
BBX 12 22 6 -2
BITMAP
0110
0120
0120
0220
0240
0240
0440
0480
0480
0880
0900
1900
1100
1200
3200
2200
2400
6400
4400
4800
C800
8800
ENDCHAR
STARTCHAR 2226
ENCODING 8742
SWIDTH 500 0
DWIDTH 12 0
BBX 10 22 1 -2
BITMAP
0240
0640
0440
0480
0480
8880
C980
6900
3900
1100
1A00
1600
2200
2500
2480
44C0
4400
4800
C800
8800
9000
9000
ENDCHAR
STARTCHAR 2227
ENCODING 8743
SWIDTH 1000 0
DWIDTH 24 0
BBX 20 20 2 -1
BITMAP
004000
006000
006000
009000
009000
010800
010800
020400
020400
040200
0C0200
080100
180180
100080
3000C0
200040
600060
400020
800010
800010
ENDCHAR
STARTCHAR 2228
ENCODING 8744
SWIDTH 1000 0
DWIDTH 24 0
BBX 22 20 1 -1
BITMAP
C0000C
400008
200010
300030
100020
180060
080040
0C00C0
040080
020180
020100
010200
010200
008400
008400
004800
004800
003000
003000
002000
ENDCHAR
STARTCHAR 2229
ENCODING 8745
SWIDTH 1000 0
DWIDTH 24 0
BBX 16 18 4 0
BITMAP
07E0
1C18
300C
6006
4002
C002
8001
8001
8001
8001
8001
8001
8001
8001
8001
8001
8001
8001
ENDCHAR
STARTCHAR 222A
ENCODING 8746
SWIDTH 1000 0
DWIDTH 24 0
BBX 16 18 4 0
BITMAP
8001
8001
8001
8001
8001
8001
8001
8001
8001
8001
8001
8001
4002
4002
6006
300C
1838
07E0
ENDCHAR
STARTCHAR 222B
ENCODING 8747
SWIDTH 1000 0
DWIDTH 24 0
BBX 12 22 6 -2
BITMAP
00E0
0110
0330
0300
0200
0200
0600
0600
0600
0600
0600
0600
0600
0600
0600
0400
0400
0400
CC00
CC00
8800
7000
ENDCHAR
STARTCHAR 222C
ENCODING 8748
SWIDTH 1000 0
DWIDTH 24 0
BBX 20 22 2 -2
BITMAP
00E0E0
019130
033330
030200
020200
020200
020600
060600
060600
060600
060600
060600
060600
060600
060400
060400
040400
040400
C4CC00
CCCC00
C89800
707000
ENDCHAR
STARTCHAR 222E
ENCODING 8750
SWIDTH 1000 0
DWIDTH 24 0
BBX 12 22 6 -2
BITMAP
00E0
0110
0330
0200
0200
0200
0200
0600
0F00
1680
1680
1680
1680
0F00
0600
0400
0400
0400
C400
C800
8800
7000
ENDCHAR
STARTCHAR 2234
ENCODING 8756
SWIDTH 1000 0
DWIDTH 24 0
BBX 16 15 4 2
BITMAP
0380
0380
0380
0000
0000
0000
0000
0000
0000
0000
0000
0000
E007
E007
E007
ENDCHAR
STARTCHAR 2235
ENCODING 8757
SWIDTH 1000 0
DWIDTH 24 0
BBX 16 15 4 2
BITMAP
E007
E007
E007
0000
0000
0000
0000
0000
0000
0000
0000
0000
0380
0380
0380
ENDCHAR
STARTCHAR 223D
ENCODING 8765
SWIDTH 1000 0
DWIDTH 24 0
BBX 20 10 2 4
BITMAP
3C0380
620C60
401820
803010
802010
804010
80C010
418020
630460
1C03C0
ENDCHAR
STARTCHAR 2243
ENCODING 8771
SWIDTH 500 0
DWIDTH 12 0
BBX 10 8 1 6
BITMAP
3000
4C40
8780
0000
0000
0000
0000
FFC0
ENDCHAR
STARTCHAR 2245
ENCODING 8773
SWIDTH 500 0
DWIDTH 12 0
BBX 10 10 1 4
BITMAP
7040
8C80
0700
0000
0000
FFC0
0000
0000
0000
FFC0
ENDCHAR
STARTCHAR 2248
ENCODING 8776
SWIDTH 500 0
DWIDTH 12 0
BBX 10 7 1 6
BITMAP
3040
CC80
0700
0000
3000
4C40
8780
ENDCHAR
STARTCHAR 2252
ENCODING 8786
SWIDTH 1000 0
DWIDTH 24 0
BBX 16 15 4 2
BITMAP
1C00
1C00
1C00
0000
0000
FFFF
0000
0000
0000
FFFF
0000
0000
001C
001C
001C
ENDCHAR
STARTCHAR 2260
ENCODING 8800
SWIDTH 1000 0
DWIDTH 24 0
BBX 16 16 4 1
BITMAP
0018
0010
0020
0020
0040
FFFF
0080
0080
0100
0100
FFFF
0200
0400
0400
0800
0800
ENDCHAR
STARTCHAR 2261
ENCODING 8801
SWIDTH 1000 0
DWIDTH 24 0
BBX 16 12 4 3
BITMAP
FFFF
0000
0000
0000
0000
FFFF
0000
0000
0000
0000
0000
FFFF
ENDCHAR
STARTCHAR 2262
ENCODING 8802
SWIDTH 500 0
DWIDTH 12 0
BBX 10 16 1 1
BITMAP
0180
0100
0100
FFC0
0200
0600
0400
FFC0
0800
0800
1800
1000
FFC0
2000
2000
2000
ENDCHAR
STARTCHAR 2266
ENCODING 8806
SWIDTH 1000 0
DWIDTH 24 0
BBX 18 19 3 0
BITMAP
000040
000380
001C00
00E000
070000
380000
E00000
1C0000
038000
007000
000E00
0001C0
000000
000000
FFFFC0
000000
000000
000000
FFFFC0
ENDCHAR
STARTCHAR 2267
ENCODING 8807
SWIDTH 1000 0
DWIDTH 24 0
BBX 18 19 3 0
BITMAP
800000
700000
0E0000
01C000
003800
000700
0003C0
001E00
00F000
078000
1C0000
E00000
000000
000000
FFFFC0
000000
000000
000000
FFFFC0
ENDCHAR
STARTCHAR 226A
ENCODING 8810
SWIDTH 1000 0
DWIDTH 24 0
BBX 20 21 2 -1
BITMAP
000C70
0018C0
002180
00C300
018400
031800
063000
086000
308000
630000
C60000
610000
308000
086000
063000
031800
018400
00C200
002180
0018C0
000C60
ENDCHAR
STARTCHAR 226B
ENCODING 8811
SWIDTH 1000 0
DWIDTH 24 0
BBX 20 21 2 -1
BITMAP
E30000
318000
184000
043000
021800
018C00
00C600
006100
0010C0
000C60
000630
000C60
0010C0
006100
00C600
018C00
021800
043000
184000
318000
630000
ENDCHAR
STARTCHAR 2276
ENCODING 8822
SWIDTH 500 0
DWIDTH 12 0
BBX 10 17 1 0
BITMAP
0040
00C0
0300
1C00
7000
E000
3800
0E00
C180
7040
0C00
0300
00C0
0300
1C00
7000
C000
ENDCHAR
STARTCHAR 2277
ENCODING 8823
SWIDTH 500 0
DWIDTH 12 0
BBX 11 17 0 0
BITMAP
8000
6000
1800
0700
01C0
00E0
0380
0E00
3060
41C0
0600
1800
6000
1800
0700
01C0
0060
ENDCHAR
STARTCHAR 2282
ENCODING 8834
SWIDTH 1000 0
DWIDTH 24 0
BBX 18 17 3 1
BITMAP
03FFC0
0C0000
300000
600000
400000
C00000
800000
800000
800000
800000
800000
C00000
400000
600000
300000
0C0000
03FFC0
ENDCHAR
STARTCHAR 2283
ENCODING 8835
SWIDTH 1000 0
DWIDTH 24 0
BBX 18 17 3 1
BITMAP
FFF000
000C00
000300
000100
000080
000080
000040
000040
000040
000040
000040
0000C0
000080
000180
000300
000C00
FFF000
ENDCHAR
STARTCHAR 2284
ENCODING 8836
SWIDTH 500 0
DWIDTH 12 0
BBX 9 17 1 1
BITMAP
0200
0200
0F80
3200
6600
4400
8400
8400
8C00
8800
8800
8800
4800
7000
3000
1F80
1000
ENDCHAR
STARTCHAR 2285
ENCODING 8837
SWIDTH 500 0
DWIDTH 12 0
BBX 9 16 2 1
BITMAP
0400
FC00
0600
0700
0900
0880
0880
0880
1880
1080
1080
1100
3300
2600
F800
2000
ENDCHAR
STARTCHAR 2286
ENCODING 8838
SWIDTH 1000 0
DWIDTH 24 0
BBX 18 18 3 0
BITMAP
0FFFC0
300000
600000
400000
800000
800000
800000
800000
800000
400000
600000
300000
0FFFC0
000000
000000
000000
000000
FFFFC0
ENDCHAR
STARTCHAR 2287
ENCODING 8839
SWIDTH 1000 0
DWIDTH 24 0
BBX 18 18 3 0
BITMAP
FFFC00
000700
000180
000080
000040
000040
000040
000040
000040
000080
000180
000300
FFFC00
000000
000000
000000
000000
FFFFC0
ENDCHAR
STARTCHAR 228A
ENCODING 8842
SWIDTH 500 0
DWIDTH 12 0
BBX 8 17 2 0
BITMAP
1F
20
40
80
80
80
80
80
80
40
20
1F
00
08
08
FF
10
ENDCHAR
STARTCHAR 228B
ENCODING 8843
SWIDTH 500 0
DWIDTH 12 0
BBX 8 17 2 0
BITMAP
F8
04
02
01
01
01
01
01
03
02
04
F8
00
08
08
FF
10
ENDCHAR
STARTCHAR 2295
ENCODING 8853
SWIDTH 500 0
DWIDTH 12 0
BBX 12 11 0 4
BITMAP
0F00
30C0
4220
C210
8210
BFD0
8210
8220
4220
30C0
0F00
ENDCHAR
STARTCHAR 2296
ENCODING 8854
SWIDTH 500 0
DWIDTH 12 0
BBX 12 11 0 4
BITMAP
0F00
30C0
4020
C010
8010
BFD0
8010
8020
4020
20C0
1F00
ENDCHAR
STARTCHAR 2297
ENCODING 8855
SWIDTH 500 0
DWIDTH 12 0
BBX 10 11 1 4
BITMAP
1E00
2100
6280
B340
9E40
8C40
9E40
B340
A280
6180
1E00
ENDCHAR
STARTCHAR 22A5
ENCODING 8869
SWIDTH 1000 0
DWIDTH 24 0
BBX 20 19 2 0
BITMAP
004000
004000
004000
004000
004000
004000
004000
004000
004000
004000
004000
004000
004000
004000
004000
004000
004000
004000
FFFFF0
ENDCHAR
STARTCHAR 22BF
ENCODING 8895
SWIDTH 1000 0
DWIDTH 24 0
BBX 19 19 2 1
BITMAP
000020
000060
0000E0
0001A0
000320
000620
000C20
001820
003020
006020
00C020
018020
030020
060020
0C0020
180020
300020
600020
FFFFE0
ENDCHAR
STARTCHAR 22DA
ENCODING 8922
SWIDTH 500 0
DWIDTH 12 0
BBX 10 19 1 0
BITMAP
0040
01C0
0E00
3000
E000
1C00
0300
00C0
0000
FFC0
0000
C000
3000
0E00
01C0
0300
1C00
E000
8000
ENDCHAR
STARTCHAR 22DB
ENCODING 8923
SWIDTH 500 0
DWIDTH 12 0
BBX 10 19 1 0
BITMAP
8000
E000
1C00
0300
01C0
0E00
3000
C000
0000
FFC0
0000
00C0
0700
1C00
E000
3000
0E00
01C0
0040
ENDCHAR
STARTCHAR 2305
ENCODING 8965
SWIDTH 500 0
DWIDTH 12 0
BBX 10 10 1 3
BITMAP
FFC0
0800
0C00
0C00
1200
1200
2100
6180
4080
C0C0
ENDCHAR
STARTCHAR 2306
ENCODING 8966
SWIDTH 500 0
DWIDTH 12 0
BBX 10 13 1 2
BITMAP
FFC0
0000
0000
FFC0
0800
0C00
0C00
1200
3200
2100
6180
4080
C0C0
ENDCHAR
STARTCHAR 2312
ENCODING 8978
SWIDTH 1000 0
DWIDTH 24 0
BBX 22 5 1 13
BITMAP
01FE00
0E01C0
300030
C0000C
800004
ENDCHAR
STARTCHAR 2318
ENCODING 8984
SWIDTH 1000 0
DWIDTH 24 0
BBX 22 22 1 -2
BITMAP
380070
440088
820104
820104
820104
420108
3FFFF0
020100
020100
020100
020100
020100
020100
020100
020100
3FFFF0
420108
820104
820104
820104
440088
380070
ENDCHAR
STARTCHAR 23BE
ENCODING 9150
SWIDTH 1000 0
DWIDTH 24 0
BBX 12 24 12 -3
BITMAP
FFF0
8000
8000
8000
8000
8000
8000
8000
8000
8000
8000
8000
8000
8000
8000
8000
8000
8000
8000
8000
8000
8000
8000
8000
ENDCHAR
STARTCHAR 23BF
ENCODING 9151
SWIDTH 1000 0
DWIDTH 24 0
BBX 12 24 12 -3
BITMAP
8000
8000
8000
8000
8000
8000
8000
8000
8000
8000
8000
8000
8000
8000
8000
8000
8000
8000
8000
8000
8000
8000
8000
FFF0
ENDCHAR
STARTCHAR 23C0
ENCODING 9152
SWIDTH 1000 0
DWIDTH 24 0
BBX 19 24 3 -3
BITMAP
004000
004000
004000
03F800
0C4600
104100
204080
404040
404040
804020
804020
804020
804020
804020
804020
404040
6040C0
204080
104300
0C4600
03F800
004000
004000
004000
ENDCHAR
STARTCHAR 23C1
ENCODING 9153
SWIDTH 1000 0
DWIDTH 24 0
BBX 24 24 0 -3
BITMAP
FFFFFF
000800
000800
007F00
018980
020840
040820
080810
080810
100808
100808
100808
100808
100808
100808
080810
080810
040820
020860
018880
007F00
000800
000800
000800
ENDCHAR
STARTCHAR 23C2
ENCODING 9154
SWIDTH 1000 0
DWIDTH 24 0
BBX 24 24 0 -3
BITMAP
000800
000800
000800
007F00
018880
020860
040820
080810
080810
100808
100808
100808
100808
100808
100808
080810
080810
040820
020840
018880
007F00
000800
000800
FFFFFF
ENDCHAR
STARTCHAR 23C3
ENCODING 9155
SWIDTH 1000 0
DWIDTH 24 0
BBX 21 24 2 -3
BITMAP
002000
002000
002000
002000
007000
007000
00A800
00A800
012400
032600
022200
042100
042100
082080
1820C0
102040
202020
202020
402010
FFFFF8
002000
002000
002000
002000
ENDCHAR
STARTCHAR 23C4
ENCODING 9156
SWIDTH 1000 0
DWIDTH 24 0
BBX 24 24 0 -3
BITMAP
FFFFFF
000800
000800
000800
001C00
001C00
002A00
006A00
004900
008900
008880
010840
030840
020820
040820
0C0810
080810
100808
10080C
3FFFFC
000800
000800
000800
000800
ENDCHAR
STARTCHAR 23C5
ENCODING 9157
SWIDTH 1000 0
DWIDTH 24 0
BBX 24 24 0 -3
BITMAP
000800
000800
000800
000800
001C00
001C00
002A00
006A00
004900
008900
008880
010840
030840
020820
040820
0C0810
080810
100808
10080C
3FFFFC
000800
000800
000800
FFFFFF
ENDCHAR
STARTCHAR 23C6
ENCODING 9158
SWIDTH 1000 0
DWIDTH 24 0
BBX 21 24 2 -3
BITMAP
002000
002000
002000
002000
002000
002000
002000
002000
002000
3E2000
41A000
806000
003008
002C10
0023E0
002000
002000
002000
002000
002000
002000
002000
002000
002000
ENDCHAR
STARTCHAR 23C7
ENCODING 9159
SWIDTH 1000 0
DWIDTH 24 0
BBX 24 24 0 -3
BITMAP
FFFFFF
000800
000800
000800
000800
000800
000800
000800
000800
0F8800
306800
401800
000C04
000B0E
0008F0
000800
000800
000800
000800
000800
000800
000800
000800
000800
ENDCHAR
STARTCHAR 23C8
ENCODING 9160
SWIDTH 1000 0
DWIDTH 24 0
BBX 24 24 0 -3
BITMAP
000800
000800
000800
000800
000800
000800
000800
000800
000800
0F8800
306800
401800
000C04
000B0E
0008F0
000800
000800
000800
000800
000800
000800
000800
000800
FFFFFF
ENDCHAR
STARTCHAR 23C9
ENCODING 9161
SWIDTH 1000 0
DWIDTH 24 0
BBX 24 24 0 -3
BITMAP
FFFFFF
000800
000800
000800
000800
000800
000800
000800
000800
000800
000800
000800
000800
000800
000800
000800
000800
000800
000800
000800
000800
000800
000800
000800
ENDCHAR
STARTCHAR 23CA
ENCODING 9162
SWIDTH 1000 0
DWIDTH 24 0
BBX 24 24 0 -3
BITMAP
000800
000800
000800
000800
000800
000800
000800
000800
000800
000800
000800
000800
000800
000800
000800
000800
000800
000800
000800
000800
000800
000800
000800
FFFFFF
ENDCHAR
STARTCHAR 23CB
ENCODING 9163
SWIDTH 1000 0
DWIDTH 24 0
BBX 12 24 0 -3
BITMAP
FFF0
0010
0010
0010
0010
0010
0010
0010
0010
0010
0010
0010
0010
0010
0010
0010
0010
0010
0010
0010
0010
0010
0010
0010
ENDCHAR
STARTCHAR 23CC
ENCODING 9164
SWIDTH 1000 0
DWIDTH 24 0
BBX 12 24 0 -3
BITMAP
0010
0010
0010
0010
0010
0010
0010
0010
0010
0010
0010
0010
0010
0010
0010
0010
0010
0010
0010
0010
0010
0010
0010
FFF0
ENDCHAR
STARTCHAR 23CE
ENCODING 9166
SWIDTH 1000 0
DWIDTH 24 0
BBX 21 21 1 -2
BITMAP
0007F8
000408
000408
000408
000408
000408
010408
030408
070408
0D0408
11FC08
200008
400008
800008
400010
200030
19FFC0
0D0000
070000
010000
010000
ENDCHAR
STARTCHAR 2423
ENCODING 9251
SWIDTH 1000 0
DWIDTH 24 0
BBX 18 5 3 0
BITMAP
800040
800040
800040
800040
FFFFC0
ENDCHAR
STARTCHAR 2460
ENCODING 9312
SWIDTH 1000 0
DWIDTH 24 0
BBX 21 22 1 -2
BITMAP
01F800
060700
080180
102040
20E020
402020
402010
802010
802008
802008
802008
802008
802008
802008
802010
402010
402030
20F820
100040
080180
060700
01FC00
ENDCHAR
STARTCHAR 2461
ENCODING 9313
SWIDTH 1000 0
DWIDTH 24 0
BBX 22 22 1 -2
BITMAP
00FC00
030300
0C00C0
100060
207C30
218610
430108
438108
838104
800304
800204
800404
801804
802004
804108
408108
410110
23FF10
100020
0C00C0
030300
00FC00
ENDCHAR
STARTCHAR 2462
ENCODING 9314
SWIDTH 1000 0
DWIDTH 24 0
BBX 22 22 1 -2
BITMAP
00FC00
070300
0800C0
107860
218430
430210
438208
C38208
800204
800C04
807004
800E04
800104
800104
430108
430308
410610
20FC30
100060
0C00C0
030300
00FC00
ENDCHAR
STARTCHAR 2463
ENCODING 9315
SWIDTH 1000 0
DWIDTH 24 0
BBX 22 22 1 -2
BITMAP
00FC00
070380
0800C0
100820
201810
403818
402808
C04808
808804
808804
810804
820804
860804
87FF04
400808
400808
200810
303E30
180060
0C00C0
030300
00FC00
ENDCHAR
STARTCHAR 2464
ENCODING 9316
SWIDTH 1000 0
DWIDTH 24 0
BBX 22 22 1 -2
BITMAP
00FC00
030300
040080
180060
21FE10
210010
410008
410008
810004
817C04
818604
810304
800104
800104
438108
438208
618618
20F810
100020
0C00C0
030380
00FC00
ENDCHAR
STARTCHAR 2465
ENCODING 9317
SWIDTH 1000 0
DWIDTH 24 0
BBX 22 22 1 -2
BITMAP
00FC00
030300
0C00C0
107860
20C610
618610
418608
430008
830004
837C04
838604
820304
820104
820104
420108
410208
208610
207810
100020
0C00C0
030300
00FC00
ENDCHAR
STARTCHAR 2466
ENCODING 9318
SWIDTH 1000 0
DWIDTH 24 0
BBX 22 22 1 -2
BITMAP
00FC00
030300
0400C0
180020
21FF10
210210
410208
410408
810404
800804
800804
801804
801004
801004
403008
403008
203010
303030
180060
0C00C0
030300
00FC00
ENDCHAR
STARTCHAR 2467
ENCODING 9319
SWIDTH 1000 0
DWIDTH 24 0
BBX 22 22 1 -2
BITMAP
00FC00
030300
0C00C0
107860
208410
610210
410208
410208
818404
80C804
803004
80CC04
810204
820104
420108
420108
210210
20FC10
100020
0C00C0
030300
00FC00
ENDCHAR
STARTCHAR 2468
ENCODING 9320
SWIDTH 1000 0
DWIDTH 24 0
BBX 22 22 1 -2
BITMAP
00FC00
030300
0C00C0
107860
208410
610210
420208
420108
820104
820104
830304
818704
80FB04
800304
418208
418608
218C10
207810
100020
0C00C0
030300
00FC00
ENDCHAR
STARTCHAR 2469
ENCODING 9321
SWIDTH 1000 0
DWIDTH 24 0
BBX 21 22 1 -2
BITMAP
00FC00
030700
0C0180
100040
260E20
6A1120
421110
422090
822088
822088
822088
822088
822088
822088
822090
421110
421110
2F8E20
100040
080080
070300
01FC00
ENDCHAR
STARTCHAR 246A
ENCODING 9322
SWIDTH 1000 0
DWIDTH 24 0
BBX 22 22 1 -2
BITMAP
00FC00
030300
0C00C0
100060
260330
6A0710
420108
420108
820104
820104
820104
820104
820104
820104
820108
420108
420110
2F87D0
100020
0C0040
030380
00FC00
ENDCHAR
STARTCHAR 246B
ENCODING 9323
SWIDTH 1000 0
DWIDTH 24 0
BBX 22 22 1 -2
BITMAP
00FC00
030300
0400C0
180060
320F30
2E3090
423048
423848
820044
820084
820084
820104
820204
820404
820848
421048
421058
27BFD0
180020
0C0040
030380
00FC00
ENDCHAR
STARTCHAR 246C
ENCODING 9324
SWIDTH 1000 0
DWIDTH 24 0
BBX 22 22 1 -2
BITMAP
01FC00
060300
0800C0
100060
2E1E30
423110
423088
C23088
820084
820104
820E04
820304
820084
820084
423088
423088
423110
2F9E30
100020
0C00C0
030300
00FC00
ENDCHAR
STARTCHAR 246D
ENCODING 9325
SWIDTH 1000 0
DWIDTH 24 0
BBX 22 22 1 -2
BITMAP
00FC00
030300
0C00C0
100060
260130
6A0310
420708
420508
820904
821904
821104
822104
826104
827FC4
420108
420108
420110
2F8790
100020
0C0040
030380
00FC00
ENDCHAR
STARTCHAR 246E
ENCODING 9326
SWIDTH 1000 0
DWIDTH 24 0
BBX 21 22 1 -2
BITMAP
00FC00
030700
0C0180
100040
2E3FA0
622030
422010
422010
822008
822E08
823108
820088
820088
820088
423090
423190
422110
2F9E20
100040
0C0080
070300
01FC00
ENDCHAR
STARTCHAR 246F
ENCODING 9327
SWIDTH 1000 0
DWIDTH 24 0
BBX 21 22 1 -2
BITMAP
00FC00
030700
0C0180
100040
260720
2A09B0
421190
421010
823008
822E08
823108
822088
822088
822088
422090
423090
421110
2F8E20
100040
0C0080
070300
01FC00
ENDCHAR
STARTCHAR 2470
ENCODING 9328
SWIDTH 1000 0
DWIDTH 24 0
BBX 22 22 1 -2
BITMAP
00FC00
030300
0C00C0
100060
2E3FF0
622050
422088
422088
820104
820104
820304
820204
820204
820604
820608
420608
420610
2F8610
100020
0C0040
030380
00FC00
ENDCHAR
STARTCHAR 2471
ENCODING 9329
SWIDTH 1000 0
DWIDTH 24 0
BBX 21 22 1 -2
BITMAP
00FC00
030700
0C0180
100040
260E20
6A31A0
422090
422090
822088
821908
820E08
821608
822108
824088
824090
424090
422110
2F9E20
100040
080080
070300
01FC00
ENDCHAR
STARTCHAR 2472
ENCODING 9330
SWIDTH 1000 0
DWIDTH 24 0
BBX 21 22 1 -2
BITMAP
00FC00
030700
0C0180
100040
260E20
6A1120
422110
422090
822088
822088
822088
821188
820E88
820188
820190
423110
422310
2F9E20
100040
080080
070300
01FC00
ENDCHAR
STARTCHAR 2473
ENCODING 9331
SWIDTH 1000 0
DWIDTH 24 0
BBX 21 22 1 -2
BITMAP
00F800
030600
040180
180040
378720
2CC8A0
4C4890
4C5050
805048
805048
809048
811048
811048
821048
445050
444890
484890
2FC720
100040
0C0080
070300
01FC00
ENDCHAR
STARTCHAR 24D0
ENCODING 9424
SWIDTH 1000 0
DWIDTH 24 0
BBX 22 22 1 -2
BITMAP
00FC00
030300
0C00C0
100020
200010
600010
40F808
418408
818404
800404
803C04
80C404
810404
810404
410D08
40F608
200010
200030
100060
0C00C0
030300
00FC00
ENDCHAR
STARTCHAR 24D1
ENCODING 9425
SWIDTH 1000 0
DWIDTH 24 0
BBX 22 22 1 -2
BITMAP
00FC00
030300
0C00C0
108020
218010
208010
408008
408008
80BC04
80C604
808304
808104
808104
808104
408308
408608
20FC10
300010
180020
0C00C0
030300
00FC00
ENDCHAR
STARTCHAR 24D2
ENCODING 9426
SWIDTH 1000 0
DWIDTH 24 0
BBX 22 22 1 -2
BITMAP
00FC00
030300
0C00C0
100060
200010
600010
407C08
40C608
808604
810004
810004
810004
810004
818204
40C408
407808
200010
200010
100020
0C00C0
030300
00FC00
ENDCHAR
STARTCHAR 24D3
ENCODING 9427
SWIDTH 1000 0
DWIDTH 24 0
BBX 22 22 1 -2
BITMAP
00FC00
030300
0C00C0
100420
201C10
200410
400408
400408
80FC04
818404
830404
820404
820404
820404
420408
410C08
20F610
300030
180060
0C00C0
030300
00FC00
ENDCHAR
STARTCHAR 24D4
ENCODING 9428
SWIDTH 1000 0
DWIDTH 24 0
BBX 22 22 1 -2
BITMAP
00FC00
030300
0C00C0
100060
200030
600010
407808
418408
810604
830204
83FE04
830004
830004
818204
81C608
407808
400010
200010
100020
0C0040
030180
00FE00
ENDCHAR
STARTCHAR 24D5
ENCODING 9429
SWIDTH 1000 0
DWIDTH 24 0
BBX 22 22 1 -2
BITMAP
00FE00
070380
0800C0
101C60
203610
602618
402008
C02008
80FC04
802004
802004
802004
802004
802004
402008
402008
202010
207010
100020
0C0040
030180
00FE00
ENDCHAR
STARTCHAR 24D6
ENCODING 9430
SWIDTH 1000 0
DWIDTH 24 0
BBX 22 22 1 -2
BITMAP
00FC00
030300
0C00C0
100060
200010
60FF10
410508
410408
810404
808C04
80F804
810004
80FC04
810304
420108
430308
20FC10
200010
100020
0C00C0
030300
00FC00
ENDCHAR
STARTCHAR 24D7
ENCODING 9431
SWIDTH 1000 0
DWIDTH 24 0
BBX 20 22 2 -2
BITMAP
01F800
060400
0C0300
100080
210040
630040
410020
410020
817810
818810
810410
810410
810410
810410
810420
810420
410420
438F40
200080
180100
060600
01F800
ENDCHAR
STARTCHAR 24D8
ENCODING 9432
SWIDTH 1000 0
DWIDTH 24 0
BBX 21 22 1 -2
BITMAP
00F800
030600
0C0100
1000C0
206020
206020
400010
400010
802008
806008
802008
802008
802008
802008
802010
402010
402010
207020
100040
080080
060300
01FC00
ENDCHAR
STARTCHAR 24D9
ENCODING 9433
SWIDTH 1000 0
DWIDTH 24 0
BBX 21 22 2 -2
BITMAP
00FC00
070700
080180
103040
203020
600030
400010
403010
801008
801008
801008
801008
801008
801008
401010
401010
419030
219020
10E040
0C0080
070300
01FC00
ENDCHAR
STARTCHAR 24DA
ENCODING 9434
SWIDTH 1000 0
DWIDTH 24 0
BBX 22 22 1 -2
BITMAP
00FC00
030300
0C00C0
108020
218010
608010
408008
408008
809F04
808404
808804
80B004
80D004
808804
408C08
408608
21EF90
300030
180060
0C00C0
030300
00FC00
ENDCHAR
STARTCHAR 24DB
ENCODING 9435
SWIDTH 1000 0
DWIDTH 24 0
BBX 21 22 1 -2
BITMAP
00F800
030600
0C0100
1000C0
202020
20E020
402010
402010
802008
802008
802008
802008
802008
802008
802010
402010
402010
20F820
100040
080080
060300
01FC00
ENDCHAR
STARTCHAR 24DC
ENCODING 9436
SWIDTH 1000 0
DWIDTH 24 0
BBX 21 21 1 -1
BITMAP
01FC00
060380
1800C0
300060
200020
42E710
4F2910
841098
841088
841088
841088
841088
841088
841088
4F79D0
400010
200020
100040
080080
070100
01FE00
ENDCHAR
STARTCHAR 24DD
ENCODING 9437
SWIDTH 1000 0
DWIDTH 24 0
BBX 21 21 2 -1
BITMAP
01F800
0E0700
100180
200040
200020
413830
434810
818418
810408
810408
810408
810408
810408
810408
838E10
400010
400020
200040
180080
060300
01FC00
ENDCHAR
STARTCHAR 24DE
ENCODING 9438
SWIDTH 1000 0
DWIDTH 24 0
BBX 22 22 1 -2
BITMAP
00FC00
030300
0C00C0
100060
200010
600010
407808
418608
810204
820104
820104
820104
820104
810204
408408
407808
200010
200010
100020
0C00C0
030300
00FC00
ENDCHAR
STARTCHAR 24DF
ENCODING 9439
SWIDTH 1000 0
DWIDTH 24 0
BBX 22 22 1 -2
BITMAP
00FC00
030300
040080
080040
100020
208010
41BC08
40C208
808104
808104
808104
808104
80C204
80BC04
408008
408008
608018
21E010
100020
0C0040
030380
00FC00
ENDCHAR
STARTCHAR 24E0
ENCODING 9440
SWIDTH 1000 0
DWIDTH 24 0
BBX 22 22 1 -2
BITMAP
00FC00
030300
040080
080040
100020
200410
40FC08
410408
820404
820404
820404
820404
810404
80FC04
400408
400408
600418
201F10
100020
0C0040
030380
00FC00
ENDCHAR
STARTCHAR 24E1
ENCODING 9441
SWIDTH 1000 0
DWIDTH 24 0
BBX 21 22 1 -2
BITMAP
00F800
030600
040180
180040
300020
200020
404E10
40D610
806608
804008
804008
804008
804008
804008
804010
40E010
400010
200020
100040
080080
060300
01FC00
ENDCHAR
STARTCHAR 24E2
ENCODING 9442
SWIDTH 1000 0
DWIDTH 24 0
BBX 22 22 1 -2
BITMAP
00FC00
070380
0800C0
100060
200030
600018
40FA08
418608
810204
818004
806004
801C04
810304
810104
41C308
417C08
400010
200010
100020
0C0040
030380
00FC00
ENDCHAR
STARTCHAR 24E3
ENCODING 9443
SWIDTH 1000 0
DWIDTH 24 0
BBX 21 22 1 -2
BITMAP
01FC00
060700
080180
100040
204020
404030
40C010
C1F810
804008
804008
804008
804008
804008
804008
804010
404410
403810
200020
100040
080080
070300
01FC00
ENDCHAR
STARTCHAR 24E4
ENCODING 9444
SWIDTH 1000 0
DWIDTH 24 0
BBX 22 22 1 -2
BITMAP
00FC00
030380
0C00C0
100060
200030
600010
430E08
410208
810204
810204
810204
810204
810204
810204
408608
407B08
400010
200010
100020
0C00C0
030300
00FC00
ENDCHAR
STARTCHAR 24E5
ENCODING 9445
SWIDTH 1000 0
DWIDTH 24 0
BBX 22 22 1 -2
BITMAP
00FC00
030300
040080
180060
200030
200010
400008
47C788
810204
818204
808404
80C404
804804
806804
403008
403008
402010
200010
100020
0C0040
030380
00FC00
ENDCHAR
STARTCHAR 24E6
ENCODING 9446
SWIDTH 1000 0
DWIDTH 24 0
BBX 22 22 1 -2
BITMAP
00FC00
030300
0C0080
100060
200030
200010
400008
4F79E8
861084
821084
832904
832904
814904
81C604
41C608
408408
408410
200010
100020
0C0040
030380
00FC00
ENDCHAR
STARTCHAR 24E7
ENCODING 9447
SWIDTH 1000 0
DWIDTH 24 0
BBX 22 21 1 -1
BITMAP
00FC00
070380
0800C0
100020
200010
400018
47CF08
80840C
804804
803004
803004
805804
808C04
810608
47CF88
400008
200010
100020
0C0040
070180
00FE00
ENDCHAR
STARTCHAR 24E8
ENCODING 9448
SWIDTH 1000 0
DWIDTH 24 0
BBX 22 22 1 -2
BITMAP
00FC00
030300
040080
180040
300020
200010
43E788
408208
80C204
804404
806404
802804
801804
801804
801008
401008
41A010
21C010
100020
0C0040
030180
00FE00
ENDCHAR
STARTCHAR 24E9
ENCODING 9449
SWIDTH 1000 0
DWIDTH 24 0
BBX 22 21 1 -1
BITMAP
01FC00
060380
0800C0
100020
200010
400018
41FE08
81840C
810804
811804
803004
806004
804204
808208
418608
407808
200010
100020
080040
070180
00FE00
ENDCHAR
STARTCHAR 24EB
ENCODING 9451
SWIDTH 1000 0
DWIDTH 24 0
BBX 22 22 1 -2
BITMAP
00FC00
03FF00
0FFF80
1FFFE0
39FCF0
39FCF0
7DFEF8
7DFEF8
FDFEFC
FDFEFC
FDFEFC
FDFEFC
FDFEFC
FDFEFC
7DFEF8
7DFEF8
3DFEF0
307830
1FFFE0
0FFFC0
03FF00
00FC00
ENDCHAR
STARTCHAR 24EC
ENCODING 9452
SWIDTH 1000 0
DWIDTH 24 0
BBX 22 22 1 -2
BITMAP
00FC00
03FF00
07FF80
0FFFE0
3DF0F0
31E670
7DE738
7DE738
FDFF3C
FDFF7C
FDFE7C
FDFEFC
FDFDFC
FDF9FC
7DFBB8
7DF7B8
7DEFB8
386030
1FFFE0
0FFFC0
03FF80
00FC00
ENDCHAR
STARTCHAR 24ED
ENCODING 9453
SWIDTH 1000 0
DWIDTH 24 0
BBX 22 22 1 -2
BITMAP
00FE00
07FF80
0FFFC0
1FFFE0
31FEF0
7DEF78
7DE738
7DE738
FDFF3C
FDFE7C
FDF9FC
FDFF7C
FDFFBC
FDFFBC
7DE7B8
7DE7B8
3DEFF0
3077F0
1FFFE0
0FFFC0
03FF00
00FC00
ENDCHAR
STARTCHAR 24EE
ENCODING 9454
SWIDTH 1000 0
DWIDTH 24 0
BBX 21 22 1 -2
BITMAP
00FC00
03FF00
0FFF80
1FFFC0
39FEE0
39FCF0
7DFAF0
7DFAF0
FDF6F8
FDE6F8
FDEEF8
FDDEF8
FD9EF8
FDA038
7DFEF0
7DFEF0
7DFEF0
30F860
1FFFC0
0FFF80
07FF00
01FC00
ENDCHAR
STARTCHAR 24EF
ENCODING 9455
SWIDTH 1000 0
DWIDTH 24 0
BBX 22 22 1 -2
BITMAP
00FC00
03FF00
0FFFC0
1FFFE0
31E070
3DEFF0
7DEFF8
7DEFF8
FDEFFC
FDF0FC
FDEE7C
FDFF3C
FDFF3C
FDFF3C
7DCF38
7DCF38
3DCE70
307EF0
1FFFE0
0FFFC0
03FF00
00FC00
ENDCHAR
STARTCHAR 24F0
ENCODING 9456
SWIDTH 1000 0
DWIDTH 24 0
BBX 22 22 1 -2
BITMAP
00FC00
03FF00
07FF80
1FFFE0
39F8F0
39F770
7DE678
7DEFF8
FDCFFC
FDC8FC
FDD67C
FDCF3C
FDCF3C
FDCF3C
7DCF38
7DEF38
3DE770
3076F0
1FFFE0
0FFFC0
03FF00
00FC00
ENDCHAR
STARTCHAR 24F1
ENCODING 9457
SWIDTH 1000 0
DWIDTH 24 0
BBX 22 22 1 -2
BITMAP
00FC00
03FF00
0FFFC0
1FFFE0
31E030
7DEFB0
7DEF78
7DEF78
FDFEFC
FDFEFC
FDFEFC
FDFDFC
FDFDFC
FDFDFC
7DF9F8
7DF9F8
3DF9F0
3079F0
1FFFE0
0FFFC0
03FF00
00FC00
ENDCHAR
STARTCHAR 24F2
ENCODING 9458
SWIDTH 1000 0
DWIDTH 24 0
BBX 22 22 1 -2
BITMAP
00FC00
03FF00
0FFF80
1FFFE0
39F0F0
39E770
7DEF78
7DEF78
FDEF7C
FDF6FC
FDF9FC
FDF4FC
FDEE7C
FDDF3C
7DDF38
7DDF38
3DFF70
307EF0
1FFFE0
0FFFC0
03FF00
00FC00
ENDCHAR
STARTCHAR 24F3
ENCODING 9459
SWIDTH 1000 0
DWIDTH 24 0
BBX 22 22 1 -2
BITMAP
00FC00
03FF00
0FFF80
1FFFE0
39F0F0
39E670
7DCE78
7DCF38
FDCF3C
FDCF3C
FDCF3C
FDE73C
FDF13C
FDFF3C
7DFF78
7DCF78
3DCEF0
306DF0
1FFFE0
0FFFC0
03FF00
00FC00
ENDCHAR
STARTCHAR 24F4
ENCODING 9460
SWIDTH 1000 0
DWIDTH 24 0
BBX 22 22 1 -2
BITMAP
00FC00
03FF00
07FF80
0FFFC0
187CE0
333B70
77B378
73B7B8
FFB7BC
FFF7BC
FF77BC
FEF7BC
FEF7BC
FDF7BC
7FB7B8
7BB7F8
77BB78
303FF0
1FFFE0
0FFFC0
03FF80
00FC00
ENDCHAR
STARTCHAR 24F5
ENCODING 9461
SWIDTH 1000 0
DWIDTH 24 0
BBX 23 22 0 -2
BITMAP
00FE00
037F80
0D81E0
160070
281838
307814
60180C
60180C
C01806
C01806
C01806
C01806
C01806
A0180A
60180A
501814
301814
287E28
1600D0
098320
067C40
018380
ENDCHAR
STARTCHAR 24F6
ENCODING 9462
SWIDTH 1000 0
DWIDTH 24 0
BBX 23 22 0 -2
BITMAP
00FE00
038180
0CFE60
1B0190
347E68
28C318
51818C
51C18C
A1C186
A00386
A00306
A00606
A00C06
A01006
90208A
50408C
488094
25FFA4
1200C8
098330
047C40
038380
ENDCHAR
STARTCHAR 24F7
ENCODING 9463
SWIDTH 1000 0
DWIDTH 24 0
BBX 22 23 1 -2
BITMAP
00FC00
030300
0CFCC0
130320
2C78D0
588C70
710628
A18618
E18614
40060C
400C0C
40700C
400E0C
40030C
400314
A30318
A30328
510628
48FC50
2401A0
130640
0CF880
030700
ENDCHAR
STARTCHAR 24F8
ENCODING 9464
SWIDTH 1000 0
DWIDTH 24 0
BBX 22 22 1 -2
BITMAP
01FC00
06FF00
1B03C0
2C00E0
580870
701828
A02818
606818
C0480C
40880C
41080C
42080C
42080C
47FF14
A00814
A00828
500828
483E50
2401A0
130640
0CF880
030700
ENDCHAR
STARTCHAR 24F9
ENCODING 9465
SWIDTH 1000 0
DWIDTH 24 0
BBX 22 22 1 -2
BITMAP
01FC00
06FF00
1B03C0
2C00E0
59FE70
710028
A10018
610018
C13C0C
41C60C
41070C
40030C
40030C
400314
A38318
A38628
518E28
48F850
2401A0
130640
0CF880
030700
ENDCHAR
STARTCHAR 24FA
ENCODING 9466
SWIDTH 1000 0
DWIDTH 24 0
BBX 22 22 1 -2
BITMAP
01FC00
06FF00
1B03C0
2C00E0
587C70
70C628
A18618
610018
C3000C
433C0C
43C60C
43030C
43030C
430314
A30314
A18628
50C628
487850
2401A0
130640
0CF880
030700
ENDCHAR
STARTCHAR 24FB
ENCODING 9467
SWIDTH 1000 0
DWIDTH 24 0
BBX 22 23 1 -2
BITMAP
00FC00
030300
0CFCC0
130320
2C00D0
59FF70
710228
A10218
E10414
41040C
40080C
40080C
40180C
40100C
401014
A03018
A03028
503028
483050
2401A0
130640
0CF880
030700
ENDCHAR
STARTCHAR 24FC
ENCODING 9468
SWIDTH 1000 0
DWIDTH 24 0
BBX 22 22 1 -2
BITMAP
01FC00
06FF00
1B03C0
2C00E0
587C70
70C628
A18218
618218
C1860C
40C80C
40700C
418C0C
42060C
420314
A20314
A20328
518628
48FC50
2401A0
130640
0CF880
030700
ENDCHAR
STARTCHAR 24FD
ENCODING 9469
SWIDTH 1000 0
DWIDTH 24 0
BBX 22 22 1 -2
BITMAP
01FC00
06FF00
1B03C0
2C00E0
587870
718E28
A18618
630318
C3030C
43030C
43030C
418F0C
40F30C
400314
A18614
A18628
518C28
487850
2401A0
130640
0CF880
030700
ENDCHAR
STARTCHAR 24FE
ENCODING 9470
SWIDTH 1000 0
DWIDTH 24 0
BBX 22 22 1 -2
BITMAP
00FC00
030300
0DFEC0
1E01A0
390F50
7719B0
611998
6130D8
C130CC
C130CC
C130CC
C130CC
C130CC
C130CC
A130D4
611998
5119A8
2FCF50
1400A0
0B0340
04FC80
030300
ENDCHAR
STARTCHAR 2500
ENCODING 9472
SWIDTH 1000 0
DWIDTH 24 0
BBX 24 1 0 9
BITMAP
FFFFFF
ENDCHAR
STARTCHAR 2501
ENCODING 9473
SWIDTH 1000 0
DWIDTH 24 0
BBX 24 3 0 8
BITMAP
FFFFFF
FFFFFF
FFFFFF
ENDCHAR
STARTCHAR 2502
ENCODING 9474
SWIDTH 1000 0
DWIDTH 24 0
BBX 1 24 12 -3
BITMAP
80
80
80
80
80
80
80
80
80
80
80
80
80
80
80
80
80
80
80
80
80
80
80
80
ENDCHAR
STARTCHAR 2503
ENCODING 9475
SWIDTH 1000 0
DWIDTH 24 0
BBX 3 24 11 -3
BITMAP
E0
E0
E0
E0
E0
E0
E0
E0
E0
E0
E0
E0
E0
E0
E0
E0
E0
E0
E0
E0
E0
E0
E0
E0
ENDCHAR
STARTCHAR 250C
ENCODING 9484
SWIDTH 1000 0
DWIDTH 24 0
BBX 12 13 12 -3
BITMAP
FFF0
8000
8000
8000
8000
8000
8000
8000
8000
8000
8000
8000
8000
ENDCHAR
STARTCHAR 250F
ENCODING 9487
SWIDTH 1000 0
DWIDTH 24 0
BBX 13 14 11 -3
BITMAP
FFF8
FFF8
FFF8
E000
E000
E000
E000
E000
E000
E000
E000
E000
E000
E000
ENDCHAR
STARTCHAR 2510
ENCODING 9488
SWIDTH 1000 0
DWIDTH 24 0
BBX 12 13 0 -3
BITMAP
FFF0
0010
0010
0010
0010
0010
0010
0010
0010
0010
0010
0010
0010
ENDCHAR
STARTCHAR 2513
ENCODING 9491
SWIDTH 1000 0
DWIDTH 24 0
BBX 13 14 0 -3
BITMAP
FFF8
FFF8
FFF8
0038
0038
0038
0038
0038
0038
0038
0038
0038
0038
0038
ENDCHAR
STARTCHAR 2514
ENCODING 9492
SWIDTH 1000 0
DWIDTH 24 0
BBX 12 12 12 9
BITMAP
8000
8000
8000
8000
8000
8000
8000
8000
8000
8000
8000
FFF0
ENDCHAR
STARTCHAR 2517
ENCODING 9495
SWIDTH 1000 0
DWIDTH 24 0
BBX 13 13 11 8
BITMAP
E000
E000
E000
E000
E000
E000
E000
E000
E000
E000
FFF8
FFF8
FFF8
ENDCHAR
STARTCHAR 2518
ENCODING 9496
SWIDTH 1000 0
DWIDTH 24 0
BBX 12 12 0 9
BITMAP
0010
0010
0010
0010
0010
0010
0010
0010
0010
0010
0010
FFF0
ENDCHAR
STARTCHAR 251B
ENCODING 9499
SWIDTH 1000 0
DWIDTH 24 0
BBX 13 13 0 8
BITMAP
0038
0038
0038
0038
0038
0038
0038
0038
0038
0038
FFF8
FFF8
FFF8
ENDCHAR
STARTCHAR 251C
ENCODING 9500
SWIDTH 1000 0
DWIDTH 24 0
BBX 12 24 12 -3
BITMAP
8000
8000
8000
8000
8000
8000
8000
8000
8000
8000
8000
FFF0
8000
8000
8000
8000
8000
8000
8000
8000
8000
8000
8000
8000
ENDCHAR
STARTCHAR 251D
ENCODING 9501
SWIDTH 1000 0
DWIDTH 24 0
BBX 12 24 12 -3
BITMAP
8000
8000
8000
8000
8000
8000
8000
8000
8000
8000
FFF0
FFF0
FFF0
8000
8000
8000
8000
8000
8000
8000
8000
8000
8000
8000
ENDCHAR
STARTCHAR 2520
ENCODING 9504
SWIDTH 1000 0
DWIDTH 24 0
BBX 13 24 11 -3
BITMAP
E000
E000
E000
E000
E000
E000
E000
E000
E000
E000
E000
FFF8
E000
E000
E000
E000
E000
E000
E000
E000
E000
E000
E000
E000
ENDCHAR
STARTCHAR 2523
ENCODING 9507
SWIDTH 1000 0
DWIDTH 24 0
BBX 13 24 11 -3
BITMAP
E000
E000
E000
E000
E000
E000
E000
E000
E000
E000
FFF8
FFF8
FFF8
E000
E000
E000
E000
E000
E000
E000
E000
E000
E000
E000
ENDCHAR
STARTCHAR 2524
ENCODING 9508
SWIDTH 1000 0
DWIDTH 24 0
BBX 12 24 0 -3
BITMAP
0010
0010
0010
0010
0010
0010
0010
0010
0010
0010
0010
FFF0
0010
0010
0010
0010
0010
0010
0010
0010
0010
0010
0010
0010
ENDCHAR
STARTCHAR 2525
ENCODING 9509
SWIDTH 1000 0
DWIDTH 24 0
BBX 12 24 0 -3
BITMAP
0010
0010
0010
0010
0010
0010
0010
0010
0010
0010
FFF0
FFF0
FFF0
0010
0010
0010
0010
0010
0010
0010
0010
0010
0010
0010
ENDCHAR
STARTCHAR 2528
ENCODING 9512
SWIDTH 1000 0
DWIDTH 24 0
BBX 13 24 0 -3
BITMAP
0038
0038
0038
0038
0038
0038
0038
0038
0038
0038
0038
FFF8
0038
0038
0038
0038
0038
0038
0038
0038
0038
0038
0038
0038
ENDCHAR
STARTCHAR 252B
ENCODING 9515
SWIDTH 1000 0
DWIDTH 24 0
BBX 13 24 0 -3
BITMAP
0038
0038
0038
0038
0038
0038
0038
0038
0038
0038
FFF8
FFF8
FFF8
0038
0038
0038
0038
0038
0038
0038
0038
0038
0038
0038
ENDCHAR
STARTCHAR 252C
ENCODING 9516
SWIDTH 1000 0
DWIDTH 24 0
BBX 24 13 0 -3
BITMAP
FFFFFF
000800
000800
000800
000800
000800
000800
000800
000800
000800
000800
000800
000800
ENDCHAR
STARTCHAR 252F
ENCODING 9519
SWIDTH 1000 0
DWIDTH 24 0
BBX 24 14 0 -3
BITMAP
FFFFFF
FFFFFF
FFFFFF
000800
000800
000800
000800
000800
000800
000800
000800
000800
000800
000800
ENDCHAR
STARTCHAR 2530
ENCODING 9520
SWIDTH 1000 0
DWIDTH 24 0
BBX 24 13 0 -3
BITMAP
FFFFFF
001C00
001C00
001C00
001C00
001C00
001C00
001C00
001C00
001C00
001C00
001C00
001C00
ENDCHAR
STARTCHAR 2533
ENCODING 9523
SWIDTH 1000 0
DWIDTH 24 0
BBX 24 14 0 -3
BITMAP
FFFFFF
FFFFFF
FFFFFF
001C00
001C00
001C00
001C00
001C00
001C00
001C00
001C00
001C00
001C00
001C00
ENDCHAR
STARTCHAR 2534
ENCODING 9524
SWIDTH 1000 0
DWIDTH 24 0
BBX 24 12 0 9
BITMAP
000800
000800
000800
000800
000800
000800
000800
000800
000800
000800
000800
FFFFFF
ENDCHAR
STARTCHAR 2537
ENCODING 9527
SWIDTH 1000 0
DWIDTH 24 0
BBX 24 13 0 8
BITMAP
000800
000800
000800
000800
000800
000800
000800
000800
000800
000800
FFFFFF
FFFFFF
FFFFFF
ENDCHAR
STARTCHAR 2538
ENCODING 9528
SWIDTH 1000 0
DWIDTH 24 0
BBX 24 12 0 9
BITMAP
001C00
001C00
001C00
001C00
001C00
001C00
001C00
001C00
001C00
001C00
001C00
FFFFFF
ENDCHAR
STARTCHAR 253B
ENCODING 9531
SWIDTH 1000 0
DWIDTH 24 0
BBX 24 13 0 8
BITMAP
001C00
001C00
001C00
001C00
001C00
001C00
001C00
001C00
001C00
001C00
FFFFFF
FFFFFF
FFFFFF
ENDCHAR
STARTCHAR 253C
ENCODING 9532
SWIDTH 1000 0
DWIDTH 24 0
BBX 24 24 0 -3
BITMAP
000800
000800
000800
000800
000800
000800
000800
000800
000800
000800
000800
FFFFFF
000800
000800
000800
000800
000800
000800
000800
000800
000800
000800
000800
000800
ENDCHAR
STARTCHAR 253F
ENCODING 9535
SWIDTH 1000 0
DWIDTH 24 0
BBX 24 24 0 -3
BITMAP
000800
000800
000800
000800
000800
000800
000800
000800
000800
000800
FFFFFF
FFFFFF
FFFFFF
000800
000800
000800
000800
000800
000800
000800
000800
000800
000800
000800
ENDCHAR
STARTCHAR 2542
ENCODING 9538
SWIDTH 1000 0
DWIDTH 24 0
BBX 24 24 0 -3
BITMAP
001C00
001C00
001C00
001C00
001C00
001C00
001C00
001C00
001C00
001C00
001C00
FFFFFF
001C00
001C00
001C00
001C00
001C00
001C00
001C00
001C00
001C00
001C00
001C00
001C00
ENDCHAR
STARTCHAR 254B
ENCODING 9547
SWIDTH 1000 0
DWIDTH 24 0
BBX 24 24 0 -3
BITMAP
001C00
001C00
001C00
001C00
001C00
001C00
001C00
001C00
001C00
001C00
FFFFFF
FFFFFF
FFFFFF
001C00
001C00
001C00
001C00
001C00
001C00
001C00
001C00
001C00
001C00
001C00
ENDCHAR
STARTCHAR 25A0
ENCODING 9632
SWIDTH 1000 0
DWIDTH 24 0
BBX 18 18 3 0
BITMAP
FFFFC0
FFFFC0
FFFFC0
FFFFC0
FFFFC0
FFFFC0
FFFFC0
FFFFC0
FFFFC0
FFFFC0
FFFFC0
FFFFC0
FFFFC0
FFFFC0
FFFFC0
FFFFC0
FFFFC0
FFFFC0
ENDCHAR
STARTCHAR 25A1
ENCODING 9633
SWIDTH 1000 0
DWIDTH 24 0
BBX 18 18 3 0
BITMAP
FFFFC0
800040
800040
800040
800040
800040
800040
800040
800040
800040
800040
800040
800040
800040
800040
800040
800040
FFFFC0
ENDCHAR
STARTCHAR 25B1
ENCODING 9649
SWIDTH 500 0
DWIDTH 12 0
BBX 10 5 1 7
BITMAP
3FC0
2080
4080
4100
FF00
ENDCHAR
STARTCHAR 25B2
ENCODING 9650
SWIDTH 1000 0
DWIDTH 24 0
BBX 18 19 3 0
BITMAP
008000
00C000
00C000
01E000
01E000
03F000
03F000
07F800
07F800
0FFC00
0FFC00
1FFE00
1FFE00
3FFF00
3FFF00
7FFF80
7FFF80
FFFFC0
FFFFC0
ENDCHAR
STARTCHAR 25B3
ENCODING 9651
SWIDTH 1000 0
DWIDTH 24 0
BBX 18 19 3 0
BITMAP
008000
00C000
00C000
012000
012000
021000
021000
040800
040800
080400
080400
100200
100200
200100
200100
400080
400080
800040
FFFFC0
ENDCHAR
STARTCHAR 25B6
ENCODING 9654
SWIDTH 500 0
DWIDTH 12 0
BBX 10 13 2 2
BITMAP
8000
C000
E000
F800
FC00
FF00
FF80
FFC0
FE00
FC00
F800
E000
C000
ENDCHAR
STARTCHAR 25B7
ENCODING 9655
SWIDTH 500 0
DWIDTH 12 0
BBX 10 13 2 2
BITMAP
8000
C000
A000
9800
8400
8300
8080
81C0
8300
8C00
9800
E000
C000
ENDCHAR
STARTCHAR 25BC
ENCODING 9660
SWIDTH 1000 0
DWIDTH 24 0
BBX 20 19 2 -1
BITMAP
FFFFF0
7FFFE0
3FFFC0
3FFFC0
1FFF80
1FFF80
0FFF00
0FFF00
07FE00
07FE00
03FC00
03FC00
01F800
01F800
00F000
00F000
006000
006000
004000
ENDCHAR
STARTCHAR 25BD
ENCODING 9661
SWIDTH 1000 0
DWIDTH 24 0
BBX 20 19 2 -1
BITMAP
FFFFF0
400020
200040
200040
100080
100080
080100
080100
040200
040200
020400
020400
010800
010800
009000
009000
006000
006000
004000
ENDCHAR
STARTCHAR 25C0
ENCODING 9664
SWIDTH 500 0
DWIDTH 12 0
BBX 10 14 0 2
BITMAP
0040
00C0
01C0
07C0
0FC0
3FC0
7FC0
FFC0
1FC0
0FC0
07C0
01C0
00C0
0040
ENDCHAR
STARTCHAR 25C1
ENCODING 9665
SWIDTH 500 0
DWIDTH 12 0
BBX 10 14 0 2
BITMAP
0040
00C0
0140
0640
0840
3040
4040
E040
1040
0C40
0640
01C0
00C0
0040
ENDCHAR
STARTCHAR 25C6
ENCODING 9670
SWIDTH 1000 0
DWIDTH 24 0
BBX 22 22 1 -2
BITMAP
002000
003000
007800
00FC00
01FE00
03FF00
07FF80
0FFFC0
1FFFE0
3FFFF0
7FFFF8
FFFFFC
3FFFF0
1FFFE0
0FFFC0
07FF80
03FF00
01FE00
00FC00
007800
003000
002000
ENDCHAR
STARTCHAR 25C7
ENCODING 9671
SWIDTH 1000 0
DWIDTH 24 0
BBX 22 22 1 -2
BITMAP
002000
003000
004800
008400
010200
020100
040080
080040
100020
200010
400008
C0000C
200010
100020
080040
040080
020100
010200
008400
004800
003000
002000
ENDCHAR
STARTCHAR 25C9
ENCODING 9673
SWIDTH 500 0
DWIDTH 12 0
BBX 10 11 1 4
BITMAP
1E00
2100
4080
9E40
BF40
BF40
BF40
BF40
5E80
2100
1E00
ENDCHAR
STARTCHAR 25CB
ENCODING 9675
SWIDTH 1000 0
DWIDTH 24 0
BBX 20 20 2 -1
BITMAP
01F800
060600
180180
3000C0
200040
400020
400020
800010
800010
800010
800010
800010
800010
400020
400020
200040
3000C0
180180
060600
01F800
ENDCHAR
STARTCHAR 25CE
ENCODING 9678
SWIDTH 1000 0
DWIDTH 24 0
BBX 20 20 2 -1
BITMAP
01F800
060600
180180
3000C0
20F040
430C20
460220
840210
880110
880110
880110
880110
840210
440620
430C20
20F040
3000C0
180180
060600
01F800
ENDCHAR
STARTCHAR 25CF
ENCODING 9679
SWIDTH 1000 0
DWIDTH 24 0
BBX 20 20 2 -1
BITMAP
01F800
07FE00
1FFF80
3FFFC0
3FFFC0
7FFFE0
7FFFE0
FFFFF0
FFFFF0
FFFFF0
FFFFF0
FFFFF0
FFFFF0
7FFFE0
7FFFE0
3FFFC0
3FFFC0
1FFF80
07FE00
01F800
ENDCHAR
STARTCHAR 25D0
ENCODING 9680
SWIDTH 500 0
DWIDTH 12 0
BBX 10 11 1 4
BITMAP
1E00
3B00
7880
F8C0
F840
F840
F840
F840
78C0
3980
1F00
ENDCHAR
STARTCHAR 25D1
ENCODING 9681
SWIDTH 500 0
DWIDTH 12 0
BBX 10 11 1 4
BITMAP
1E00
3700
4780
C7C0
87C0
87C0
87C0
87C0
4780
2700
1E00
ENDCHAR
STARTCHAR 25D2
ENCODING 9682
SWIDTH 500 0
DWIDTH 12 0
BBX 10 10 1 4
BITMAP
1E00
6180
4080
8040
8040
FFC0
FFC0
7F80
7F80
1E00
ENDCHAR
STARTCHAR 25D3
ENCODING 9683
SWIDTH 500 0
DWIDTH 12 0
BBX 10 10 1 4
BITMAP
1E00
7F00
7F80
FFC0
FFC0
8040
8040
80C0
6180
1F00
ENDCHAR
STARTCHAR 25E6
ENCODING 9702
SWIDTH 500 0
DWIDTH 12 0
BBX 6 6 3 6
BITMAP
78
CC
84
84
CC
78
ENDCHAR
STARTCHAR 25EF
ENCODING 9711
SWIDTH 1000 0
DWIDTH 24 0
BBX 22 22 1 -2
BITMAP
00FC00
030300
0C00C0
100060
200010
600010
400008
400008
800004
800004
800004
800004
800004
800004
400008
400008
200010
200010
100020
0C00C0
030300
00FC00
ENDCHAR
STARTCHAR 2600
ENCODING 9728
SWIDTH 1000 0
DWIDTH 24 0
BBX 22 22 1 -2
BITMAP
001000
001000
001000
101020
080040
047880
03FE00
03FF00
03FF00
07FF80
F7FFBC
07FF80
07FF80
03FF00
03FF00
05FF00
067880
080040
101020
001000
001000
001000
ENDCHAR
STARTCHAR 2601
ENCODING 9729
SWIDTH 1000 0
DWIDTH 24 0
BBX 20 17 2 -1
BITMAP
03E000
07F000
0FF800
0FFC00
0FFCE0
0FFDF0
0FFFF0
1FFFF0
7FFFF0
7FFFE0
FFFFE0
FFFFF0
FFFFF0
FFBFF0
7F1FF0
3C1FE0
0007C0
ENDCHAR
STARTCHAR 2602
ENCODING 9730
SWIDTH 1000 0
DWIDTH 24 0
BBX 23 22 1 -2
BITMAP
001000
001000
01FF00
07FFC0
1FFFF0
3FFFF8
7FFFFC
7FFFFC
C739C6
8610C2
841082
001000
001000
001000
001000
001000
001000
001000
001000
011000
009000
00E000
ENDCHAR
STARTCHAR 2603
ENCODING 9731
SWIDTH 1000 0
DWIDTH 24 0
BBX 22 22 1 -1
BITMAP
80621C
06050C
0A0880
041040
602020
61E058
061898
040780
08CC40
68CC40
A80040
44848C
06798C
C80040
500020
A03010
203010
200010
203010
303030
180060
07FF80
ENDCHAR
STARTCHAR 2605
ENCODING 9733
SWIDTH 1000 0
DWIDTH 24 0
BBX 22 22 1 -1
BITMAP
002000
003000
003000
003000
007800
007800
007800
00F800
FFFFFC
3FFFF0
1FFFE0
0FFFC0
03FF00
03FF00
03FF00
03FF00
07FF80
078780
070380
0E01C0
080040
100040
ENDCHAR
STARTCHAR 2606
ENCODING 9734
SWIDTH 1000 0
DWIDTH 24 0
BBX 22 23 1 -2
BITMAP
002000
003000
003000
003000
004800
004800
004800
008800
FF87FC
200010
100020
0C00C0
020100
030300
020100
022100
047880
04CC80
050280
0A0140
0C00C0
100040
000020
ENDCHAR
STARTCHAR 260E
ENCODING 9742
SWIDTH 1000 0
DWIDTH 24 0
BBX 22 18 1 0
BITMAP
0FFFC0
3FFFF0
7FFFF8
7986F8
F1863C
F1FE3C
03FF00
078780
070380
0E01C0
0E01C0
1E01E0
3E01E0
3E01F0
7F03F0
7F87F8
7FFFF8
7FFFF8
ENDCHAR
STARTCHAR 2616
ENCODING 9750
SWIDTH 1000 0
DWIDTH 24 0
BBX 20 19 2 1
BITMAP
00F000
019800
060600
180180
3000C0
200040
200040
200040
200040
600040
400020
400020
400020
400020
400020
400020
400020
400020
FFFFF0
ENDCHAR
STARTCHAR 2617
ENCODING 9751
SWIDTH 1000 0
DWIDTH 24 0
BBX 20 19 2 1
BITMAP
006000
01F800
07FE00
1FFF80
3FFFC0
3FFFC0
3FFFC0
3FFFC0
3FFFC0
7FFFC0
7FFFE0
7FFFE0
7FFFE0
7FFFE0
7FFFE0
7FFFE0
7FFFE0
7FFFE0
FFFFF0
ENDCHAR
STARTCHAR 261E
ENCODING 9758
SWIDTH 1000 0
DWIDTH 24 0
BBX 20 10 2 4
BITMAP
71E7E0
8E1810
080C10
10FBE0
1F3C80
103380
185900
146700
1B3400
F0FC00
ENDCHAR
STARTCHAR 2640
ENCODING 9792
SWIDTH 1000 0
DWIDTH 24 0
BBX 14 22 5 -2
BITMAP
0780
0840
1020
2010
2010
2010
2010
2010
1020
1840
0780
0200
0200
0200
FFFC
0200
0200
0200
0200
0200
0200
0200
ENDCHAR
STARTCHAR 2642
ENCODING 9794
SWIDTH 1000 0
DWIDTH 24 0
BBX 19 19 2 -1
BITMAP
001FE0
000060
0000A0
000120
000220
000420
000820
001020
1F2000
20C000
404000
802000
802000
802000
802000
802000
404000
218000
1F0000
ENDCHAR
STARTCHAR 2660
ENCODING 9824
SWIDTH 500 0
DWIDTH 12 0
BBX 10 14 1 2
BITMAP
0800
0C00
1E00
3F00
3F00
7F80
FFC0
FFC0
FFC0
FFC0
7F80
0C00
1E00
1E00
ENDCHAR
STARTCHAR 2661
ENCODING 9825
SWIDTH 500 0
DWIDTH 12 0
BBX 10 14 1 2
BITMAP
7380
CCC0
8C40
8840
8040
8040
C080
4080
4080
2100
2200
1200
0C00
0800
ENDCHAR
STARTCHAR 2662
ENCODING 9826
SWIDTH 500 0
DWIDTH 12 0
BBX 10 16 1 1
BITMAP
0800
0C00
1A00
1200
2100
2100
4080
8040
80C0
4080
2100
2100
1200
0C00
0C00
0800
ENDCHAR
STARTCHAR 2663
ENCODING 9827
SWIDTH 500 0
DWIDTH 12 0
BBX 12 14 0 2
BITMAP
0F00
1F80
1F80
1F80
1F80
3FE0
7FF0
FFF0
FFF0
FFF0
7EE0
0600
0F00
0F00
ENDCHAR
STARTCHAR 2664
ENCODING 9828
SWIDTH 500 0
DWIDTH 12 0
BBX 10 14 1 3
BITMAP
0C00
0C00
1200
2100
4080
4080
8040
8040
8040
9C40
7380
1400
1200
1E00
ENDCHAR
STARTCHAR 2665
ENCODING 9829
SWIDTH 500 0
DWIDTH 12 0
BBX 10 14 1 2
BITMAP
7380
FFC0
FFC0
FFC0
FFC0
FFC0
FF80
7F80
7F80
3F00
3E00
1E00
0C00
0800
ENDCHAR
STARTCHAR 2666
ENCODING 9830
SWIDTH 500 0
DWIDTH 12 0
BBX 10 16 1 1
BITMAP
0800
0C00
1E00
1E00
3F00
3F00
7F80
FFC0
FFC0
7F80
3F00
3F00
1E00
0C00
0C00
0800
ENDCHAR
STARTCHAR 2667
ENCODING 9831
SWIDTH 500 0
DWIDTH 12 0
BBX 12 14 0 2
BITMAP
0F00
1980
1080
1080
1080
39E0
4030
8010
8010
8910
7AE0
0A00
0900
0F00
ENDCHAR
STARTCHAR 2668
ENCODING 9832
SWIDTH 1000 0
DWIDTH 24 0
BBX 20 18 2 2
BITMAP
004000
088200
088400
088400
088400
08C400
0C4600
046200
063300
021100
621160
821110
841210
882210
C04030
600060
380380
07FE00
ENDCHAR
STARTCHAR 2669
ENCODING 9833
SWIDTH 500 0
DWIDTH 12 0
BBX 4 13 3 3
BITMAP
10
10
10
10
10
10
10
10
10
10
F0
F0
E0
ENDCHAR
STARTCHAR 266A
ENCODING 9834
SWIDTH 1000 0
DWIDTH 24 0
BBX 16 20 5 0
BITMAP
0200
0300
0380
03C0
0270
0238
021C
020E
0207
0203
0203
0202
0206
0208
0210
3A00
FE00
FE00
FC00
7800
ENDCHAR
STARTCHAR 266B
ENCODING 9835
SWIDTH 500 0
DWIDTH 12 0
BBX 10 14 1 2
BITMAP
00C0
0FC0
1F40
1040
1040
1040
1040
1040
1040
1040
11C0
73C0
F380
E000
ENDCHAR
STARTCHAR 266C
ENCODING 9836
SWIDTH 500 0
DWIDTH 12 0
BBX 10 14 1 2
BITMAP
00C0
0FC0
1E40
11C0
1FC0
1840
1040
1040
1040
1040
11C0
73C0
F380
E000
ENDCHAR
STARTCHAR 266D
ENCODING 9837
SWIDTH 1000 0
DWIDTH 24 0
BBX 9 20 8 -2
BITMAP
8000
8000
8000
8000
8000
8000
8000
9E00
E300
8180
8180
8180
8180
8300
8300
8600
8C00
9800
B000
C000
ENDCHAR
STARTCHAR 266E
ENCODING 9838
SWIDTH 500 0
DWIDTH 12 0
BBX 4 14 4 2
BITMAP
80
80
80
B0
F0
90
90
90
B0
F0
90
10
10
10
ENDCHAR
STARTCHAR 266F
ENCODING 9839
SWIDTH 1000 0
DWIDTH 24 0
BBX 14 20 5 -1
BITMAP
0840
0840
0840
0840
087C
0FF0
FF40
E840
0840
0840
0840
085C
0BFC
3FC0
F840
0840
0840
0840
0840
0800
ENDCHAR
STARTCHAR 2713
ENCODING 10003
SWIDTH 1000 0
DWIDTH 24 0
BBX 16 16 5 2
BITMAP
0001
0002
0004
000C
0008
0010
0020
0060
40C0
C180
E300
6600
7C00
3C00
3800
1000
ENDCHAR
STARTCHAR 2756
ENCODING 10070
SWIDTH 1000 0
DWIDTH 24 0
BBX 22 22 1 -2
BITMAP
002000
003000
007800
00FC00
01FE00
03FF00
08FC80
0C78C0
1E31E0
3F23F0
7F87F8
FFCFFC
3F23F0
1E31E0
0C78C0
08FC80
01FE00
03FF00
00FC00
007800
003000
002000
ENDCHAR
STARTCHAR 2776
ENCODING 10102
SWIDTH 1000 0
DWIDTH 24 0
BBX 21 22 1 -2
BITMAP
01F800
07FF00
0FFF80
1FFFC0
3F1FE0
7FDFF0
7FDFF0
FFDFF0
FFDFF8
FFDFF8
FFDFF8
FFDFF8
FFDFF8
FFDFF8
7FDFF0
7FDFF0
7FDFF0
3F07E0
1FFFC0
0FFF80
07FF00
01FC00
ENDCHAR
STARTCHAR 2777
ENCODING 10103
SWIDTH 1000 0
DWIDTH 24 0
BBX 22 22 1 -2
BITMAP
00FC00
03FF00
0FFFC0
1FFFE0
3F7BF0
3EFDF0
7CFCF8
7C7CF8
FC7CFC
FFF9FC
FFF1FC
FFF3FC
FFE7FC
FFDFFC
7FBEF8
7F7EF8
7EFEF0
3D00F0
1FFFE0
0FFFC0
03FF00
00FC00
ENDCHAR
STARTCHAR 2778
ENCODING 10104
SWIDTH 1000 0
DWIDTH 24 0
BBX 22 22 1 -2
BITMAP
00FC00
07FF00
0FFFC0
1F07E0
3E73F0
7CFDF0
7C7DF8
FC7DF8
FFFDFC
FFF3FC
FF8FFC
FFF9FC
FFFCFC
FFFCFC
7CFCF8
7CFCF8
3EF9F0
3F73F0
1FFFE0
0FFFC0
03FF00
00FC00
ENDCHAR
STARTCHAR 2779
ENCODING 10105
SWIDTH 1000 0
DWIDTH 24 0
BBX 22 22 1 -2
BITMAP
00FC00
07FF80
0FFFC0
1FF7E0
3FE7F0
7FD7F8
7FD7F8
FFB7F8
FF77FC
FF77FC
FEF7FC
FDF7FC
FDF7FC
FA00FC
7FF7F8
7FF7F8
3FF7F0
3FC1F0
1FFFE0
0FFFC0
03FF00
00FC00
ENDCHAR
STARTCHAR 277A
ENCODING 10106
SWIDTH 1000 0
DWIDTH 24 0
BBX 22 22 1 -2
BITMAP
00FC00
03FF00
07FF80
1FFFE0
3E01F0
3EFFF0
7EFFF8
7EFFF8
FEFFFC
FEF3FC
FEF9FC
FFFCFC
FFFCFC
FFFCFC
7C7CF8
7C7DF8
7EF9F8
3F77F0
1FFFE0
0FFFC0
03FF80
00FC00
ENDCHAR
STARTCHAR 277B
ENCODING 10107
SWIDTH 1000 0
DWIDTH 24 0
BBX 22 22 1 -2
BITMAP
00FC00
03FF00
0FFFC0
1FC7E0
3F39F0
7E7DF0
7E79F8
7EFFF8
FCFFFC
FC83FC
FD79FC
FCFCFC
FCFCFC
FCFCFC
7CFCF8
7EFDF8
3F79F0
3FB7F0
1FFFE0
0FFFC0
03FF00
00FC00
ENDCHAR
STARTCHAR 277C
ENCODING 10108
SWIDTH 1000 0
DWIDTH 24 0
BBX 22 22 1 -2
BITMAP
00FC00
03FF00
07FFC0
1FFFE0
3E00F0
3EFFF0
7EFDF8
7EFBF8
FEFBFC
FFF3FC
FFF7FC
FFF7FC
FFE7FC
FFEFFC
7FEFF8
7FCFF8
3FCFF0
3FCFF0
1FCFE0
0FFFC0
03FF00
00FC00
ENDCHAR
STARTCHAR 277D
ENCODING 10109
SWIDTH 1000 0
DWIDTH 24 0
BBX 22 22 1 -2
BITMAP
00FC00
03FF00
0FFFC0
1F87E0
3F7BF0
7EFDF0
7EFDF8
7EFDF8
FE7BFC
FF37FC
FFCFFC
FF63FC
FEF9FC
FDFCFC
7DFCF8
7DFCF8
3EFDF0
3F7BF0
1FFFE0
0FFFC0
03FF00
00FC00
ENDCHAR
STARTCHAR 277E
ENCODING 10110
SWIDTH 1000 0
DWIDTH 24 0
BBX 22 22 1 -2
BITMAP
00FC00
03FF00
0FFFC0
1F87E0
3E73F0
7E79F0
7CF9F8
7CFCF8
FCFCFC
FCFCFC
FC7CFC
FE74FC
FF04FC
FFFCFC
7E7DF8
7E79F8
3EFBF0
3F77F0
1FFFE0
0FFFC0
03FF00
00FC00
ENDCHAR
STARTCHAR 277F
ENCODING 10111
SWIDTH 1000 0
DWIDTH 24 0
BBX 22 22 1 -2
BITMAP
00FC00
03FF00
07FFC0
1FFFE0
39F0F0
39E670
7DE678
7DCF38
FDCF3C
FDCF3C
FDCF3C
FDCF3C
FDCF3C
FDCF3C
7DCF38
7DEF78
3DE670
3076F0
1FFFE0
0FFFC0
03FF00
00FC00
ENDCHAR
STARTCHAR 2934
ENCODING 10548
SWIDTH 500 0
DWIDTH 12 0
BBX 10 18 1 1
BITMAP
0200
0700
1F80
32C0
2240
4240
0200
0200
0200
0200
0200
0200
0200
0200
0200
0600
0C00
F800
ENDCHAR
STARTCHAR 2935
ENCODING 10549
SWIDTH 500 0
DWIDTH 12 0
BBX 10 18 1 -1
BITMAP
F800
0C00
0600
0200
0200
0200
0200
0200
0200
0200
0200
0200
4240
2240
32C0
0B80
0700
0200
ENDCHAR
STARTCHAR 29BF
ENCODING 10687
SWIDTH 1000 0
DWIDTH 24 0
BBX 20 20 2 -1
BITMAP
01F800
060600
180180
3000C0
200040
400020
407020
80F810
81FC10
81FC10
81FC10
80F810
807010
400020
400020
200040
3000C0
180180
060600
01F800
ENDCHAR
STARTCHAR 29FA
ENCODING 10746
SWIDTH 500 0
DWIDTH 12 0
BBX 10 13 1 3
BITMAP
1200
1200
1200
1200
1200
1200
FFC0
1200
1200
1200
1200
1200
1200
ENDCHAR
STARTCHAR 29FB
ENCODING 10747
SWIDTH 500 0
DWIDTH 12 0
BBX 10 13 1 3
BITMAP
2900
2900
2900
2900
2900
2900
FFC0
2900
2900
2900
2900
2900
2900
ENDCHAR
STARTCHAR 3000
ENCODING 12288
SWIDTH 1000 0
DWIDTH 24 0
BBX 0 0 0 0
BITMAP
ENDCHAR
STARTCHAR 3001
ENCODING 12289
SWIDTH 1000 0
DWIDTH 24 0
BBX 5 5 1 -1
BITMAP
C0
30
38
18
18
ENDCHAR
STARTCHAR 3002
ENCODING 12290
SWIDTH 1000 0
DWIDTH 24 0
BBX 6 6 1 -2
BITMAP
78
CC
84
84
CC
78
ENDCHAR
STARTCHAR 3003
ENCODING 12291
SWIDTH 1000 0
DWIDTH 24 0
BBX 11 11 6 4
BITMAP
0CE0
18C0
18C0
1880
1180
3100
2100
6200
4200
8400
8400
ENDCHAR
STARTCHAR 3005
ENCODING 12293
SWIDTH 1000 0
DWIDTH 24 0
BBX 16 14 3 4
BITMAP
0100
0180
0100
0304
021E
07E7
0C04
0808
1018
2410
43A0
80E0
0038
0018
ENDCHAR
STARTCHAR 3006
ENCODING 12294
SWIDTH 1000 0
DWIDTH 24 0
BBX 16 18 4 0
BITMAP
0004
0003
0006
000C
0018
0E30
1960
10C0
21C0
2160
2220
4430
4830
5800
5000
E000
E000
4000
ENDCHAR
STARTCHAR 3007
ENCODING 12295
SWIDTH 1000 0
DWIDTH 24 0
BBX 20 19 2 0
BITMAP
01F800
060600
080180
1000C0
200060
400020
400030
800010
800010
800010
800010
800010
C00020
400020
600040
3000C0
180180
060600
01F800
ENDCHAR
STARTCHAR 3008
ENCODING 12296
SWIDTH 1000 0
DWIDTH 24 0
BBX 10 22 13 -2
BITMAP
00C0
0180
0100
0200
0400
0C00
0800
1000
2000
6000
4000
C000
6000
2000
1000
0800
0C00
0400
0200
0100
0180
0080
ENDCHAR
STARTCHAR 3009
ENCODING 12297
SWIDTH 1000 0
DWIDTH 24 0
BBX 10 22 1 -2
BITMAP
C000
6000
2000
1000
0800
0C00
0400
0200
0100
0180
0080
00C0
0180
0100
0200
0400
0C00
0800
1000
2000
6000
4000
ENDCHAR
STARTCHAR 300A
ENCODING 12298
SWIDTH 1000 0
DWIDTH 24 0
BBX 10 22 13 -2
BITMAP
0240
0480
0480
0900
1900
1200
2400
2400
4800
4800
9000
9000
4800
4800
2400
2400
1200
1900
0900
0480
0480
0240
ENDCHAR
STARTCHAR 300B
ENCODING 12299
SWIDTH 1000 0
DWIDTH 24 0
BBX 10 22 1 -2
BITMAP
9000
4800
4800
2400
2600
1200
0900
0900
0480
0480
0240
0240
0480
0480
0900
0900
1200
2600
2400
4800
4800
9000
ENDCHAR
STARTCHAR 300C
ENCODING 12300
SWIDTH 1000 0
DWIDTH 24 0
BBX 6 17 16 3
BITMAP
FC
80
80
80
80
80
80
80
80
80
80
80
80
80
80
80
80
ENDCHAR
STARTCHAR 300D
ENCODING 12301
SWIDTH 1000 0
DWIDTH 24 0
BBX 6 18 2 -2
BITMAP
04
04
04
04
04
04
04
04
04
04
04
04
04
04
04
04
04
FC
ENDCHAR
STARTCHAR 300E
ENCODING 12302
SWIDTH 1000 0
DWIDTH 24 0
BBX 8 17 14 3
BITMAP
FF
81
81
9F
90
90
90
90
90
90
90
90
90
90
90
90
F0
ENDCHAR
STARTCHAR 300F
ENCODING 12303
SWIDTH 1000 0
DWIDTH 24 0
BBX 8 18 2 -2
BITMAP
0F
09
09
09
09
09
09
09
09
09
09
09
09
09
F9
81
81
FF
ENDCHAR
STARTCHAR 3010
ENCODING 12304
SWIDTH 1000 0
DWIDTH 24 0
BBX 5 22 17 -2
BITMAP
F8
F0
E0
E0
C0
C0
C0
80
80
80
80
80
80
80
80
80
C0
C0
E0
E0
F0
F0
ENDCHAR
STARTCHAR 3011
ENCODING 12305
SWIDTH 1000 0
DWIDTH 24 0
BBX 5 22 2 -2
BITMAP
F8
78
38
38
18
18
18
08
08
08
08
08
08
08
08
18
18
18
38
38
78
78
ENDCHAR
STARTCHAR 3012
ENCODING 12306
SWIDTH 1000 0
DWIDTH 24 0
BBX 16 19 4 -1
BITMAP
FFFF
FFFF
0000
0000
0000
0000
FFFF
FFFF
0180
0180
0180
0180
0180
0180
0180
0180
0180
0180
0180
ENDCHAR
STARTCHAR 3013
ENCODING 12307
SWIDTH 1000 0
DWIDTH 24 0
BBX 16 11 4 4
BITMAP
FFFF
FFFF
FFFF
FFFF
0000
0000
0000
0000
FFFF
FFFF
FFFF
ENDCHAR
STARTCHAR 3014
ENCODING 12308
SWIDTH 1000 0
DWIDTH 24 0
BBX 5 22 17 -1
BITMAP
08
30
C0
80
80
80
80
80
80
80
80
80
80
80
80
80
80
80
80
C0
30
08
ENDCHAR
STARTCHAR 3015
ENCODING 12309
SWIDTH 1000 0
DWIDTH 24 0
BBX 5 22 2 -1
BITMAP
80
60
18
08
08
08
08
08
08
08
08
08
08
08
08
08
08
08
08
18
60
80
ENDCHAR
STARTCHAR 3016
ENCODING 12310
SWIDTH 1000 0
DWIDTH 24 0
BBX 7 22 15 -2
BITMAP
FE
84
88
88
90
90
A0
A0
A0
A0
A0
A0
A0
A0
A0
A0
90
90
88
88
84
FC
ENDCHAR
STARTCHAR 3017
ENCODING 12311
SWIDTH 1000 0
DWIDTH 24 0
BBX 7 22 2 -2
BITMAP
FE
42
22
22
12
12
12
0A
0A
0A
0A
0A
0A
0A
0A
12
12
12
22
22
42
7E
ENDCHAR
STARTCHAR 3018
ENCODING 12312
SWIDTH 1000 0
DWIDTH 24 0
BBX 7 22 15 -1
BITMAP
02
0E
72
82
8C
90
90
90
90
90
90
90
90
90
90
90
90
8C
C2
32
0A
06
ENDCHAR
STARTCHAR 3019
ENCODING 12313
SWIDTH 1000 0
DWIDTH 24 0
BBX 7 22 2 -1
BITMAP
80
E0
9C
82
62
12
12
12
12
12
12
12
12
12
12
12
12
62
86
98
A0
C0
ENDCHAR
STARTCHAR 301C
ENCODING 12316
SWIDTH 1000 0
DWIDTH 24 0
BBX 20 5 2 7
BITMAP
0F0000
318000
406030
803840
000F80
ENDCHAR
STARTCHAR 301D
ENCODING 12317
SWIDTH 1000 0
DWIDTH 24 0
BBX 7 10 16 10
BITMAP
80
E0
30
18
84
C2
30
18
04
02
ENDCHAR
STARTCHAR 301F
ENCODING 12319
SWIDTH 1000 0
DWIDTH 24 0
BBX 7 10 1 -2
BITMAP
80
60
10
0C
86
44
30
08
06
04
ENDCHAR
STARTCHAR 3020
ENCODING 12320
SWIDTH 1000 0
DWIDTH 24 0
BBX 22 15 1 1
BITMAP
3FFFF0
3FFFF0
000000
3FFFF0
3FFFF0
003000
CE31DC
9B3364
8A3144
C6318C
223110
210210
118620
087840
060380
ENDCHAR
STARTCHAR 3033
ENCODING 12339
SWIDTH 1000 0
DWIDTH 24 0
BBX 8 20 7 -2
BITMAP
06
03
03
03
06
04
04
08
08
10
10
30
20
20
40
40
80
80
80
80
ENDCHAR
STARTCHAR 3034
ENCODING 12340
SWIDTH 1000 0
DWIDTH 24 0
BBX 13 20 7 -2
BITMAP
0600
0300
0300
0300
0600
0400
0400
0800
0800
1000
1020
3018
2198
2060
4060
4000
8000
8000
8000
8000
ENDCHAR
STARTCHAR 3035
ENCODING 12341
SWIDTH 1000 0
DWIDTH 24 0
BBX 9 21 7 0
BITMAP
8000
8000
8000
8000
4000
6000
2000
3000
1000
1800
0C00
0C00
0600
0600
0300
0300
0300
0180
0180
0180
0180
ENDCHAR
STARTCHAR 303B
ENCODING 12347
SWIDTH 1000 0
DWIDTH 24 0
BBX 9 15 7 1
BITMAP
2000
1000
0800
0E00
0300
0F00
3000
2000
3000
1800
0E00
0380
0F80
3800
C000
ENDCHAR
STARTCHAR 303C
ENCODING 12348
SWIDTH 1000 0
DWIDTH 24 0
BBX 20 20 2 -1
BITMAP
FFFFF0
800030
800050
800090
800110
800210
800410
800810
801010
802010
804010
808010
810010
820010
840010
880010
900010
A00010
C00010
FFFFF0
ENDCHAR
STARTCHAR 303D
ENCODING 12349
SWIDTH 1000 0
DWIDTH 24 0
BBX 18 20 4 -2
BITMAP
300000
A8C000
C92000
062000
003000
001000
001000
001000
001800
000800
000800
000C00
000400
000400
000600
000200
000300
000300
000180
0001C0
ENDCHAR
STARTCHAR 3041
ENCODING 12353
SWIDTH 1000 0
DWIDTH 24 0
BBX 16 18 4 -2
BITMAP
0600
0100
0100
2270
1FC0
0240
0220
03FC
0E62
1241
6281
4381
8301
8602
8A06
F20C
0030
00C0
ENDCHAR
STARTCHAR 3042
ENCODING 12354
SWIDTH 1000 0
DWIDTH 24 0
BBX 18 20 3 0
BITMAP
038000
018000
018C00
213800
1FC000
010000
033000
027C00
039300
0E3180
1220C0
2260C0
4240C0
C280C0
8300C0
830180
8F0180
730300
010C00
007000
ENDCHAR
STARTCHAR 3043
ENCODING 12355
SWIDTH 1000 0
DWIDTH 24 0
BBX 17 13 4 1
BITMAP
C01000
400800
400400
400200
400300
400180
460180
440180
440000
680000
380000
380000
080000
ENDCHAR
STARTCHAR 3044
ENCODING 12356
SWIDTH 1000 0
DWIDTH 24 0
BBX 20 15 2 2
BITMAP
C00000
600600
600100
600080
4000C0
400060
400060
410030
420030
420030
260000
240000
1C0000
1C0000
0C0000
ENDCHAR
STARTCHAR 3045
ENCODING 12357
SWIDTH 1000 0
DWIDTH 24 0
BBX 11 18 6 -2
BITMAP
2000
1E00
0780
0800
1000
0780
B8C0
E060
C060
0060
0060
0060
00C0
00C0
0180
0300
0C00
3000
ENDCHAR
STARTCHAR 3046
ENCODING 12358
SWIDTH 1000 0
DWIDTH 24 0
BBX 13 21 5 -1
BITMAP
1000
0800
07C0
07E0
0C00
0000
07C0
1C70
F030
C018
0018
0018
0018
0018
0030
0030
0060
00C0
0180
0600
1800
ENDCHAR
STARTCHAR 3047
ENCODING 12359
SWIDTH 1000 0
DWIDTH 24 0
BBX 15 17 5 -1
BITMAP
1000
0F00
03C0
0400
0000
00E0
3F60
3080
0100
0200
0400
0F80
1C80
30C0
6040
C064
803E
ENDCHAR
STARTCHAR 3048
ENCODING 12360
SWIDTH 1000 0
DWIDTH 24 0
BBX 17 19 4 1
BITMAP
0C0000
03E000
01F000
060000
000000
003000
23D800
3E3000
306000
008000
010000
020000
05C000
0E6000
182000
302000
603000
C03E00
800F80
ENDCHAR
STARTCHAR 3049
ENCODING 12361
SWIDTH 1000 0
DWIDTH 24 0
BBX 16 15 4 1
BITMAP
1800
0818
0804
0982
8F03
7801
0800
08F8
0F04
1802
2802
C802
8802
C804
39F8
ENDCHAR
STARTCHAR 304A
ENCODING 12362
SWIDTH 1000 0
DWIDTH 24 0
BBX 19 18 3 1
BITMAP
0C0000
040700
040180
0400C0
85C060
7F0060
040000
040000
040000
04FE00
070380
1C01C0
6400C0
C400C0
8400C0
C40180
648300
387E00
ENDCHAR
STARTCHAR 304B
ENCODING 12363
SWIDTH 1000 0
DWIDTH 24 0
BBX 21 19 2 0
BITMAP
040000
030000
030000
030000
030300
03E080
FE2060
621020
061030
041018
041018
0C11F8
081008
183000
342000
336000
61C000
61C000
418000
ENDCHAR
STARTCHAR 304C
ENCODING 12364
SWIDTH 1000 0
DWIDTH 24 0
BBX 22 20 2 1
BITMAP
000038
04008C
03004C
030060
030020
030300
03E080
FE2060
621020
061030
041018
041018
0C11F8
081008
183000
342000
336000
61C000
61C000
418000
ENDCHAR
STARTCHAR 304D
ENCODING 12365
SWIDTH 1000 0
DWIDTH 24 0
BBX 17 19 4 1
BITMAP
070000
030000
019800
00F000
438000
3E4000
004380
803E00
40F000
3F9000
001000
000800
006C00
001C00
200400
200000
180000
0FC000
07F800
ENDCHAR
STARTCHAR 304E
ENCODING 12366
SWIDTH 1000 0
DWIDTH 24 0
BBX 19 20 4 1
BITMAP
0000C0
070260
0301A0
019880
00F000
438000
3E4000
004380
803E00
40F000
3F9000
001000
000800
006C00
001C00
200400
200000
180000
0FC000
07F800
ENDCHAR
STARTCHAR 304F
ENCODING 12367
SWIDTH 1000 0
DWIDTH 24 0
BBX 11 20 6 0
BITMAP
00C0
00C0
0180
0700
0C00
1800
3000
4000
8000
8000
6000
3000
1800
0E00
0300
0380
01C0
00E0
0060
0060
ENDCHAR
STARTCHAR 3050
ENCODING 12368
SWIDTH 1000 0
DWIDTH 24 0
BBX 15 20 6 0
BITMAP
00C0
00C0
0180
0700
0C08
1806
3076
4018
8018
8000
6000
3000
1800
0E00
0300
0380
01C0
00E0
0060
0060
ENDCHAR
STARTCHAR 3051
ENCODING 12369
SWIDTH 1000 0
DWIDTH 24 0
BBX 18 21 4 -1
BITMAP
801800
400C00
600C00
600C00
600C00
480DC0
C61F80
C1F400
C00400
800400
800400
A00400
B00400
A00C00
A00800
E00800
401800
403000
406000
00C000
010000
ENDCHAR
STARTCHAR 3052
ENCODING 12370
SWIDTH 1000 0
DWIDTH 24 0
BBX 20 22 4 -1
BITMAP
0000E0
801A30
400D30
600C80
600C80
600C00
480DC0
C61F80
C1F400
C00400
800400
800400
A00400
B00400
A00C00
A00800
E00800
401800
403000
406000
00C000
010000
ENDCHAR
STARTCHAR 3053
ENCODING 12371
SWIDTH 1000 0
DWIDTH 24 0
BBX 16 16 4 2
BITMAP
3078
0FF8
00C0
0100
0200
0000
0000
0000
0000
0000
8000
8000
8000
4000
3007
0FFE
ENDCHAR
STARTCHAR 3054
ENCODING 12372
SWIDTH 1000 0
DWIDTH 24 0
BBX 19 19 4 2
BITMAP
0000C0
000260
0001A0
307980
0FF800
00C000
010000
020000
000000
000000
000000
000000
000000
800000
800000
800000
400000
300700
0FFE00
ENDCHAR
STARTCHAR 3055
ENCODING 12373
SWIDTH 1000 0
DWIDTH 24 0
BBX 15 19 4 0
BITMAP
0700
0B00
0100
0186
00BC
80E0
7F40
0060
0020
0030
0018
004C
003C
200C
2000
2000
1800
0FF8
03F8
ENDCHAR
STARTCHAR 3056
ENCODING 12374
SWIDTH 1000 0
DWIDTH 24 0
BBX 20 21 4 0
BITMAP
000080
000060
070330
0B01B0
010080
018600
00BC00
80E000
7F4000
006000
002000
003000
001800
004C00
003C00
200C00
200000
200000
180000
0FF800
03F800
ENDCHAR
STARTCHAR 3057
ENCODING 12375
SWIDTH 1000 0
DWIDTH 24 0
BBX 16 19 5 0
BITMAP
C000
6000
6000
6000
6000
6000
4000
4000
4000
4000
4000
4003
4002
4004
4004
4008
2010
1060
0F80
ENDCHAR
STARTCHAR 3058
ENCODING 12376
SWIDTH 1000 0
DWIDTH 24 0
BBX 16 19 5 0
BITMAP
C000
6000
6020
6018
60CC
603C
4030
4000
4000
4000
4000
4003
4002
4004
4004
4008
2010
1060
0F80
ENDCHAR
STARTCHAR 3059
ENCODING 12377
SWIDTH 1000 0
DWIDTH 24 0
BBX 21 22 2 -2
BITMAP
003800
001800
001800
001800
0013F0
FFFFF8
7E1000
001000
00F000
011000
020800
020C00
020C00
020C00
011C00
01EC00
000800
001800
001000
003000
006000
008000
ENDCHAR
STARTCHAR 305A
ENCODING 12378
SWIDTH 1000 0
DWIDTH 24 0
BBX 22 23 2 -2
BITMAP
000010
00388C
00184C
001860
001820
0013F0
FFFFF8
7E1000
001000
00F000
011000
020800
020C00
020C00
020C00
011C00
01EC00
000800
001800
001000
003000
006000
008000
ENDCHAR
STARTCHAR 305B
ENCODING 12379
SWIDTH 1000 0
DWIDTH 24 0
BBX 22 19 1 0
BITMAP
000300
080180
060180
020180
020180
020138
023FFC
FFC100
720100
020100
021B00
020F00
020600
020200
020000
030000
010040
0181E0
007FC0
ENDCHAR
STARTCHAR 305C
ENCODING 12380
SWIDTH 1000 0
DWIDTH 24 0
BBX 23 21 1 0
BITMAP
000010
00000C
000366
08019A
060198
020180
020180
020138
023FFC
FFC100
720100
020100
021B00
020F00
020600
020200
020000
030000
010040
0181E0
007FC0
ENDCHAR
STARTCHAR 305D
ENCODING 12381
SWIDTH 1000 0
DWIDTH 24 0
BBX 19 19 2 0
BITMAP
001C00
0FFE00
070C00
001800
002000
00C000
010000
0207E0
8FF800
7E4000
708000
010000
010000
010000
010000
018000
00C000
007C00
003F00
ENDCHAR
STARTCHAR 305E
ENCODING 12382
SWIDTH 1000 0
DWIDTH 24 0
BBX 21 21 2 0
BITMAP
000020
000018
001CC8
0FFE60
070C20
001800
002000
00C000
010000
0207E0
8FF800
7E4000
708000
010000
010000
010000
010000
018000
00C000
007C00
003F00
ENDCHAR
STARTCHAR 305F
ENCODING 12383
SWIDTH 1000 0
DWIDTH 24 0
BBX 18 19 3 1
BITMAP
030000
030000
030000
020000
82E000
47C000
3C0000
040F80
0C7F00
088C00
181000
100000
100000
200000
200000
408000
C08000
8060C0
801FC0
ENDCHAR
STARTCHAR 3060
ENCODING 12384
SWIDTH 1000 0
DWIDTH 24 0
BBX 18 20 3 0
BITMAP
000100
030080
0306C0
030340
020100
82E000
47C000
3C0000
040F80
0C7F00
088C00
181000
100000
100000
200000
200000
408000
C08000
8060C0
801FC0
ENDCHAR
STARTCHAR 3061
ENCODING 12385
SWIDTH 1000 0
DWIDTH 24 0
BBX 17 20 3 0
BITMAP
0E0000
060000
060000
047000
85E000
7F0000
080000
080000
080000
103E00
11C300
130180
1C0180
180180
000180
000300
000600
001C00
00F000
030000
ENDCHAR
STARTCHAR 3062
ENCODING 12386
SWIDTH 1000 0
DWIDTH 24 0
BBX 18 21 3 0
BITMAP
000380
0E08C0
0604C0
060600
047200
85E000
7F0000
080000
080000
080000
103E00
11C300
130180
1C0180
180180
000180
000300
000600
001C00
00F000
030000
ENDCHAR
STARTCHAR 3063
ENCODING 12387
SWIDTH 1000 0
DWIDTH 24 0
BBX 17 12 3 0
BITMAP
00FC00
8F8700
7C0300
700180
000180
000180
000380
000300
000600
001800
01E000
020000
ENDCHAR
STARTCHAR 3064
ENCODING 12388
SWIDTH 1000 0
DWIDTH 24 0
BBX 19 14 2 1
BITMAP
007F00
0FC180
FE00C0
780060
000060
000060
000060
000060
0000C0
000180
000300
000E00
00F000
010000
ENDCHAR
STARTCHAR 3065
ENCODING 12389
SWIDTH 1000 0
DWIDTH 24 0
BBX 21 20 2 1
BITMAP
000020
000010
0000D8
000068
000020
000000
007F00
0FC180
FE00C0
780060
000060
000060
000060
000060
0000C0
000180
000300
000E00
00F000
010000
ENDCHAR
STARTCHAR 3066
ENCODING 12390
SWIDTH 1000 0
DWIDTH 24 0
BBX 19 17 2 0
BITMAP
0007E0
83F800
FC3000
604000
008000
008000
008000
010000
010000
010000
010000
010000
018000
008000
00E000
007F80
001F80
ENDCHAR
STARTCHAR 3067
ENCODING 12391
SWIDTH 1000 0
DWIDTH 24 0
BBX 20 17 2 0
BITMAP
0007E0
83F800
FC3000
604040
008020
0081B0
0080D0
010040
010000
010000
010000
010000
018000
008000
00E000
007F80
001F80
ENDCHAR
STARTCHAR 3068
ENCODING 12392
SWIDTH 1000 0
DWIDTH 24 0
BBX 14 19 5 0
BITMAP
3800
1800
1800
1800
1810
0818
0878
09E0
0F80
0E00
1800
3000
4000
C000
8000
8000
8000
601C
1FF8
ENDCHAR
STARTCHAR 3069
ENCODING 12393
SWIDTH 1000 0
DWIDTH 24 0
BBX 18 20 5 0
BITMAP
000300
3800C0
180CC0
180600
180200
181000
081800
087800
09E000
0F8000
0E0000
180000
300000
400000
C00000
800000
800000
800000
601C00
1FF800
ENDCHAR
STARTCHAR 306A
ENCODING 12394
SWIDTH 1000 0
DWIDTH 24 0
BBX 18 20 3 0
BITMAP
070000
030000
030000
026000
47CE00
3F0180
0403C0
0804C0
080000
101000
301000
201000
601000
C01800
83F800
041C00
080F00
0809C0
0418C0
03F000
ENDCHAR
STARTCHAR 306B
ENCODING 12395
SWIDTH 1000 0
DWIDTH 24 0
BBX 17 18 4 1
BITMAP
C00000
600000
61FF00
601C00
402000
C04000
C00000
800000
800000
800000
900000
A00000
A20000
E20000
C18000
407F80
400000
400000
ENDCHAR
STARTCHAR 306C
ENCODING 12396
SWIDTH 1000 0
DWIDTH 24 0
BBX 20 18 2 2
BITMAP
00C000
106000
106000
086000
08FC00
0B6300
0C4180
1840C0
1840E0
2C8060
448060
450060
850060
860F60
8218C0
8710E0
8911B0
700F10
ENDCHAR
STARTCHAR 306D
ENCODING 12397
SWIDTH 1000 0
DWIDTH 24 0
BBX 21 19 2 1
BITMAP
070000
030000
030000
020000
030F00
7F1180
7360C0
0280C0
030060
060060
0A0060
1A0060
320060
220F60
7210C0
CA20E0
8620B0
061198
060F08
ENDCHAR
STARTCHAR 306E
ENCODING 12398
SWIDTH 1000 0
DWIDTH 24 0
BBX 20 17 2 0
BITMAP
00FC00
07C700
0CC1C0
10C0E0
20C060
40C030
41C030
818030
818030
830030
830030
860060
860060
4C00C0
380180
000E00
003000
ENDCHAR
STARTCHAR 306F
ENCODING 12399
SWIDTH 1000 0
DWIDTH 24 0
BBX 20 19 3 0
BITMAP
401800
300C00
300400
300400
200400
6204E0
41FF80
400400
400400
800400
800400
900400
900400
A0FC00
A10F00
C205C0
C20470
430C30
40F800
ENDCHAR
STARTCHAR 3070
ENCODING 12400
SWIDTH 1000 0
DWIDTH 24 0
BBX 20 21 3 0
BITMAP
000040
000020
4019B0
300CD0
300440
300400
200400
6204E0
41FF80
400400
400400
800400
800400
900400
900400
A0FC00
A10F00
C205C0
C20470
430C30
40F800
ENDCHAR
STARTCHAR 3071
ENCODING 12401
SWIDTH 1000 0
DWIDTH 24 0
BBX 20 20 3 1
BITMAP
000070
401890
300C90
300470
300400
200400
6204E0
41FF80
400400
400400
800400
800400
900400
900400
A0FC00
A10F00
C205C0
C20470
430C30
40F800
ENDCHAR
STARTCHAR 3072
ENCODING 12402
SWIDTH 1000 0
DWIDTH 24 0
BBX 20 19 2 0
BITMAP
000600
010600
078600
9D0500
720580
640280
0802C0
080270
100230
100210
200200
200200
200200
200600
200400
300400
181800
0FF000
07C000
ENDCHAR
STARTCHAR 3073
ENCODING 12403
SWIDTH 1000 0
DWIDTH 24 0
BBX 22 20 2 1
BITMAP
000038
00068C
01064C
078660
9D0520
720580
640280
0802C0
080270
100230
100210
200200
200200
200200
200600
200400
300400
181800
0FF000
07C000
ENDCHAR
STARTCHAR 3074
ENCODING 12404
SWIDTH 1000 0
DWIDTH 24 0
BBX 21 20 2 0
BITMAP
000030
000648
010648
078648
9D0530
720580
640280
0802C0
080270
100230
100210
200200
200200
200200
200600
200400
300400
181800
0FF000
07C000
ENDCHAR
STARTCHAR 3075
ENCODING 12405
SWIDTH 1000 0
DWIDTH 24 0
BBX 22 19 1 0
BITMAP
008000
006000
001E00
002200
004000
000000
000000
004000
002000
002180
003060
021030
031818
040C0C
980C0C
700C0C
620C00
011C00
00F800
ENDCHAR
STARTCHAR 3076
ENCODING 12406
SWIDTH 1000 0
DWIDTH 24 0
BBX 22 19 1 0
BITMAP
008000
006038
001E8C
00224C
004060
000020
000000
004000
002000
002180
003060
021030
031818
040C0C
980C0C
700C0C
620C00
011C00
00F800
ENDCHAR
STARTCHAR 3077
ENCODING 12407
SWIDTH 1000 0
DWIDTH 24 0
BBX 22 19 1 0
BITMAP
008000
006070
001E88
002288
004088
000070
000000
004000
002000
002180
003060
021030
031818
040C0C
980C0C
700C0C
620C00
011C00
00F800
ENDCHAR
STARTCHAR 3078
ENCODING 12408
SWIDTH 1000 0
DWIDTH 24 0
BBX 21 12 1 3
BITMAP
00C000
012000
033000
061800
040C00
0C0600
980300
700180
3000C0
000070
000038
000018
ENDCHAR
STARTCHAR 3079
ENCODING 12409
SWIDTH 1000 0
DWIDTH 24 0
BBX 21 15 1 4
BITMAP
000080
000460
000360
00C180
012180
033000
061800
040C00
0C0600
980300
700180
3000C0
000070
000038
000018
ENDCHAR
STARTCHAR 307A
ENCODING 12410
SWIDTH 1000 0
DWIDTH 24 0
BBX 21 15 1 3
BITMAP
0001C0
000220
000220
00C220
0121C0
033000
061800
040C00
0C0600
980300
700180
3000C0
000070
000038
000018
ENDCHAR
STARTCHAR 307B
ENCODING 12411
SWIDTH 1000 0
DWIDTH 24 0
BBX 20 19 3 0
BITMAP
400000
620380
61FF00
600C00
600C00
400C00
400C00
C30FE0
80FF00
800400
800400
900400
900400
A0FC00
A30F00
E205E0
C20470
430C30
40F800
ENDCHAR
STARTCHAR 307C
ENCODING 12412
SWIDTH 1000 0
DWIDTH 24 0
BBX 21 21 3 0
BITMAP
000040
000030
400198
6206D8
61FF40
600C00
600C00
400C00
400C00
C30FE0
80FF00
800400
800400
900400
900400
A0FC00
A30F00
E205E0
C20470
430C30
40F800
ENDCHAR
STARTCHAR 307D
ENCODING 12413
SWIDTH 1000 0
DWIDTH 24 0
BBX 21 21 3 0
BITMAP
000060
000098
400088
620688
61FF70
600C00
600C00
400C00
400C00
C30FE0
80FF00
800400
800400
900400
900400
A0FC00
A30F00
E205E0
C20470
430C30
40F800
ENDCHAR
STARTCHAR 307E
ENCODING 12414
SWIDTH 1000 0
DWIDTH 24 0
BBX 16 19 4 1
BITMAP
01C0
00C0
00C0
0086
C0FE
3F80
0080
0080
408E
3FFC
0080
0080
0080
00C0
3FE0
60FC
40CF
60C3
3F80
ENDCHAR
STARTCHAR 307F
ENCODING 12415
SWIDTH 1000 0
DWIDTH 24 0
BBX 21 19 2 -1
BITMAP
083000
0FD800
0E3800
003000
006000
006000
0041C0
00C0C0
07C0C0
39B8C0
610780
4201C0
8601E0
840138
980318
700200
000400
000800
003000
ENDCHAR
STARTCHAR 3080
ENCODING 12416
SWIDTH 1000 0
DWIDTH 24 0
BBX 20 20 2 0
BITMAP
060000
060000
060000
060000
86E100
7FC0C0
060060
060020
1C0030
2401F0
420030
820020
860000
8C0200
740200
080200
080100
080100
0C0380
03FF00
ENDCHAR
STARTCHAR 3081
ENCODING 12417
SWIDTH 1000 0
DWIDTH 24 0
BBX 20 20 2 0
BITMAP
007000
103000
083000
083000
08FE00
0B2180
0C60C0
1C6060
3C4060
24C030
448030
448030
870030
830030
830060
858060
8880C0
700380
000E00
007000
ENDCHAR
STARTCHAR 3082
ENCODING 12418
SWIDTH 1000 0
DWIDTH 24 0
BBX 16 20 3 0
BITMAP
0700
0300
0300
0200
8270
47E0
3E00
0400
0400
0400
4CF2
3FE1
0801
0801
0801
0803
0C03
060E
03FC
01F0
ENDCHAR
STARTCHAR 3083
ENCODING 12419
SWIDTH 1000 0
DWIDTH 24 0
BBX 18 18 3 -2
BITMAP
018000
00E000
386000
080000
0C1F00
04E180
0700C0
1E00C0
FA00C0
624180
013F00
010000
010000
008000
008000
00C000
00C000
004000
ENDCHAR
STARTCHAR 3084
ENCODING 12420
SWIDTH 1000 0
DWIDTH 24 0
BBX 20 20 2 0
BITMAP
01C000
007000
383000
080000
0C0F80
0470E0
07C070
070030
1E0030
F10030
612060
0198E0
008780
00C000
004000
006000
006000
003000
003000
003000
ENDCHAR
STARTCHAR 3085
ENCODING 12421
SWIDTH 1000 0
DWIDTH 24 0
BBX 16 18 4 -2
BITMAP
00C0
0040
C040
C078
C1EE
C226
C423
8823
9023
9023
A022
A466
E34C
60F8
6080
0180
0100
0600
ENDCHAR
STARTCHAR 3086
ENCODING 12422
SWIDTH 1000 0
DWIDTH 24 0
BBX 19 21 3 -1
BITMAP
006000
003000
C03000
C03E00
C0D380
C110C0
8210E0
841060
881060
901060
901060
B01060
A010C0
E331C0
60A300
607E00
204000
004000
008000
010000
020000
ENDCHAR
STARTCHAR 3087
ENCODING 12423
SWIDTH 1000 0
DWIDTH 24 0
BBX 14 17 5 -1
BITMAP
0700
0300
0300
0300
0318
03F0
0300
0100
0100
0100
0100
0100
3F80
C1F0
813C
C30C
3E00
ENDCHAR
STARTCHAR 3088
ENCODING 12424
SWIDTH 1000 0
DWIDTH 24 0
BBX 16 19 4 1
BITMAP
0380
0180
0180
0180
0180
0186
01FC
0180
0080
0080
0080
0080
0080
3F80
41F0
80BC
808F
C183
3F00
ENDCHAR
STARTCHAR 3089
ENCODING 12425
SWIDTH 1000 0
DWIDTH 24 0
BBX 15 21 5 -1
BITMAP
4000
3000
0F80
0F80
1000
4000
2000
6000
6000
4000
C1F0
8E1C
B80E
F006
E006
C006
000C
001C
0038
01C0
0E00
ENDCHAR
STARTCHAR 308A
ENCODING 12426
SWIDTH 1000 0
DWIDTH 24 0
BBX 12 20 6 -2
BITMAP
00C0
C060
6020
6030
4030
4030
C030
A030
B030
A030
C030
C030
C030
4060
0060
00C0
00C0
0180
0600
1800
ENDCHAR
STARTCHAR 308B
ENCODING 12427
SWIDTH 1000 0
DWIDTH 24 0
BBX 17 19 3 0
BITMAP
003000
11F800
1F3000
0C6000
00C000
018000
030000
060000
0CFC00
1F0E00
380300
600180
C00180
870180
08C180
084300
086700
066C00
01F800
ENDCHAR
STARTCHAR 308C
ENCODING 12428
SWIDTH 1000 0
DWIDTH 24 0
BBX 22 19 2 1
BITMAP
0E0000
020000
020000
020700
031980
7F2180
734180
068180
050180
0E0180
0C0100
140108
34010C
660108
560118
CE0130
8E01F0
0600E0
040000
ENDCHAR
STARTCHAR 308D
ENCODING 12429
SWIDTH 1000 0
DWIDTH 24 0
BBX 17 20 3 -1
BITMAP
003000
11F800
1FB000
0C6000
00C000
018000
030000
060000
0CFC00
1B0600
3C0300
600180
C00180
800180
000180
000300
000600
001C00
01F000
020000
ENDCHAR
STARTCHAR 308E
ENCODING 12430
SWIDTH 1000 0
DWIDTH 24 0
BBX 17 17 3 -1
BITMAP
0C0000
060000
060000
040000
063C00
7E4300
668100
070180
0C0080
1C0080
140080
240080
640100
D40300
8C0E00
0C3800
040000
ENDCHAR
STARTCHAR 308F
ENCODING 12431
SWIDTH 1000 0
DWIDTH 24 0
BBX 20 19 2 1
BITMAP
070000
030000
030000
020000
030F80
7F90C0
33E060
038060
030030
060030
0E0030
1A0030
120030
220070
720060
CA00E0
8603C0
061F00
020000
ENDCHAR
STARTCHAR 3090
ENCODING 12432
SWIDTH 1000 0
DWIDTH 24 0
BBX 19 19 2 0
BITMAP
006000
0FF000
062000
002000
006000
006000
007E00
03C380
04C0C0
1880C0
318060
610060
430060
827860
868C60
8C86C0
988280
704300
003E00
ENDCHAR
STARTCHAR 3091
ENCODING 12433
SWIDTH 1000 0
DWIDTH 24 0
BBX 20 19 2 0
BITMAP
083800
07DC00
073000
004000
008000
037E00
058300
0E0180
1BC180
126300
026600
01F800
008000
030000
0C0780
1708E0
799060
E0F030
802030
ENDCHAR
STARTCHAR 3092
ENCODING 12434
SWIDTH 1000 0
DWIDTH 24 0
BBX 16 19 4 1
BITMAP
0700
0300
0230
86E0
7F80
0C00
0800
1006
2E07
711C
E1F0
C180
06C0
0CC0
18C0
1000
1000
0800
07FE
ENDCHAR
STARTCHAR 3093
ENCODING 12435
SWIDTH 1000 0
DWIDTH 24 0
BBX 19 19 3 0
BITMAP
010000
00C000
00C000
008000
018000
030000
020000
060000
040000
098000
0EC020
184020
284040
304040
604040
604080
C02180
C02300
801E00
ENDCHAR
STARTCHAR 3094
ENCODING 12436
SWIDTH 1000 0
DWIDTH 24 0
BBX 17 22 5 -1
BITMAP
000200
100100
080D80
07C680
07E600
0C0000
000000
07C000
1C7000
F03000
C01800
001800
001800
001800
001800
003000
003000
006000
00C000
018000
060000
180000
ENDCHAR
STARTCHAR 3095
ENCODING 12437
SWIDTH 1000 0
DWIDTH 24 0
BBX 17 15 4 1
BITMAP
0E0000
060000
061000
040C00
FF8200
ECC100
084100
084180
104F80
104180
30C080
688000
678000
C30000
C20000
ENDCHAR
STARTCHAR 3096
ENCODING 12438
SWIDTH 1000 0
DWIDTH 24 0
BBX 16 18 5 -2
BITMAP
8030
4010
6010
6010
6013
441E
C3F8
C018
8018
8018
9018
A018
A018
C030
C030
4060
40C0
0100
ENDCHAR
STARTCHAR 3099
ENCODING 12441
SWIDTH 1000 0
DWIDTH 24 0
BBX 6 5 17 15
BITMAP
20
1C
CC
60
20
ENDCHAR
STARTCHAR 309A
ENCODING 12442
SWIDTH 1000 0
DWIDTH 24 0
BBX 4 5 18 15
BITMAP
60
90
90
90
60
ENDCHAR
STARTCHAR 309B
ENCODING 12443
SWIDTH 1000 0
DWIDTH 24 0
BBX 6 5 1 15
BITMAP
10
2C
CC
60
20
ENDCHAR
STARTCHAR 309C
ENCODING 12444
SWIDTH 1000 0
DWIDTH 24 0
BBX 5 5 1 15
BITMAP
70
88
88
88
70
ENDCHAR
STARTCHAR 309D
ENCODING 12445
SWIDTH 1000 0
DWIDTH 24 0
BBX 7 13 8 3
BITMAP
80
80
80
40
60
30
18
0C
06
06
0E
10
20
ENDCHAR
STARTCHAR 309E
ENCODING 12446
SWIDTH 1000 0
DWIDTH 24 0
BBX 11 14 8 3
BITMAP
00C0
8460
8320
8180
4180
6000
3000
1800
0C00
0600
0600
0E00
1000
2000
ENDCHAR
STARTCHAR 309F
ENCODING 12447
SWIDTH 1000 0
DWIDTH 24 0
BBX 14 21 5 -1
BITMAP
0200
0180
0180
0300
030C
06FC
0400
0800
0800
13C0
2C20
3810
6010
C010
8010
0030
0020
4040
20C0
3180
1E00
ENDCHAR
STARTCHAR 30A0
ENCODING 12448
SWIDTH 1000 0
DWIDTH 24 0
BBX 10 4 7 7
BITMAP
FFC0
0000
0000
FFC0
ENDCHAR
STARTCHAR 30A1
ENCODING 12449
SWIDTH 1000 0
DWIDTH 24 0
BBX 16 17 4 -2
BITMAP
0006
FFFF
7C0E
000C
0010
0360
0180
0180
0180
0100
0100
0300
0200
0600
0C00
1800
2000
ENDCHAR
STARTCHAR 30A2
ENCODING 12450
SWIDTH 1000 0
DWIDTH 24 0
BBX 18 19 3 -2
BITMAP
000380
FFFFC0
7F0180
000300
000600
000800
01F000
00C000
00C000
00C000
00C000
008000
018000
018000
010000
030000
060000
0C0000
100000
ENDCHAR
STARTCHAR 30A3
ENCODING 12451
SWIDTH 1000 0
DWIDTH 24 0
BBX 15 17 3 -1
BITMAP
0008
0006
000E
001C
0030
0060
01C0
0340
0C40
7040
8040
0040
0040
0040
0040
0040
0040
ENDCHAR
STARTCHAR 30A4
ENCODING 12452
SWIDTH 1000 0
DWIDTH 24 0
BBX 16 20 2 -1
BITMAP
0006
0003
0007
000E
001C
0030
0060
01E0
0320
0C20
3020
C020
0020
0020
0060
0060
0060
0060
0060
0060
ENDCHAR
STARTCHAR 30A5
ENCODING 12453
SWIDTH 1000 0
DWIDTH 24 0
BBX 14 18 5 -1
BITMAP
0700
0300
0200
8218
7FFC
4018
4018
4018
4010
4030
4030
0060
00C0
0080
0100
0600
0800
1000
ENDCHAR
STARTCHAR 30A6
ENCODING 12454
SWIDTH 1000 0
DWIDTH 24 0
BBX 16 20 4 0
BITMAP
0380
0180
0180
0182
C7FF
7803
6002
6006
6006
6006
6004
600C
0008
0018
0030
0060
00C0
0180
0200
0C00
ENDCHAR
STARTCHAR 30A7
ENCODING 12455
SWIDTH 1000 0
DWIDTH 24 0
BBX 17 11 3 2
BITMAP
200C00
1FFE00
008000
008000
008000
008000
008000
008000
008000
808700
7FFF80
ENDCHAR
STARTCHAR 30A8
ENCODING 12456
SWIDTH 1000 0
DWIDTH 24 0
BBX 20 13 2 2
BITMAP
000300
200F80
1FF000
004000
004000
004000
004000
004000
004000
004000
004000
8043E0
7FFFF0
ENDCHAR
STARTCHAR 30A9
ENCODING 12457
SWIDTH 1000 0
DWIDTH 24 0
BBX 18 17 3 -1
BITMAP
006000
003000
001000
001000
001380
20FFC0
1F5000
00D000
009000
011000
031000
061000
0C1000
191000
20F800
C01800
001800
ENDCHAR
STARTCHAR 30AA
ENCODING 12458
SWIDTH 1000 0
DWIDTH 24 0
BBX 21 19 1 1
BITMAP
000E00
000600
000600
000600
000630
300FF8
1FFE00
001600
003600
006600
006200
00C200
018200
030200
060200
0C4200
183E00
200600
C00600
ENDCHAR
STARTCHAR 30AB
ENCODING 12459
SWIDTH 1000 0
DWIDTH 24 0
BBX 18 20 3 0
BITMAP
01C000
006000
006000
004000
004080
7EDFC0
3FE0C0
008080
018180
018180
010180
030100
020100
060300
044300
083600
101E00
200C00
400800
800000
ENDCHAR
STARTCHAR 30AC
ENCODING 12460
SWIDTH 1000 0
DWIDTH 24 0
BBX 20 21 3 0
BITMAP
0000E0
01C230
0061B0
006080
004000
004080
7EDFC0
3FE0C0
008080
018180
018180
010180
030100
020100
060300
044300
083600
101E00
200C00
400800
800000
ENDCHAR
STARTCHAR 30AD
ENCODING 12461
SWIDTH 1000 0
DWIDTH 24 0
BBX 19 20 3 -1
BITMAP
070000
010000
018000
018000
008600
00FF00
FF8000
708000
00C000
0040C0
004FE0
03F000
FE6000
706000
002000
002000
003000
003000
003000
001000
ENDCHAR
STARTCHAR 30AE
ENCODING 12462
SWIDTH 1000 0
DWIDTH 24 0
BBX 20 21 3 -1
BITMAP
0000C0
070430
010330
018080
018080
008600
00FF00
FF8000
708000
00C000
0040C0
004FE0
03F000
FE6000
706000
002000
002000
003000
003000
003000
001000
ENDCHAR
STARTCHAR 30AF
ENCODING 12463
SWIDTH 1000 0
DWIDTH 24 0
BBX 17 20 3 -1
BITMAP
020000
01C000
00C000
018300
01FF80
030380
060300
040600
080600
100C00
600C00
801800
003000
007000
00E000
018000
030000
0C0000
300000
400000
ENDCHAR
STARTCHAR 30B0
ENCODING 12464
SWIDTH 1000 0
DWIDTH 24 0
BBX 21 22 3 -1
BITMAP
000040
000038
020198
01C0C0
00C040
018300
01FF80
030380
060300
040600
080600
100C00
600C00
801800
003000
007000
00E000
018000
030000
0C0000
300000
400000
ENDCHAR
STARTCHAR 30B1
ENCODING 12465
SWIDTH 1000 0
DWIDTH 24 0
BBX 20 20 2 -1
BITMAP
060000
030000
030000
020000
0600E0
07FFF0
0C1800
081800
101800
201800
401800
801000
003000
003000
006000
004000
008000
010000
060000
080000
ENDCHAR
STARTCHAR 30B2
ENCODING 12466
SWIDTH 1000 0
DWIDTH 24 0
BBX 22 22 2 -1
BITMAP
000020
000018
0600CC
03003C
030030
020000
0600E0
07FFF0
0C1800
081800
101800
201800
401800
801000
003000
003000
006000
004000
008000
010000
060000
080000
ENDCHAR
STARTCHAR 30B3
ENCODING 12467
SWIDTH 1000 0
DWIDTH 24 0
BBX 15 14 4 3
BITMAP
7FFC
3F06
0006
0006
0004
0004
0004
0004
0004
0004
0004
800C
7FFE
3C00
ENDCHAR
STARTCHAR 30B4
ENCODING 12468
SWIDTH 1000 0
DWIDTH 24 0
BBX 19 19 4 2
BITMAP
000080
000060
000320
000180
000180
7FFC00
3F0600
000600
000600
000400
000400
000400
000400
000400
000400
000400
800C00
7FFE00
3C0000
ENDCHAR
STARTCHAR 30B5
ENCODING 12469
SWIDTH 1000 0
DWIDTH 24 0
BBX 20 20 2 0
BITMAP
000E00
0E0600
060600
020600
020600
020660
83FFF0
7E0600
020600
060400
060400
060400
060400
000C00
000800
001800
003000
006000
018000
060000
ENDCHAR
STARTCHAR 30B6
ENCODING 12470
SWIDTH 1000 0
DWIDTH 24 0
BBX 21 22 2 -1
BITMAP
000060
000010
000E98
0E0668
060620
020600
020600
020660
83FFF0
7E0600
020600
060400
060400
060400
060400
000C00
000800
001800
003000
006000
018000
060000
ENDCHAR
STARTCHAR 30B7
ENCODING 12471
SWIDTH 1000 0
DWIDTH 24 0
BBX 19 18 3 1
BITMAP
1C0000
070000
018000
018020
800040
700040
180080
0C0100
0C0300
000200
000400
001800
003000
006000
01C000
270000
3C0000
180000
ENDCHAR
STARTCHAR 30B8
ENCODING 12472
SWIDTH 1000 0
DWIDTH 24 0
BBX 19 21 3 0
BITMAP
000080
000060
000720
1C0180
070180
018000
018020
800040
700040
180080
0C0100
0C0300
000200
000400
001800
003000
006000
01C000
270000
3C0000
180000
ENDCHAR
STARTCHAR 30B9
ENCODING 12473
SWIDTH 1000 0
DWIDTH 24 0
BBX 19 17 2 0
BITMAP
100C00
0FF600
0F0400
000C00
000800
001800
001000
003000
006000
007800
00C600
018380
0301C0
0C00E0
180060
600060
800000
ENDCHAR
STARTCHAR 30BA
ENCODING 12474
SWIDTH 1000 0
DWIDTH 24 0
BBX 21 21 2 0
BITMAP
000040
000030
000198
0000D8
100C40
0FF600
0F0400
000C00
000800
001800
001000
003000
006000
007800
00C600
018380
0301C0
0C00E0
180060
600060
800000
ENDCHAR
STARTCHAR 30BB
ENCODING 12475
SWIDTH 1000 0
DWIDTH 24 0
BBX 18 18 2 1
BITMAP
0E0000
020000
020000
020080
0207C0
027DC0
FF8180
7A0300
020600
020800
021000
020000
020000
020000
020000
020000
010380
00FF80
ENDCHAR
STARTCHAR 30BC
ENCODING 12476
SWIDTH 1000 0
DWIDTH 24 0
BBX 21 20 2 1
BITMAP
000030
000118
0E00C8
020060
020060
020080
0207C0
027DC0
FF8180
7A0300
020600
020800
021000
020000
020000
020000
020000
020000
010380
00FF80
ENDCHAR
STARTCHAR 30BD
ENCODING 12477
SWIDTH 1000 0
DWIDTH 24 0
BBX 17 18 3 -1
BITMAP
000300
800180
600180
300180
180300
1C0300
1C0200
0C0600
000600
000C00
001800
001800
003000
006000
00C000
010000
060000
180000
ENDCHAR
STARTCHAR 30BE
ENCODING 12478
SWIDTH 1000 0
DWIDTH 24 0
BBX 21 21 3 -1
BITMAP
000020
000118
0000D8
000260
8001E0
600180
300180
180100
1C0300
1C0300
0C0600
000600
000C00
000800
001800
003000
006000
00C000
010000
060000
180000
ENDCHAR
STARTCHAR 30BF
ENCODING 12479
SWIDTH 1000 0
DWIDTH 24 0
BBX 17 20 3 -1
BITMAP
010000
018000
018100
03BF80
034380
060300
060200
0C0600
1B0600
318C00
606800
803800
003800
006C00
00C400
018000
030000
0C0000
300000
400000
ENDCHAR
STARTCHAR 30C0
ENCODING 12480
SWIDTH 1000 0
DWIDTH 24 0
BBX 21 22 3 -1
BITMAP
000060
000018
010198
0180C0
018140
03BF80
034380
060300
060200
0C0600
1B0600
318C00
606800
803800
003800
006C00
00C400
018000
030000
0C0000
300000
400000
ENDCHAR
STARTCHAR 30C1
ENCODING 12481
SWIDTH 1000 0
DWIDTH 24 0
BBX 20 20 2 0
BITMAP
000200
000700
001E00
01F000
3E3000
002000
002000
002060
807FF0
7FA000
002000
002000
006000
004000
00C000
008000
018000
020000
0C0000
100000
ENDCHAR
STARTCHAR 30C2
ENCODING 12482
SWIDTH 1000 0
DWIDTH 24 0
BBX 21 22 2 -1
BITMAP
000020
000018
0002C8
000760
001E20
01F000
3E3000
002000
002000
002060
807FF0
7FA000
002000
002000
006000
004000
00C000
008000
018000
020000
0C0000
100000
ENDCHAR
STARTCHAR 30C3
ENCODING 12483
SWIDTH 1000 0
DWIDTH 24 0
BBX 15 16 4 -1
BITMAP
0008
0406
C206
6306
230C
310C
3008
0018
0010
0030
0060
00C0
0180
0300
0C00
1000
ENDCHAR
STARTCHAR 30C4
ENCODING 12484
SWIDTH 1000 0
DWIDTH 24 0
BBX 18 19 3 -1
BITMAP
040200
0201C0
8300C0
C100C0
618180
718180
318100
300300
000200
000600
000C00
001800
001000
003000
00C000
018000
060000
080000
100000
ENDCHAR
STARTCHAR 30C5
ENCODING 12485
SWIDTH 1000 0
DWIDTH 24 0
BBX 21 22 3 -1
BITMAP
000020
000018
0000D8
040260
020120
830180
C10180
618180
718100
318300
300200
000600
000400
000C00
001800
003000
006000
00C000
018000
060000
080000
100000
ENDCHAR
STARTCHAR 30C6
ENCODING 12486
SWIDTH 1000 0
DWIDTH 24 0
BBX 20 20 2 -2
BITMAP
080F00
0FF800
000000
000000
000000
000000
800070
403F80
3FE000
002000
002000
006000
006000
006000
004000
00C000
018000
030000
040000
080000
ENDCHAR
STARTCHAR 30C7
ENCODING 12487
SWIDTH 1000 0
DWIDTH 24 0
BBX 22 23 2 -2
BITMAP
000010
00000C
0000EC
080F30
0FF830
000000
000000
000000
000000
800070
403F80
3FE000
002000
002000
006000
006000
006000
004000
00C000
018000
030000
040000
080000
ENDCHAR
STARTCHAR 30C8
ENCODING 12488
SWIDTH 1000 0
DWIDTH 24 0
BBX 12 20 8 0
BITMAP
C000
6000
2000
2000
2000
2000
2000
3000
2E00
23C0
20E0
2070
2030
2000
2000
2000
6000
6000
6000
6000
ENDCHAR
STARTCHAR 30C9
ENCODING 12489
SWIDTH 1000 0
DWIDTH 24 0
BBX 13 20 8 0
BITMAP
C000
6000
2070
2118
20D8
2040
2000
3000
2E00
23C0
20E0
2070
2030
2000
2000
2000
6000
6000
6000
6000
ENDCHAR
STARTCHAR 30CA
ENCODING 12490
SWIDTH 1000 0
DWIDTH 24 0
BBX 20 21 2 -2
BITMAP
006000
003000
003000
003000
003000
003000
0030E0
FFFFF0
7C3000
003000
002000
002000
006000
006000
004000
00C000
018000
010000
020000
0C0000
100000
ENDCHAR
STARTCHAR 30CB
ENCODING 12491
SWIDTH 1000 0
DWIDTH 24 0
BBX 20 12 2 3
BITMAP
100700
0FFF80
000000
000000
000000
000000
000000
000000
000000
8001E0
FFFFF0
700000
ENDCHAR
STARTCHAR 30CC
ENCODING 12492
SWIDTH 1000 0
DWIDTH 24 0
BBX 16 18 3 0
BITMAP
0006
3FFF
1F07
0006
000C
000C
0808
0618
01F0
0070
0078
00CC
0186
0303
0601
0800
3000
C000
ENDCHAR
STARTCHAR 30CD
ENCODING 12493
SWIDTH 1000 0
DWIDTH 24 0
BBX 19 21 2 -1
BITMAP
030000
00E000
007000
001000
000000
1FFC00
0FC600
000C00
001800
003000
006000
00EE00
01A380
0220C0
0C2060
102060
602000
806000
006000
006000
006000
ENDCHAR
STARTCHAR 30CE
ENCODING 12494
SWIDTH 1000 0
DWIDTH 24 0
BBX 14 18 4 0
BITMAP
0010
000C
000C
000C
0018
0018
0010
0030
0020
0060
00C0
0180
0300
0600
0C00
1800
6000
8000
ENDCHAR
STARTCHAR 30CF
ENCODING 12495
SWIDTH 1000 0
DWIDTH 24 0
BBX 20 14 2 2
BITMAP
070800
018400
018200
010100
030180
0200C0
0600C0
040060
0C0070
180030
100030
200030
400000
800000
ENDCHAR
STARTCHAR 30D0
ENCODING 12496
SWIDTH 1000 0
DWIDTH 24 0
BBX 20 18 2 3
BITMAP
000060
000330
0000D0
0000C0
070800
018400
018200
010100
030180
0200C0
0600C0
040060
0C0070
180030
100030
200030
400000
800000
ENDCHAR
STARTCHAR 30D1
ENCODING 12497
SWIDTH 1000 0
DWIDTH 24 0
BBX 20 18 2 2
BITMAP
0000E0
000110
000110
000110
0708E0
018400
018200
010100
030180
0200C0
0600C0
040060
0C0070
180030
100030
200030
400000
800000
ENDCHAR
STARTCHAR 30D2
ENCODING 12498
SWIDTH 1000 0
DWIDTH 24 0
BBX 16 18 4 1
BITMAP
C000
6000
6000
600C
6006
601C
2070
2180
2E00
3000
2000
2000
2000
2000
2000
2002
181F
0FFE
ENDCHAR
STARTCHAR 30D3
ENCODING 12499
SWIDTH 1000 0
DWIDTH 24 0
BBX 18 20 4 1
BITMAP
000180
0008C0
C00640
600300
600100
600C00
600600
601C00
207000
218000
2E0000
300000
200000
200000
200000
200000
200000
200200
181F00
0FFE00
ENDCHAR
STARTCHAR 30D4
ENCODING 12500
SWIDTH 1000 0
DWIDTH 24 0
BBX 18 20 4 0
BITMAP
000380
000440
C00440
600440
600380
600C00
600600
601C00
207000
218000
2E0000
300000
200000
200000
200000
200000
200000
200200
181F00
0FFE00
ENDCHAR
STARTCHAR 30D5
ENCODING 12501
SWIDTH 1000 0
DWIDTH 24 0
BBX 16 17 4 -1
BITMAP
0006
FFFF
7C03
0006
0006
0004
000C
0008
0018
0010
0020
0060
00C0
0180
0600
0C00
3000
ENDCHAR
STARTCHAR 30D6
ENCODING 12502
SWIDTH 1000 0
DWIDTH 24 0
BBX 20 21 4 -1
BITMAP
000040
000030
0003B0
0000C0
0006C0
FFFF00
7C0300
000600
000600
000400
000C00
000800
001800
001000
002000
006000
00C000
018000
060000
0C0000
300000
ENDCHAR
STARTCHAR 30D7
ENCODING 12503
SWIDTH 1000 0
DWIDTH 24 0
BBX 20 21 4 -1
BITMAP
0000E0
000110
000110
000110
0006E0
FFFF00
7C0300
000600
000600
000400
000C00
000800
001800
003000
002000
006000
00C000
010000
060000
080000
300000
ENDCHAR
STARTCHAR 30D8
ENCODING 12504
SWIDTH 1000 0
DWIDTH 24 0
BBX 21 11 1 4
BITMAP
00C000
012000
031000
060800
040600
0C0300
980180
7000C0
300070
000038
000018
ENDCHAR
STARTCHAR 30D9
ENCODING 12505
SWIDTH 1000 0
DWIDTH 24 0
BBX 21 14 1 4
BITMAP
0000C0
000030
000330
00C180
012080
031000
060800
040600
0C0300
980180
7000C0
300070
000038
000018
ENDCHAR
STARTCHAR 30DA
ENCODING 12506
SWIDTH 1000 0
DWIDTH 24 0
BBX 21 14 1 4
BITMAP
0000C0
000120
000120
00C120
0120E0
031000
060800
040600
0C0300
980180
7000C0
300070
000038
000018
ENDCHAR
STARTCHAR 30DB
ENCODING 12507
SWIDTH 1000 0
DWIDTH 24 0
BBX 19 20 3 0
BITMAP
01C000
00C000
004000
004000
004000
804380
C1FFC0
7E4000
004000
104400
104300
104180
1040C0
2040C0
604060
604060
C74060
81C000
00C000
008000
ENDCHAR
STARTCHAR 30DC
ENCODING 12508
SWIDTH 1000 0
DWIDTH 24 0
BBX 20 21 3 0
BITMAP
000060
01C230
00C190
0040C0
004040
004000
804380
C1FFC0
7E4000
004000
104400
104300
104180
1040C0
2040C0
604060
604060
C74060
81C000
00C000
008000
ENDCHAR
STARTCHAR 30DD
ENCODING 12509
SWIDTH 1000 0
DWIDTH 24 0
BBX 20 21 3 -1
BITMAP
0000C0
01C130
00C110
004110
0040E0
004000
804380
C1FFC0
7E4000
004000
104400
104300
104180
1040C0
2040C0
604060
604060
C74060
81C000
00C000
008000
ENDCHAR
STARTCHAR 30DE
ENCODING 12510
SWIDTH 1000 0
DWIDTH 24 0
BBX 19 15 2 1
BITMAP
8001C0
7FFFE0
3C00E0
0001C0
000180
000300
080600
060C00
019000
00E000
006000
003000
003800
001800
001800
ENDCHAR
STARTCHAR 30DF
ENCODING 12511
SWIDTH 1000 0
DWIDTH 24 0
BBX 13 17 5 1
BITMAP
3F80
01E0
0060
0000
0000
7F00
03C0
00E0
0060
0000
0000
FC00
0780
01E0
0070
0038
0018
ENDCHAR
STARTCHAR 30E0
ENCODING 12512
SWIDTH 1000 0
DWIDTH 24 0
BBX 19 18 2 1
BITMAP
00C000
006000
006000
00C000
00C000
008000
018000
011000
030C00
020600
060300
040180
0C0080
0807C0
10F8C0
FF8060
780060
000060
ENDCHAR
STARTCHAR 30E1
ENCODING 12513
SWIDTH 1000 0
DWIDTH 24 0
BBX 15 19 3 0
BITMAP
0010
000E
0006
0006
000C
000C
0818
0718
00F0
0070
0078
00CC
0186
0302
0600
0C00
1800
2000
C000
ENDCHAR
STARTCHAR 30E2
ENCODING 12514
SWIDTH 1000 0
DWIDTH 24 0
BBX 20 16 1 1
BITMAP
200F00
1FFF80
008000
008000
008000
008000
8081E0
43FE70
3C8000
008000
008000
008000
008000
008000
00C0E0
003FE0
ENDCHAR
STARTCHAR 30E3
ENCODING 12515
SWIDTH 1000 0
DWIDTH 24 0
BBX 16 17 4 -1
BITMAP
1C00
0C00
0400
0400
0607
03FF
FE0C
7208
0210
0320
0100
0100
0100
0100
0180
0180
0080
ENDCHAR
STARTCHAR 30E4
ENCODING 12516
SWIDTH 1000 0
DWIDTH 24 0
BBX 18 20 3 -1
BITMAP
1C0000
060000
060000
020000
020180
020EC0
03F180
FF0300
710200
010400
010800
011000
018000
008000
008000
008000
00C000
00C000
00C000
00C000
ENDCHAR
STARTCHAR 30E5
ENCODING 12517
SWIDTH 1000 0
DWIDTH 24 0
BBX 18 11 3 2
BITMAP
100800
0FFC00
000C00
000800
000800
000800
000800
000800
000800
C03FC0
7FC000
ENDCHAR
STARTCHAR 30E6
ENCODING 12518
SWIDTH 1000 0
DWIDTH 24 0
BBX 20 13 2 3
BITMAP
000600
1FFF00
0F8300
000200
000200
000200
000600
000600
000600
000600
000400
FFF7E0
7C0810
ENDCHAR
STARTCHAR 30E7
ENCODING 12519
SWIDTH 1000 0
DWIDTH 24 0
BBX 12 13 6 1
BITMAP
8020
7FF0
0030
0020
0020
4060
3FA0
0020
0020
0020
0020
80F0
7F00
ENDCHAR
STARTCHAR 30E8
ENCODING 12520
SWIDTH 1000 0
DWIDTH 24 0
BBX 15 15 4 2
BITMAP
000C
7FFE
3E06
0004
0004
0004
4004
207C
1F8C
000C
000C
000C
000C
FFFE
7F00
ENDCHAR
STARTCHAR 30E9
ENCODING 12521
SWIDTH 1000 0
DWIDTH 24 0
BBX 16 19 4 -1
BITMAP
2030
1FF8
0000
0000
0000
8006
FFFF
7806
000C
000C
0018
0018
0030
0060
00C0
0180
0200
0C00
3000
ENDCHAR
STARTCHAR 30EA
ENCODING 12522
SWIDTH 1000 0
DWIDTH 24 0
BBX 12 20 5 0
BITMAP
00E0
8030
6030
2030
2030
2030
2030
2030
2030
2030
6030
6030
6060
0060
00C0
00C0
0180
0200
0C00
3000
ENDCHAR
STARTCHAR 30EB
ENCODING 12523
SWIDTH 1000 0
DWIDTH 24 0
BBX 21 18 2 1
BITMAP
007000
001000
0F1000
031000
031000
031000
031008
031008
021010
061020
061060
0410C0
0C1180
181300
101E00
603C00
C03800
001000
ENDCHAR
STARTCHAR 30EC
ENCODING 12524
SWIDTH 1000 0
DWIDTH 24 0
BBX 16 18 5 0
BITMAP
C000
2000
2000
2000
2000
2001
2002
2004
200C
2018
2030
2060
2180
2300
2E00
7800
7000
2000
ENDCHAR
STARTCHAR 30ED
ENCODING 12525
SWIDTH 1000 0
DWIDTH 24 0
BBX 17 16 3 1
BITMAP
800000
600F80
3FF180
300180
300100
300300
300300
300300
300300
300300
300200
300200
300200
3FFF00
300000
300000
ENDCHAR
STARTCHAR 30EE
ENCODING 12526
SWIDTH 1000 0
DWIDTH 24 0
BBX 14 16 5 -1
BITMAP
0008
C0FC
7F0C
6008
6018
6018
6010
6010
6020
0020
0040
00C0
0180
0300
0400
1800
ENDCHAR
STARTCHAR 30EF
ENCODING 12527
SWIDTH 1000 0
DWIDTH 24 0
BBX 16 19 4 -1
BITMAP
0002
C01F
7FE3
6002
6006
6006
6004
6004
600C
6008
0018
0010
0020
0060
00C0
0180
0200
0400
1800
ENDCHAR
STARTCHAR 30F0
ENCODING 12528
SWIDTH 1000 0
DWIDTH 24 0
BBX 20 20 2 0
BITMAP
007000
001800
001800
001800
4019C0
3FFFE0
041800
041800
041800
041800
041800
041800
E47FF0
7F9800
001800
001800
001800
001800
001800
001800
ENDCHAR
STARTCHAR 30F1
ENCODING 12529
SWIDTH 1000 0
DWIDTH 24 0
BBX 20 15 2 2
BITMAP
000100
200F80
1FF380
000600
000C00
013000
00E000
006000
006000
006000
004000
004000
004000
807FF0
7F8000
ENDCHAR
STARTCHAR 30F2
ENCODING 12530
SWIDTH 1000 0
DWIDTH 24 0
BBX 16 18 4 0
BITMAP
FFFE
7FC3
0003
0006
0006
803C
7FCC
000C
0018
0018
0030
0020
0060
00C0
0180
0200
0C00
1000
ENDCHAR
STARTCHAR 30F3
ENCODING 12531
SWIDTH 1000 0
DWIDTH 24 0
BBX 18 16 4 2
BITMAP
E00000
380000
1C0080
0C00C0
0C0100
000100
000200
000400
000C00
001800
007000
00E000
038000
8F0000
7C0000
300000
ENDCHAR
STARTCHAR 30F4
ENCODING 12532
SWIDTH 1000 0
DWIDTH 24 0
BBX 20 22 4 -1
BITMAP
000080
000060
038330
0181B0
018080
018200
C7FF00
780300
600200
600600
600600
600600
600400
600C00
000800
001800
003000
006000
00C000
018000
020000
0C0000
ENDCHAR
STARTCHAR 30F5
ENCODING 12533
SWIDTH 1000 0
DWIDTH 24 0
BBX 16 17 4 -2
BITMAP
0100
0180
0180
0180
0186
41FB
3F03
0106
0306
0206
0206
0404
0C8C
0848
1038
2030
C000
ENDCHAR
STARTCHAR 30F6
ENCODING 12534
SWIDTH 1000 0
DWIDTH 24 0
BBX 16 17 4 -1
BITMAP
0800
0C00
0C00
0C00
181F
1FE0
3060
2040
4040
8040
00C0
0080
0180
0100
0200
0C00
1000
ENDCHAR
STARTCHAR 30F7
ENCODING 12535
SWIDTH 1000 0
DWIDTH 24 0
BBX 20 22 4 -1
BITMAP
000040
000030
0003B0
0000C0
C006C0
7FFB00
600300
600600
600600
600600
600400
600C00
600C00
001800
001000
003000
006000
00C000
018000
030000
040000
180000
ENDCHAR
STARTCHAR 30F8
ENCODING 12536
SWIDTH 1000 0
DWIDTH 24 0
BBX 22 21 2 0
BITMAP
000018
0038CC
00183C
001830
001800
4019C0
3FFFE0
041800
041800
041800
041800
041800
040800
E47FF0
7F8800
000800
000800
000800
000800
000800
000800
ENDCHAR
STARTCHAR 30F9
ENCODING 12537
SWIDTH 1000 0
DWIDTH 24 0
BBX 21 19 2 2
BITMAP
000020
000010
0000D8
000068
000120
201F80
1FE300
000600
000800
013000
00E000
006000
006000
006000
004000
004000
004000
807FF0
7F8000
ENDCHAR
STARTCHAR 30FA
ENCODING 12538
SWIDTH 1000 0
DWIDTH 24 0
BBX 20 22 4 -1
BITMAP
000040
000030
0003B0
0000C0
FFFEC0
7FC300
000300
000600
000600
803E00
7FCC00
000C00
001800
001800
003000
002000
006000
00C000
010000
020000
0C0000
100000
ENDCHAR
STARTCHAR 30FB
ENCODING 12539
SWIDTH 1000 0
DWIDTH 24 0
BBX 3 3 10 7
BITMAP
E0
E0
60
ENDCHAR
STARTCHAR 30FC
ENCODING 12540
SWIDTH 1000 0
DWIDTH 24 0
BBX 20 2 2 10
BITMAP
FFFFE0
7FFFF0
ENDCHAR
STARTCHAR 30FD
ENCODING 12541
SWIDTH 1000 0
DWIDTH 24 0
BBX 10 12 7 4
BITMAP
8000
6000
1000
1800
0C00
0600
0300
0180
0180
01C0
00C0
00C0
ENDCHAR
STARTCHAR 30FE
ENCODING 12542
SWIDTH 1000 0
DWIDTH 24 0
BBX 13 15 7 3
BITMAP
0040
0030
0198
8078
6060
1000
1800
0C00
0600
0300
0180
0180
01C0
00C0
00C0
ENDCHAR
STARTCHAR 30FF
ENCODING 12543
SWIDTH 1000 0
DWIDTH 24 0
BBX 15 19 4 -1
BITMAP
0004
807E
7F84
0004
0004
0004
0004
0004
0004
0004
0004
0004
0004
0004
0004
0004
0004
0004
0004
ENDCHAR
STARTCHAR 31F0
ENCODING 12784
SWIDTH 1000 0
DWIDTH 24 0
BBX 13 16 5 -1
BITMAP
0600
0300
0218
07F8
0C10
0810
1020
2020
C040
00C0
0180
0300
0600
0C00
3000
C000
ENDCHAR
STARTCHAR 31F1
ENCODING 12785
SWIDTH 1000 0
DWIDTH 24 0
BBX 15 15 5 0
BITMAP
2000
1C00
0600
0202
8002
7004
180C
1808
0010
0060
00C0
0180
0700
7C00
3800
ENDCHAR
STARTCHAR 31F2
ENCODING 12786
SWIDTH 1000 0
DWIDTH 24 0
BBX 15 14 4 -1
BITMAP
0020
20F0
1F30
0020
0060
0040
00C0
0180
0160
0230
040C
080C
3006
C002
ENDCHAR
STARTCHAR 31F3
ENCODING 12787
SWIDTH 1000 0
DWIDTH 24 0
BBX 10 17 8 -1
BITMAP
4000
A000
2000
2000
2000
2000
3000
2E00
2380
20C0
2040
2000
2000
2000
2000
2000
2000
ENDCHAR
STARTCHAR 31F4
ENCODING 12788
SWIDTH 1000 0
DWIDTH 24 0
BBX 13 14 5 -1
BITMAP
4070
3FB0
0020
0020
0040
3840
0680
0180
0160
0230
0418
0808
3000
C000
ENDCHAR
STARTCHAR 31F5
ENCODING 12789
SWIDTH 1000 0
DWIDTH 24 0
BBX 17 12 3 0
BITMAP
042000
031000
030800
020400
060600
040300
0C0300
180180
100180
200080
400000
800000
ENDCHAR
STARTCHAR 31F6
ENCODING 12790
SWIDTH 1000 0
DWIDTH 24 0
BBX 14 15 5 0
BITMAP
4000
E000
2000
2030
2070
20C0
2300
3C00
2000
2000
2000
2000
2000
301C
0FF8
ENDCHAR
STARTCHAR 31F7
ENCODING 12791
SWIDTH 1000 0
DWIDTH 24 0
BBX 14 14 5 -1
BITMAP
8018
7FEC
0018
0018
0010
0030
0020
0060
00C0
0180
0300
0600
0800
3000
ENDCHAR
STARTCHAR 31F8
ENCODING 12792
SWIDTH 1000 0
DWIDTH 24 0
BBX 16 10 4 2
BITMAP
0600
0500
0880
1040
3060
6030
E018
C00E
0007
0001
ENDCHAR
STARTCHAR 31F9
ENCODING 12793
SWIDTH 1000 0
DWIDTH 24 0
BBX 16 17 4 -1
BITMAP
0200
0180
0080
0080
0080
40FF
3F80
0080
1098
1084
1086
3083
6083
E883
C780
0180
0080
ENDCHAR
STARTCHAR 31FA
ENCODING 12794
SWIDTH 1000 0
DWIDTH 24 0
BBX 15 15 4 0
BITMAP
0300
0180
0180
0300
0300
0200
0640
0420
0C10
0808
100C
1074
EF86
7006
0002
ENDCHAR
STARTCHAR 31FB
ENCODING 12795
SWIDTH 1000 0
DWIDTH 24 0
BBX 13 16 5 -1
BITMAP
20C0
1F20
0000
0000
0008
8078
7F98
0030
0020
0060
0040
0080
0100
0600
0800
3000
ENDCHAR
STARTCHAR 31FC
ENCODING 12796
SWIDTH 1000 0
DWIDTH 24 0
BBX 9 16 7 0
BITMAP
0180
C080
4080
4080
4080
4080
4080
4080
4080
4080
0100
0100
0200
0400
0800
3000
ENDCHAR
STARTCHAR 31FD
ENCODING 12797
SWIDTH 1000 0
DWIDTH 24 0
BBX 18 15 3 0
BITMAP
00E000
0C6000
066000
066000
066000
066040
066080
046080
0C6100
0C4200
184C00
105800
207000
402000
800000
ENDCHAR
STARTCHAR 31FE
ENCODING 12798
SWIDTH 1000 0
DWIDTH 24 0
BBX 13 14 7 1
BITMAP
C000
4000
4000
4000
4018
4010
4020
4040
4180
4300
4600
5800
E000
C000
ENDCHAR
STARTCHAR 31FF
ENCODING 12799
SWIDTH 1000 0
DWIDTH 24 0
BBX 14 13 5 0
BITMAP
C018
7FFC
600C
6008
6008
6018
6018
6018
6010
6010
6FF8
7000
6000
ENDCHAR
STARTCHAR 3231
ENCODING 12849
SWIDTH 1000 0
DWIDTH 24 0
BBX 21 22 2 -2
BITMAP
200060
280420
464620
443410
442410
8524D0
BFFFC8
844408
8C4408
8E8448
8DFFE8
8D8C08
948E08
941E08
A41508
A42588
8464D0
444470
448450
450420
240420
200020
ENDCHAR
STARTCHAR 3232
ENCODING 12850
SWIDTH 1000 0
DWIDTH 24 0
BBX 22 22 1 -2
BITMAP
300020
204010
20E010
40C088
408048
5FFFE8
818004
810104
81FF84
830104
870104
85FF04
890104
990104
91FF04
810104
410108
410108
411108
210F10
210210
200020
ENDCHAR
STARTCHAR 3239
ENCODING 12857
SWIDTH 1000 0
DWIDTH 24 0
BBX 21 22 1 -2
BITMAP
200040
221020
431C20
421310
461190
441190
841088
8E10C8
8DFF08
9C1008
941808
A40808
C40808
840808
840C08
840488
440690
440290
440190
4400E0
240020
200040
ENDCHAR
STARTCHAR 3251
ENCODING 12881
SWIDTH 1000 0
DWIDTH 24 0
BBX 22 22 1 -2
BITMAP
00FC00
030300
0400C0
180060
378130
2CC710
4C4108
4C4108
804104
808104
808104
810104
810104
820104
844108
444108
484110
2FC790
100060
0C0040
030180
00FE00
ENDCHAR
STARTCHAR 3252
ENCODING 12882
SWIDTH 1000 0
DWIDTH 24 0
BBX 22 22 1 -2
BITMAP
00FC00
030300
040080
080040
3787A0
2CCCD0
4C4C48
4C4C48
804044
808084
808084
810104
810104
820204
444448
444448
484858
2FCFD0
100020
0C0040
030380
00FC00
ENDCHAR
STARTCHAR 3253
ENCODING 12883
SWIDTH 1000 0
DWIDTH 24 0
BBX 22 22 1 -2
BITMAP
00FC00
070380
0800C0
100060
2787B0
68C8D8
4C4C48
CC4C48
804044
808084
808304
8100C4
810024
820024
445C28
445C28
485850
2FC790
100020
0C0040
030380
00FC00
ENDCHAR
STARTCHAR 3254
ENCODING 12884
SWIDTH 1000 0
DWIDTH 24 0
BBX 22 22 1 -2
BITMAP
00FC00
030380
0C00C0
100060
2780B0
2CC198
4C4188
4C4288
804284
808484
808884
810884
811084
821FE4
444088
444088
284090
2FC1D0
100220
0C0040
030180
00FE00
ENDCHAR
STARTCHAR 3255
ENCODING 12885
SWIDTH 1000 0
DWIDTH 24 0
BBX 21 22 1 -2
BITMAP
00FC00
030700
0C0180
100040
278FA0
684830
4C4810
4C4810
804808
808F08
808888
810848
810048
820048
445850
445850
485890
2FCF20
100040
0C0080
070300
01FC00
ENDCHAR
STARTCHAR 3256
ENCODING 12886
SWIDTH 1000 0
DWIDTH 24 0
BBX 22 22 1 -2
BITMAP
00FC00
030200
040180
080040
1783A0
2CC4D0
4C48C8
4C48C8
805804
809804
809F84
811084
811044
821044
445048
444848
484898
2FC730
100020
0C00C0
030380
00FC00
ENDCHAR
STARTCHAR 3257
ENCODING 12887
SWIDTH 1000 0
DWIDTH 24 0
BBX 22 22 1 -2
BITMAP
00FC00
030300
0C00C0
100060
278FF0
28C850
4C4888
4C4888
804084
808104
808104
810104
810104
820304
444308
444308
284210
2FC210
100020
0C0040
030380
00FC00
ENDCHAR
STARTCHAR 3258
ENCODING 12888
SWIDTH 1000 0
DWIDTH 24 0
BBX 22 22 1 -2
BITMAP
00FC00
030200
040180
080040
1787A0
2CCCD0
4C4848
4C4848
804844
808484
808704
810704
810884
821044
445048
445048
485898
2FC730
100020
0C00C0
030380
00FC00
ENDCHAR
STARTCHAR 3259
ENCODING 12889
SWIDTH 1000 0
DWIDTH 24 0
BBX 22 22 1 -2
BITMAP
00FC00
030200
040180
080040
178720
2CCC90
4C5888
4C5048
805044
809044
809044
8108C4
810744
8200C4
4440C8
445C88
485D98
2FCF30
100020
0C00C0
030380
00FC00
ENDCHAR
STARTCHAR 325A
ENCODING 12890
SWIDTH 1000 0
DWIDTH 24 0
BBX 21 22 2 -2
BITMAP
01FC00
060700
080180
100040
2F0720
5988B0
588890
D89050
809048
811048
861048
819048
805048
805048
985050
584890
5888A0
2F0720
100040
080080
060300
01FC00
ENDCHAR
STARTCHAR 325B
ENCODING 12891
SWIDTH 1000 0
DWIDTH 24 0
BBX 22 22 1 -2
BITMAP
00FE00
030380
0C00C0
100120
278710
6C4118
4C2108
4C2108
802104
804104
838104
80C104
802104
802104
4C2108
4C2108
2C4110
2787D0
100020
0C0040
030180
00FE00
ENDCHAR
STARTCHAR 325C
ENCODING 12892
SWIDTH 1000 0
DWIDTH 24 0
BBX 21 22 2 -2
BITMAP
01F800
060700
180180
100040
2F0F20
58D1B0
585890
D85890
804088
808108
870108
818208
804208
804408
984890
984890
5090B0
4F1FA0
200040
180080
060700
01FC00
ENDCHAR
STARTCHAR 325D
ENCODING 12893
SWIDTH 1000 0
DWIDTH 24 0
BBX 21 22 2 -2
BITMAP
01FC00
060700
180180
100040
2F0F20
5999B0
589890
D89890
808088
810108
860608
818188
804048
804048
985850
585850
5898B0
2F0F20
100040
080080
060700
01FC00
ENDCHAR
STARTCHAR 325E
ENCODING 12894
SWIDTH 1000 0
DWIDTH 24 0
BBX 22 22 1 -2
BITMAP
00FC00
030380
0400C0
180020
378090
2CC190
4C4188
4C4288
804284
808484
830C84
808884
805084
805FC4
4C4088
4C4088
2C8090
3783D0
180020
0C0040
030180
00FE00
ENDCHAR
STARTCHAR 325F
ENCODING 12895
SWIDTH 1000 0
DWIDTH 24 0
BBX 21 22 2 -2
BITMAP
01F800
060700
080180
100040
2F0FA0
598830
588810
D88810
808808
811708
861888
819048
804048
804048
985850
5858D0
5898B0
2F0F20
100040
080080
060700
01FC00
ENDCHAR
STARTCHAR 32A4
ENCODING 12964
SWIDTH 1000 0
DWIDTH 24 0
BBX 22 22 1 -2
BITMAP
00FC00
030300
040080
183060
202010
202010
402008
402008
802104
803F84
802004
802004
802004
802004
402008
4020C8
2FFFD0
300010
180020
0C00C0
030300
00FC00
ENDCHAR
STARTCHAR 32A5
ENCODING 12965
SWIDTH 1000 0
DWIDTH 24 0
BBX 22 22 1 -2
BITMAP
00FE00
070380
0800C0
103060
202030
402018
502048
8FFFE8
882044
882044
882044
882044
882044
8FFFC4
402008
402008
402010
202010
102020
0C0040
030180
00FE00
ENDCHAR
STARTCHAR 32A6
ENCODING 12966
SWIDTH 1000 0
DWIDTH 24 0
BBX 22 22 1 -2
BITMAP
00FC00
030300
040080
180040
300020
2000D0
5FFFC8
402008
802004
802004
803C04
802704
802384
802184
402008
402008
602018
202030
102060
0C00C0
030380
00FC00
ENDCHAR
STARTCHAR 32A7
ENCODING 12967
SWIDTH 1000 0
DWIDTH 24 0
BBX 22 22 1 -2
BITMAP
00FC00
070300
0880C0
106060
20C030
60C0D0
4FFFC8
C08008
808004
818004
810104
81FF84
831004
861004
441008
481008
301090
27FFD0
100020
0C0040
030380
00FC00
ENDCHAR
STARTCHAR 32A8
ENCODING 12968
SWIDTH 1000 0
DWIDTH 24 0
BBX 22 21 1 -1
BITMAP
00FE00
070380
0840C0
106020
20C010
40C058
5FFFE8
C0800C
818004
810004
830084
83FFC4
870084
8D0084
490088
510088
21FF90
1100A0
0C0040
070080
00FF00
ENDCHAR
STARTCHAR 32B1
ENCODING 12977
SWIDTH 1000 0
DWIDTH 24 0
BBX 21 22 2 -2
BITMAP
01FC00
060700
180180
100040
2F0720
598DB0
588990
D89810
809808
811708
861888
819048
805048
805048
985050
585850
5888B0
2F0720
100040
080080
060700
01FC00
ENDCHAR
STARTCHAR 32B2
ENCODING 12978
SWIDTH 1000 0
DWIDTH 24 0
BBX 22 22 1 -2
BITMAP
00FC00
030300
0400C0
180020
378FD0
2C4850
4C2888
4C2888
802084
804104
838104
80C104
802104
802304
4C2308
4C2308
2C4210
378210
180020
0C00C0
030300
00FC00
ENDCHAR
STARTCHAR 32B3
ENCODING 12979
SWIDTH 1000 0
DWIDTH 24 0
BBX 22 22 1 -2
BITMAP
00FE00
030380
0C00C0
100020
278790
6CCC58
4C4848
4C4848
804C44
808684
830384
80C4C4
802844
802824
4C2828
4C2828
2C4C50
378390
180020
0C0040
030380
00FC00
ENDCHAR
STARTCHAR 32B4
ENCODING 12980
SWIDTH 1000 0
DWIDTH 24 0
BBX 22 22 1 -2
BITMAP
00FC00
030380
0C00C0
100020
278390
6CC458
4C4848
4C4828
804824
808824
830824
80C464
8027E4
802064
4C2048
4C2CC8
2C4890
378710
180020
0C00C0
030300
00FC00
ENDCHAR
STARTCHAR 32B5
ENCODING 12981
SWIDTH 1000 0
DWIDTH 24 0
BBX 22 22 1 -2
BITMAP
00FC00
030300
0C0080
100060
210330
230490
430888
450848
850844
850844
890844
890844
910844
9FC844
410848
410888
210490
23C310
100020
0C00C0
030300
00FC00
ENDCHAR
STARTCHAR 32B6
ENCODING 12982
SWIDTH 1000 0
DWIDTH 24 0
BBX 22 22 1 -2
BITMAP
00FC00
030300
0C00C0
180020
308310
218510
418108
428108
828104
848104
888104
888104
908104
9FE104
408108
408108
208110
23C7D0
100020
0C0040
030380
00FC00
ENDCHAR
STARTCHAR 32B7
ENCODING 12983
SWIDTH 1000 0
DWIDTH 24 0
BBX 22 22 1 -2
BITMAP
00FC00
030300
0C00C0
100060
2107B0
230CD0
430C48
450C48
850044
850084
890084
890104
910104
9FC204
410448
410448
210850
238FD0
104020
0C0040
030380
00FC00
ENDCHAR
STARTCHAR 32B8
ENCODING 12984
SWIDTH 1000 0
DWIDTH 24 0
BBX 22 22 1 -2
BITMAP
00FC00
030300
0400C0
180060
210790
230CD0
430C48
450C48
850044
890084
890304
8900C4
910024
9FC024
410C28
410C28
210C50
33C790
180020
0C0040
030180
00FE00
ENDCHAR
STARTCHAR 32B9
ENCODING 12985
SWIDTH 1000 0
DWIDTH 24 0
BBX 21 22 2 -2
BITMAP
01F800
060700
080180
100040
220120
460330
460310
8A0510
8A0508
8A0908
921108
921108
A22108
BFBFC8
820110
420110
420110
2787A0
100040
080080
060300
01FC00
ENDCHAR
STARTCHAR 32BA
ENCODING 12986
SWIDTH 1000 0
DWIDTH 24 0
BBX 22 22 1 -2
BITMAP
00FC00
030300
0400C0
180060
210FD0
230810
430808
450808
850804
890F04
890884
890044
910044
9FC044
411C48
411C48
211890
33CF10
180020
0C00C0
030300
00FC00
ENDCHAR
STARTCHAR 32BB
ENCODING 12987
SWIDTH 1000 0
DWIDTH 24 0
BBX 22 22 1 -2
BITMAP
00FC00
030300
0C0080
100060
2103B0
2304D0
430CC8
450808
851804
851B84
891C84
891044
911044
9FD044
411048
410848
210890
33C710
180020
0C00C0
030300
00FC00
ENDCHAR
STARTCHAR 32BC
ENCODING 12988
SWIDTH 1000 0
DWIDTH 24 0
BBX 22 22 1 -2
BITMAP
00FC00
030300
0C00C0
100060
211FF0
231050
431088
451088
850104
890104
890104
890304
910204
9FC204
410608
410608
210610
23C610
100020
0C0040
030380
00FC00
ENDCHAR
STARTCHAR 32BD
ENCODING 12989
SWIDTH 1000 0
DWIDTH 24 0
BBX 22 22 1 -2
BITMAP
00FC00
030300
0C00C0
100060
210790
230CD0
430848
450848
850844
850484
890304
890D84
911084
9FD044
411048
411048
210890
33C710
180020
0C00C0
030300
00FC00
ENDCHAR
STARTCHAR 32BE
ENCODING 12990
SWIDTH 1000 0
DWIDTH 24 0
BBX 22 22 1 -2
BITMAP
00FC00
030300
0C0080
100060
210730
230890
431088
451048
851044
851044
8908C4
890F44
910044
9FC0C4
411CC8
411C88
211990
23CF10
100020
0C00C0
030300
00FC00
ENDCHAR
STARTCHAR 32BF
ENCODING 12991
SWIDTH 1000 0
DWIDTH 24 0
BBX 22 22 1 -2
BITMAP
00FC00
030300
0C00C0
100020
2FC310
680490
480C88
480848
880844
8B8844
8C4844
802844
802844
802844
4C2848
4C6888
284490
378330
180060
0C00C0
030300
00FC00
ENDCHAR
STARTCHAR 32D0
ENCODING 13008
SWIDTH 1000 0
DWIDTH 24 0
BBX 22 22 1 -2
BITMAP
00FC00
030300
0C00C0
100060
200090
6807D0
47F988
400308
800604
803804
801004
801004
801004
801004
402008
402008
204010
208010
110020
0C00C0
030300
00FC00
ENDCHAR
STARTCHAR 32D1
ENCODING 13009
SWIDTH 1000 0
DWIDTH 24 0
BBX 22 22 1 -2
BITMAP
00FC00
030300
0C00C0
100260
200310
600710
400E08
401C08
803804
807004
819004
861004
981004
801004
401008
401008
201010
201010
101020
0C00C0
030300
00FC00
ENDCHAR
STARTCHAR 32D2
ENCODING 13010
SWIDTH 1000 0
DWIDTH 24 0
BBX 22 22 1 -2
BITMAP
00FC00
030300
0C00C0
103060
201010
601010
441088
43FFC8
820084
820084
820184
820184
820104
800304
400608
400408
200810
201010
106020
0C80C0
030300
00FC00
ENDCHAR
STARTCHAR 32D3
ENCODING 13011
SWIDTH 1000 0
DWIDTH 24 0
BBX 21 22 1 -2
BITMAP
01FC00
060700
080180
100040
200020
400030
480390
C7FC10
802008
802008
802008
802008
802008
802008
A02190
507FD0
4F8030
200020
100040
080080
070300
01FC00
ENDCHAR
STARTCHAR 32D4
ENCODING 13012
SWIDTH 1000 0
DWIDTH 24 0
BBX 22 22 1 -2
BITMAP
00FC00
030300
0C18C0
100C60
200C10
600410
5004E8
4FFF48
801404
802404
802404
804404
808404
818404
430408
442408
281C10
200C10
100420
0C00C0
030300
00FC00
ENDCHAR
STARTCHAR 32D5
ENCODING 13013
SWIDTH 1000 0
DWIDTH 24 0
BBX 22 22 1 -2
BITMAP
00FC00
030300
0C20C0
101860
201810
601010
401088
443FC8
83F0C4
802084
802084
806084
804084
804104
409108
410B08
230610
240410
100020
0C00C0
030300
00FC00
ENDCHAR
STARTCHAR 32D6
ENCODING 13014
SWIDTH 1000 0
DWIDTH 24 0
BBX 22 22 1 -2
BITMAP
00FC00
030300
0C00C0
10E060
206010
602010
402388
403F08
88E004
871004
8010C4
8017E4
907804
8F9804
401808
400808
200C10
200C10
100C20
0C00C0
030300
00FC00
ENDCHAR
STARTCHAR 32D7
ENCODING 13015
SWIDTH 1000 0
DWIDTH 24 0
BBX 22 22 1 -2
BITMAP
00FC00
030300
0C00C0
103060
203010
603190
407EC8
404188
80C184
818104
830304
840604
800604
800C04
401808
403008
20C010
210010
160020
0C00C0
030300
00FC00
ENDCHAR
STARTCHAR 32D8
ENCODING 13016
SWIDTH 1000 0
DWIDTH 24 0
BBX 22 22 1 -2
BITMAP
00FC00
030300
0C00C0
118060
20C010
60C010
4180C8
41FFE8
830C04
820C04
840C04
880C04
900804
801804
401008
403008
206010
20C010
110020
0C00C0
030300
00FC00
ENDCHAR
STARTCHAR 32D9
ENCODING 13017
SWIDTH 1000 0
DWIDTH 24 0
BBX 22 22 1 -2
BITMAP
00FC00
030300
0C00C0
100060
200010
600110
460388
43FD88
800184
800104
800104
800104
800104
800104
400108
440388
23FC10
200010
100020
0C00C0
030300
00FC00
ENDCHAR
STARTCHAR 32DA
ENCODING 13018
SWIDTH 1000 0
DWIDTH 24 0
BBX 22 22 1 -2
BITMAP
00FC00
030380
0C00C0
100420
210310
208210
408208
408208
9087F4
8FFA04
808204
808204
808204
808604
400408
400408
200810
301010
186020
0D80C0
030300
00FC00
ENDCHAR
STARTCHAR 32DB
ENCODING 13019
SWIDTH 1000 0
DWIDTH 24 0
BBX 22 22 1 -2
BITMAP
00FC00
030300
0C00C0
100060
218010
606010
403028
403028
8F0044
838044
818084
800104
800204
800C04
401808
407008
23E010
238010
100020
0C00C0
030300
00FC00
ENDCHAR
STARTCHAR 32DC
ENCODING 13020
SWIDTH 1000 0
DWIDTH 24 0
BBX 22 22 1 -2
BITMAP
00FC00
030300
0C00C0
100060
220610
61FB10
400608
400608
800C04
800C04
801804
801804
802604
804104
408088
410048
260050
280010
100020
0C00C0
030300
00FC00
ENDCHAR
STARTCHAR 32DD
ENCODING 13021
SWIDTH 1000 0
DWIDTH 24 0
BBX 21 22 2 -2
BITMAP
01F800
060700
080180
120040
270020
410030
410010
810190
817F88
A38308
9D0608
810808
811008
810008
810010
410010
418330
207F20
100040
080080
060700
01FC00
ENDCHAR
STARTCHAR 32DE
ENCODING 13022
SWIDTH 1000 0
DWIDTH 24 0
BBX 22 22 1 -2
BITMAP
00FC00
030300
0C00C0
100060
200190
6400D0
4200C8
4300C8
818184
818184
818304
800304
800604
800404
400C08
401808
202010
20C010
110020
0C00C0
030300
00FC00
ENDCHAR
STARTCHAR 32DF
ENCODING 13023
SWIDTH 1000 0
DWIDTH 24 0
BBX 22 22 1 -2
BITMAP
00FC00
030300
0C00C0
103060
203010
602190
407EC8
404188
808184
818304
826304
841E04
800C04
800E04
401B08
403108
204010
218010
120020
0C00C0
030300
00FC00
ENDCHAR
STARTCHAR 32E0
ENCODING 13024
SWIDTH 1000 0
DWIDTH 24 0
BBX 22 22 1 -2
BITMAP
00FC00
030300
0C00C0
100260
200710
601E10
41F808
461808
801804
8018C4
903FE4
8FD004
801004
801004
403008
406008
204010
208010
130020
0C00C0
030300
00FC00
ENDCHAR
STARTCHAR 32E1
ENCODING 13025
SWIDTH 1000 0
DWIDTH 24 0
BBX 22 22 1 -2
BITMAP
00FC00
030300
0C00C0
100060
200010
6040D0
4C20C8
4630C8
833184
833184
830104
800304
800204
800604
400C08
401808
203010
206010
108020
0D00C0
030300
00FC00
ENDCHAR
STARTCHAR 32E2
ENCODING 13026
SWIDTH 1000 0
DWIDTH 24 0
BBX 22 22 1 -2
BITMAP
00FC00
030300
0C00C0
100060
220710
61FE10
400008
400008
800044
8807E4
87F804
801804
801004
801004
401008
403008
206010
204010
118020
0C00C0
030300
00FC00
ENDCHAR
STARTCHAR 32E3
ENCODING 13027
SWIDTH 1000 0
DWIDTH 24 0
BBX 22 22 1 -2
BITMAP
00FC00
030300
0C00C0
108060
204010
604010
404008
404008
806004
805804
804604
804304
804184
804084
404008
404008
204010
204010
104020
0C00C0
030300
00FC00
ENDCHAR
STARTCHAR 32E5
ENCODING 13029
SWIDTH 1000 0
DWIDTH 24 0
BBX 22 22 1 -2
BITMAP
00FC00
030300
0C00C0
100060
200010
600010
440388
43FC08
800004
800004
800004
800004
800004
9003E4
4FFC08
400008
200010
200010
100020
0C00C0
030300
00FC00
ENDCHAR
STARTCHAR 32E9
ENCODING 13033
SWIDTH 1000 0
DWIDTH 24 0
BBX 22 22 1 -2
BITMAP
00FC00
030300
0C00C0
100060
200010
618C10
40C208
40C308
818104
818084
8100C4
820044
860064
840064
480068
500008
200010
200010
100020
0C00C0
030300
00FC00
ENDCHAR
STARTCHAR 32EC
ENCODING 13036
SWIDTH 1000 0
DWIDTH 24 0
BBX 22 22 1 -2
BITMAP
00FC00
030300
0C00C0
100060
200010
600010
40C008
41A008
831004
860804
8C0604
9C0304
980184
8000E4
400068
400008
200010
200010
100020
0C00C0
030300
00FC00
ENDCHAR
ENDFONT
